<?xml version="1.0" standalone="no"?>
<!DOCTYPE svg PUBLIC "-//W3C//DTD SVG 1.1//EN" "http://www.w3.org/Graphics/SVG/1.1/DTD/svg11.dtd">
<svg xmlns="http://www.w3.org/2000/svg">
<metadata>Copyright (C) 2018 by original authors @ fontello.com</metadata>
<defs>
<font id="custome-icon" horiz-adv-x="1000" >
<font-face font-family="custome-icon" font-weight="400" font-stretch="normal" units-per-em="1000" ascent="850" descent="-150" />
<missing-glyph horiz-adv-x="1000" />
<glyph glyph-name="email-4" unicode="&#xe800;" d="M0 672v-649h1000v649h-1000z m886-58l-386-303-386 303h772z m55-533h-882v502l441-346 441 346v-502z" horiz-adv-x="1000" />

<glyph glyph-name="email-5" unicode="&#xe801;" d="M500 311l-461 361h921l-460-361z m0-74l-500 392v-606h1000v606l-500-392z" horiz-adv-x="1000" />

<glyph glyph-name="email-6" unicode="&#xe802;" d="M923 706h-846c-42 0-77-35-77-77v-558c0-42 35-77 77-77h845c42 0 77 35 77 77v558c3 42-32 77-76 77z m-844-46h843c15 0 28-11 31-24l-426-331c-17-13-44-13-59 0l-422 328c4 14 17 27 33 27z m-33-86l319-247-319-249v496z m877-538h-844v0c-4 0-7 0-9 2l333 260 37-29c17-13 37-18 57-18s42 6 57 18l41 31 337-261c-4-3-6-3-9-3z m33 42l-322 250 322 249v-499z" horiz-adv-x="1000" />

<glyph glyph-name="facebook-1" unicode="&#xe803;" d="M579 505v96c0 39 5 49 45 49 54 0 103 0 103 0l22 0 5 193-20 3c-2 0-51 6-117 6-187-1-254-125-254-231v-116h-119v-206h119v-450h216 0v450h167l10 206h-177z m124-162h-169v-450h-126 0v450h-119v117h119v161c0 90 55 186 210 186 39 0 71-2 91-4l-3-109c-19 0-50 0-82 0-79 0-90-47-90-94v-140h175l-6-117z" horiz-adv-x="1000" />

<glyph glyph-name="facebook-2" unicode="&#xe804;" d="M749 850h-499c-137 0-250-113-250-251v-499c0-137 113-250 250-250h499c138 0 251 113 251 251v498c0 138-113 251-251 251z m-115-500h-94v-310h-119v310h-63v127h56v54c0 51 25 131 133 131h98v-106h-69c-11 0-26-7-26-32v-48h98l-14-126z" horiz-adv-x="1000" />

<glyph glyph-name="facebook-3" unicode="&#xe805;" d="M883 850h-766c-64 0-117-53-117-117v-766c0-64 53-117 117-117h766c65 0 117 53 117 117v766c0 64-53 117-117 117z m39-883c0-22-18-39-39-39h-223v318h121l20 121h-141v84c0 33 25 59 59 59h80v121h-80c-99 0-180-81-180-180v-84h-117v-121h117v-318h-422c-22 0-39 18-39 39v766c0 22 18 39 39 39h766c22 0 39-18 39-39v-766z" horiz-adv-x="1000" />

<glyph glyph-name="facebook-4" unicode="&#xe806;" d="M760 811v-147c0-11-9-20-20-20l-84 0c-58 0-68-23-68-67v-92h147c5 0 10-2 14-6 4-4 6-9 6-14l0-158c0-11-9-20-20-20h-147v-399c0-11-9-20-20-20h-163c-11 0-20 9-20 20v400h-125c-11 0-20 9-20 20v157c0 11 9 20 20 20h125v109c0 144 90 237 231 237l124-1c11 0 20-8 20-19z" horiz-adv-x="1000" />

<glyph glyph-name="google-1" unicode="&#xe807;" d="M767 393l0 0 0-119c-36-175-198-307-384-307-211-1-383 171-383 383s172 384 384 384c105 0 199-42 269-110l-87-94c-46 47-111 76-182 76-141 0-256-115-256-256 0-141 115-256 256-256 115 0 211 75 244 179h-219v120h358z m160 0v73h-63v-73h-73v-63h73v-73h63v73h73v63h-73z" horiz-adv-x="1000" />

<glyph glyph-name="google-2" unicode="&#xe808;" d="M642 834h-231c-103 0-174-23-238-76-50-44-81-107-81-169 0-96 73-198 209-198 13 0 28 1 40 3l-1-5c-5-13-11-25-11-45 0-38 18-61 36-83l2-3-4 0c-56-4-160-11-237-58-90-54-97-131-97-154 0-90 84-181 271-181 218 0 331 120 331 239 0 88-51 131-106 177l-45 36c-14 12-32 26-32 54 0 27 18 44 33 60l2 2c50 39 106 84 106 180 0 97-60 146-89 170h77c1 0 2 0 3 1l66 41c2 1 3 3 2 6-2 2-4 3-6 3z m-95-779c0-84-71-136-185-136-133 0-222 62-222 154 0 60 36 104 108 130 57 19 132 20 132 20 13 0 19 0 29-1 94-66 138-101 138-167z m-101 407c-21-21-56-35-86-35-111 0-158 146-158 225 0 40 9 70 28 94 20 25 55 42 88 42 102 0 159-137 159-232 1-17 1-62-31-94z m525-85v-53c0-3-2-5-5-5h-122v-122c0-3-2-5-5-5h-52c-3 0-5 2-5 5v122h-121c-3 0-5 2-5 5v53c0 3 2 5 5 5h121v121c0 3 2 5 5 5h52c3 0 5-2 5-5v-121h122c2 0 5-2 5-5z" horiz-adv-x="1000" />

<glyph glyph-name="google-3" unicode="&#xe809;" d="M390 425c-70 0-100 85-100 145 0 65 35 85 65 85 75 0 105-100 105-150 0-75-70-80-70-80z m40-165c-5 0-10 0-15 0-15 0-60-5-90-15-35-10-75-35-75-85 0-55 50-110 150-110 75 0 120 50 120 100 0 35-25 60-90 110z m570 490v-800c0-55-45-100-100-100h-800c-55 0-100 45-100 100v800c0 55 45 100 100 100h800c55 0 100-45 100-100z m-400-565c0 80-55 115-95 145-10 5-20 10-25 15-10 5-20 15-20 30s10 30 20 35c45 30 80 65 80 135 0 55-25 90-45 110h35l5 5 35 35 15 15h-210c-140 0-205-95-205-180 0-75 60-150 160-150h20c-5-10-5-15-5-25 0-25 5-40 15-50-65-5-115-20-155-45-70-40-75-95-75-120 0-70 65-150 205-150 180 0 245 105 245 195z m250 215h-100v100h-50v-100h-100v-50h100v-100h50v100h100v50z" horiz-adv-x="1000" />

<glyph glyph-name="google-4" unicode="&#xe80a;" d="M495 433c-15-15-40-26-64-26-81 0-117 104-117 167 0 25 5 50 21 70 15 19 41 31 66 31 78 0 118-105 118-173 0-17-2-47-24-69z m-27-178c-7 1-12 1-22 1-8 0-59-2-99-15-21-7-81-30-81-97 0-67 65-115 165-115 90 0 138 43 138 102 1 47-30 73-101 124z m521 95c0-270-219-489-489-489s-489 219-489 489 219 489 489 489 489-219 489-489z m-356-183c0 65-38 97-79 132l-34 26c-10 9-24 20-24 40 0 21 14 34 26 46 39 31 79 64 79 134 0 72-45 109-67 127h58l61 38h-184c-51 0-124-12-177-56-40-35-60-83-60-126 0-73 56-148 156-148 9 0 20 1 30 2-5-11-9-21-9-37 0-29 15-47 28-64-42-3-121-8-179-43-55-33-72-81-72-115 0-70 66-135 202-135 160 1 245 91 245 179z m253 195v47h-94v94h-46v-94h-94v-47h94v-95h46v95h94z" horiz-adv-x="1000" />

<glyph glyph-name="grid-1" unicode="&#xe80b;" d="M302 789h-216c-16 0-30-14-30-30v-217c0-16 13-29 29-29h217c16 0 29 13 29 29v217c1 16-12 30-29 30z m-29-218h-158v159h158v-159z m29-81h-216c-16 0-29-13-29-29v-217c0-16 13-29 29-29h217c16 0 29 13 29 29v217c0 16-13 29-30 29z m-29-217h-158v159h158v-159z m29-91h-216c-16 0-29-13-29-29v-217c0-16 13-29 29-29h217c16 0 29 13 29 29v217c0 16-13 29-30 29z m-29-217h-158v159h158v-159z m335 829h-216c-16 0-29-13-29-29v-217c0-16 13-29 29-29h217c16 0 29 13 29 29v216c0 16-13 30-30 30z m-29-218h-158v159h158v-159z m29-81h-216c-16 0-29-13-29-29v-217c0-16 13-29 29-29h217c16 0 29 13 29 29v217c0 16-13 29-30 29z m-29-217h-158v159h158v-159z m29-91h-216c-16 0-29-13-29-29v-217c0-16 13-29 29-29h217c16 0 29 13 29 29v217c0 16-13 29-30 29z m-29-217h-158v159h158v-159z m335 824h-216c-16 0-29-13-29-29v-217c0-16 13-29 29-29h217c16 0 29 13 29 29v216c0 16-14 30-30 30z m-29-218h-158v159h158v-159z m29-81h-216c-16 0-29-13-29-29v-217c0-16 13-29 29-29h217c16 0 29 13 29 29v217c0 16-14 29-30 29z m-29-217h-158v159h158v-159z m29-91h-216c-16 0-29-13-29-29v-217c0-16 13-29 29-29h217c16 0 29 13 29 29v217c0 16-14 29-30 29z m-29-217h-158v159h158v-159z" horiz-adv-x="1000" />

<glyph glyph-name="grid-2" unicode="&#xe80c;" d="M462 812v-385c0-21-17-38-38-38h-386c-21 0-38 17-38 38v385c0 21 17 38 38 38h385c21 0 39-17 39-38z m500 38h-385c-21 0-38-17-38-38v-385c0-21 17-38 38-38h385c21 0 38 17 38 38v385c0 21-17 38-38 38z m-539-538h-385c-21 0-38-17-38-38v-385c0-21 17-38 38-38h385c21 0 38 17 38 38v384c1 21-17 39-38 39z m539 0h-385c-21 0-38-17-38-38v-385c0-21 17-38 38-38h385c21 0 38 17 38 38v384c0 21-17 39-38 39z" horiz-adv-x="1000" />

<glyph glyph-name="grid-3" unicode="&#xe80d;" d="M375 843h-333c-23 0-42-19-42-42v-333c0-23 19-42 42-42h333c23 0 42 19 42 42v333c0 23-19 42-42 42z m-42-333h-250v250h250v-250z m625 333h-333c-23 0-42-19-42-42v-333c0-23 19-42 42-42h333c23 0 42 19 42 42v333c0 23-19 42-42 42z m-41-333h-250v250h250v-250z m-542-236h-333c-23 0-42-19-42-42v-333c0-23 19-42 42-42h333c23 0 42 19 42 42v333c0 23-19 42-42 42z m-42-334h-250v250h250v-250z m625 334h-333c-23 0-42-19-42-42v-333c0-23 19-42 42-42h333c23 0 42 19 42 42v333c0 23-19 42-42 42z m-41-334h-250v250h250v-250z" horiz-adv-x="1000" />

<glyph glyph-name="grid-4" unicode="&#xe80e;" d="M40 810v-920h920v920h-920z m288-863h-230v230h230v-230z m0 288h-230v230h230v-230z m0 287h-230v230h230v-230z m287-575h-230v230h230v-230z m0 288h-230v230h230v-230z m0 287h-230v230h230v-230z m288-575h-230v230h230v-230z m0 288h-230v230h230v-230z m0 287h-230v230h230v-230z" horiz-adv-x="1000" />

<glyph glyph-name="instagram-1" unicode="&#xe80f;" d="M710 850h-420c-160 0-290-130-290-290v-420c0-160 130-290 290-290h420c160 0 290 130 290 290v420c0 160-130 290-290 290z m212-710c0-117-95-212-212-212h-420c-117 0-212 95-212 212v420c0 117 95 212 212 212h420c117 0 212-95 212-212v-420z m-422 480c-149 0-270-121-270-270s121-270 270-270 270 121 270 270-121 270-270 270z m0-461c-106 0-191 86-191 191s85 191 191 191 191-85 191-191-85-191-191-191z m313 464c0-22-17-39-39-39s-39 17-39 39 17 39 39 39 39-17 39-39z" horiz-adv-x="1000" />

<glyph glyph-name="instagram-2" unicode="&#xe810;" d="M962 812c-25 25-55 38-90 38h-744c-35 0-65-13-90-38-25-25-38-55-38-90v-743c0-35 13-65 38-90 25-25 55-38 90-38h743c35 0 65 13 90 38 25 25 38 55 38 90v743c1 35-12 65-37 90z m-278-118c0 12 4 23 13 32 9 9 19 13 32 13h113c13 0 23-4 32-13 9-9 13-19 13-32v-107c0-13-4-23-13-32-9-9-19-13-32-13h-113c-13 0-23 4-32 13-9 9-13 19-13 32v107z m-325-204c39 38 86 57 142 57 56 0 103-19 142-57 39-38 59-84 59-138 0-54-20-100-59-138-39-38-87-57-142-57-55 0-102 19-142 57-39 38-59 84-59 138 0 54 20 100 59 138z m528-485l0 0 0 0c0-11-4-21-12-28-8-8-17-11-28-11h-696c-11 0-21 4-28 11-8 8-11 17-11 28v422h92c-9-27-13-56-13-85 0-83 30-154 91-213 60-59 133-89 219-89 56 0 109 13 156 40 48 27 85 63 113 110 28 46 42 97 42 151 0 30-4 58-13 85h88v-421z" horiz-adv-x="1000" />

<glyph glyph-name="linkedin-1" unicode="&#xe811;" d="M184 458h139v-418h-139v418z m68 58l0 0c49 0 80 32 80 72-1 41-30 72-78 72-48 0-79-31-79-72 0-40 31-72 77-72z m287-476v234c0 13 1 25 5 34 10 25 33 51 71 51 50 0 71-38 71-95v-224h139v240c0 129-69 188-160 188-74 0-107-41-125-69v-1h-1c0 0 1 1 1 1v59h-140c2-39 0-419 0-419h139z m461 810v-1000h-1000v1000h1000z m-62-62h-876v-876h876v876z" horiz-adv-x="1000" />

<glyph glyph-name="linkedin-2" unicode="&#xe812;" d="M900 850h-800c-55 0-100-45-100-100v-800c0-55 45-100 100-100h800c55 0 100 45 100 100v800c0 55-45 100-100 100z m-600-850h-150v450h150v-450z m-75 535c-50 0-90 40-90 90s40 90 90 90 90-40 90-90-40-90-90-90z m625-535h-150v265c0 40-35 75-75 75s-75-35-75-75v-265h-150v450h150v-60c25 40 80 70 125 70 95 0 175-80 175-175v-285z" horiz-adv-x="1000" />

<glyph glyph-name="linkedin-3" unicode="&#xe813;" d="M591 421c-43 0-62-24-73-40v34h-81c1-23 0-243 0-243h81v136c0 7 0 15 3 20 6 15 19 30 41 30 29 0 41-22 41-55v-130h81 0v139c0 74-40 109-93 109z m-73-41l0 0c0 0 0 1 0 0l0 0z m-205 35h81v-243h-81v243z m187 435c-276 0-500-224-500-500 0-276 224-500 500-500 276 0 500 224 500 500 0 276-224 500-500 500z m265-726c0-21-18-38-39-38h-455c-22 0-39 17-39 38v460c0 21 18 38 39 38h455c22 0 39-17 39-38v-460z m-366 366c0-23-18-42-46-42h-1c-27 0-45 19-45 42 0 24 18 42 46 42 28 0 45-18 46-42z" horiz-adv-x="1000" />

<glyph glyph-name="list-1" unicode="&#xe814;" d="M108 790c-60 0-108-48-108-107s48-108 108-108c59 0 108 48 108 108s-49 107-108 107z m0-165c-32 0-58 26-58 58 0 32 26 58 58 58 32 0 58-26 58-58-1-32-27-58-58-58z m0-167c-60 0-108-49-108-108 0-59 48-108 108-108 59 0 108 48 108 108-1 59-49 108-108 108z m0-166c-32 0-58 26-58 58 0 32 26 58 58 58 32 0 58-26 58-58-1-32-27-58-58-58z m0-167c-60 0-108-48-108-108s48-107 108-107c59 0 108 48 108 108-1 59-49 107-108 107z m0-165c-32 0-58 26-58 58s26 58 58 58c32 0 58-26 58-58-1-32-27-58-58-58z m226 723c0 14 11 25 25 25h616c14 0 25-11 25-25s-11-25-25-25h-616c-14 0-25 11-25 25z m666-333c0-14-11-25-25-25h-616c-14 0-25 11-25 25 0 14 11 25 25 25h616c14 0 25-11 25-25z m0-332c0-14-11-25-25-25h-616c-14 0-25 11-25 25s11 25 25 25h616c14 0 25-12 25-25z" horiz-adv-x="1000" />

<glyph glyph-name="list-2" unicode="&#xe815;" d="M1000 37c0-28-22-50-50-50h-669c-28 0-50 22-50 50 0 28 22 50 50 50h669c28 0 50-23 50-50z m-50 363h-669c-28 0-50-22-50-50 0-28 22-50 50-50h669c28 0 50 22 50 50 0 28-22 50-50 50z m-669 213h669c28 0 50 22 50 50 0 28-22 50-50 50h-669c-28 0-50-22-50-50 1-27 23-50 50-50z m-214 113c-37 0-67-30-67-67s30-67 67-67c37 0 67 30 67 67s-30 67-67 67z m0-309c-37 0-67-30-67-67 0-37 30-67 67-67 37 0 67 30 67 67 0 37-30 67-67 67z m0-309c-37 0-67-30-67-67s30-67 67-67c37 0 67 30 67 67s-30 67-67 67z" horiz-adv-x="1000" />

<glyph glyph-name="list-3" unicode="&#xe816;" d="M151 517c3-3 5-7 5-12v-103c0-5-2-9-5-12-3-3-7-5-12-5h-103c-5 0-9 2-12 5-3 3-5 7-5 12v103c0 5 2 9 5 12 3 3 7 5 12 5h103c5 0 9-2 12-5z m-12-408h-103c-5 0-9-2-12-5-3-3-5-7-5-12v-103c0-5 2-9 5-12 3-3 7-5 12-5h103c5 0 9 2 12 5 3 3 5 7 5 12v103c0 5-2 9-5 12-3 4-7 5-12 5z m0 207h-103c-5 0-9-2-12-5-3-3-5-7-5-12v-103c0-5 2-9 5-12 3-3 7-5 12-5h103c5 0 9 2 12 5 3 3 5 7 5 12v102c0 5-2 9-5 12-3 4-7 6-12 6z m0 412h-103c-5 0-9-2-12-5s-5-7-5-12v-103c0-5 2-9 5-12s7-5 12-5h103c5 0 9 2 12 5 3 3 5 7 5 12v103c0 5-2 9-5 12-3 3-7 5-12 5z m825-619h-722c-5 0-9-2-12-5-3-3-5-7-5-12v-103c0-5 2-9 5-12 3-3 7-5 12-5h722c5 0 9 2 12 5 3 3 5 7 5 12v103c0 5-2 9-5 12-3 4-7 5-12 5z m0 207h-722c-5 0-9-2-12-5-3-3-5-7-5-12v-103c0-5 2-9 5-12 3-3 7-5 12-5h722c5 0 9 2 12 5 3 3 5 7 5 12v102c0 5-2 9-5 12-3 4-7 6-12 6z m12 407c-3 3-7 5-12 5h-722c-5 0-9-2-12-5s-5-7-5-12v-103c0-5 2-9 5-12s7-5 12-5h722c5 0 9 2 12 5 3 3 5 7 5 12v103c0 5-1 9-5 12z m-12-201h-722c-5 0-9-2-12-5-3-3-5-7-5-12v-103c0-5 2-9 5-12 3-3 7-5 12-5h722c5 0 9 2 12 5 3 3 5 7 5 12v103c0 5-2 9-5 12-3 3-7 5-12 5z" horiz-adv-x="1000" />

<glyph glyph-name="magnifer-3" unicode="&#xe817;" d="M982-45l-302 303c44 62 69 137 69 218 1 208-167 377-374 377-207 0-375-169-375-377 0-208 168-377 375-377 81 0 156 26 217 70l301-303c12-12 28-18 44-18 16 0 32 6 44 18 25 24 25 64 1 89z m-403 375l-25-35-34-24c-43-30-93-47-145-47-138 0-250 113-250 251 0 139 112 251 250 251s250-113 250-251c0-51-16-102-46-145z" horiz-adv-x="1000" />

<glyph glyph-name="magnifier-1" unicode="&#xe818;" d="M625 850c-207 0-375-168-375-375 0-87 30-166 79-230l-315-315c-9-9-14-21-14-33 0-12 5-24 14-33 9-9 21-14 33-14 12 0 24 5 33 14l315 315c64-49 143-79 230-79 207 0 375 168 375 375s-168 375-375 375z m0-656c-155 0-281 126-281 281s126 281 281 281 281-126 281-281-126-281-281-281z" horiz-adv-x="1000" />

<glyph glyph-name="magnifier-2" unicode="&#xe819;" d="M976-9l-222 222c-12 12-26 19-41 22 106 152 92 364-44 500-153 153-401 153-553 0-153-153-153-401 0-553 136-136 347-150 500-44 3-15 11-30 22-41l222-222c32-32 85-32 117 0 31 32 31 84-1 116z m-378 261c-114-114-299-114-413 0-114 114-114 299 0 413 114 114 299 114 413 0 114-113 114-299 0-413z" horiz-adv-x="1000" />

<glyph glyph-name="magnifier-4" unicode="&#xe81a;" d="M994-114l-304 304c63 70 102 163 102 264 0 218-178 396-396 396-218 0-396-178-396-396 0-218 178-396 396-396 101 0 194 39 264 102l304-304c4-4 9-6 15-6s11 2 15 6c8 8 8 21 0 30z m-598 214c-195 0-354 159-354 354 0 195 159 354 354 354 195 0 354-159 354-354 0-195-159-354-354-354z" horiz-adv-x="1000" />

<glyph glyph-name="magnifier-5" unicode="&#xe81b;" d="M963-66l-278 277c58 66 94 152 94 247 0 206-166 372-372 372s-372-166-372-372c0-205 167-372 372-372 79 0 152 25 212 67l281-281c3-3 7-3 9 0l53 53c3 2 3 6 1 9z m-556 196c-181 0-328 147-328 328s147 328 328 328 328-147 328-328c0-181-147-328-328-328z" horiz-adv-x="1000" />

<glyph glyph-name="map-1" unicode="&#xe81c;" d="M951 632l-230 108c0 0 0 0 0 0-2 1-4 1-6 1 0 0 0 0 0 0 0 0-1 0-1 0-1 0-2 0-2 0-1 0-1 0-2 0 0 0-1 0-1 0l-209-91-209 90c0 0 0 0 0 0-2 1-3 1-5 1 0 0 0 0-1 0 0 0-1 0-1 0-1 0-2 0-3 0 0 0-1 0-1 0 0 0-1 0-1 0l-229-93c-6-2-10-8-10-14v-659c0-5 3-10 7-13 3-2 6-3 9-3 2 0 4 0 6 1l224 90 208-90c0 0 0 0 1 0 2-1 4-1 5-1s4 0 5 1c0 0 0 0 1 0l209 90 224-90c2-1 4-1 6-1 3 0 6 1 9 3 4 3 7 8 7 13v643c-1 6-4 12-10 14z m-466-634l-184 79v625l184-79v-625z m444-1l-199 80v625l199-93v-612z" horiz-adv-x="1000" />

<glyph glyph-name="map-2" unicode="&#xe81d;" d="M990 657l-250 116c0 0-1 0-1 0-1 0-1 1-2 1-1 0-1 0-2 0-1 0-2 0-2 0-1 0-1 0-2 0-1 0-1 0-2 0-1 0-1 0-2-1 0 0 0 0-1 0l-226-96-227 97c0 0 0 0 0 0-1 0-1 0-2 1-1 0-1 0-2 0-1 0-1 0-2 0-1 0-1 0-2 0-1 0-1 0-2 0-1 0-1 0-2 0 0 0 0 0 0 0l-250-100c-6-3-10-9-10-15v-717c0-6 3-11 7-14 3-2 6-3 9-3 2 0 4 0 6 1l244 97 227-97c0 0 0 0 1 0 2-1 4-1 6-1 2 0 4 0 6 1 0 0 0 0 1 0l227 97 244-97c2-1 4-1 6-1 3 0 7 1 9 3 5 3 7 8 7 14v700c-1 5-5 11-11 14z m-740-604l-217-87v681l217 87v-681z m233-86l-200 86v680l200-86v-680z m234 86l-200-86v680l200 86v-680z m250-87l-217 87v679l217-101v-665z" horiz-adv-x="1000" />

<glyph glyph-name="map-3" unicode="&#xe81e;" d="M973 792c-5 3-10 4-16 2l-309-103-292 69c-1 0-1 0-2 0-2 0-4 0-6 0l-314-70c-8-2-14-9-14-17v-750c0-5 2-10 7-14 3-3 7-4 11-4 1 0 3 0 4 0l311 69 293-52c1 0 2 0 3 0 2 0 4 0 6 1 0 0 0 0 0 0l314 122c7 3 11 9 11 16v717c0 5-3 10-7 14z m-639-786l-279-62v715l279 62v-715z m297-45l-262 46v714l262-62v-698z m314 113l-279-109v695l279 93v-679z" horiz-adv-x="1000" />

<glyph glyph-name="map-pin-1" unicode="&#xe81f;" d="M500 837c-189 0-342-153-342-342 0-14 1-29 3-43 29-266 317-574 317-574 5-6 10-9 15-12l0 0 10-3 10 3 0 0c5 3 10 6 15 12 0 0 283 308 312 575 2 14 3 28 3 42-1 189-154 342-343 342z m0-562c-121 0-220 99-220 220s99 220 220 220 220-99 220-220-99-220-220-220z" horiz-adv-x="1000" />

<glyph glyph-name="map-pin-2" unicode="&#xe820;" d="M500 819c-187 0-340-153-340-340 0-233 304-574 317-589 12-14 33-14 46 0 13 15 317 357 317 589 0 188-153 340-340 340z m0-511c-94 0-171 77-171 171s77 171 171 171 171-77 171-171-77-171-171-171z" horiz-adv-x="1000" />

<glyph glyph-name="map-pin-3" unicode="&#xe821;" d="M500 819c-182 0-330-148-330-330 0-61 17-121 49-174l262-422c5-8 14-13 23-13 0 0 0 0 0 0 10 0 18 5 23 13l256 427c30 51 47 109 47 169 0 182-148 330-330 330z m236-470l-232-388-238 384c-27 43-41 93-41 145 0 151 123 275 275 275s275-124 275-275c0-50-13-99-39-141z m-236 305c-91 0-165-74-165-165 0-90 73-165 165-165 93 0 165 76 165 165 0 91-74 165-165 165z m0-275c-61 0-110 50-110 110 0 61 50 110 110 110 61 0 110-50 110-110 0-60-48-110-110-110z" horiz-adv-x="1000" />

<glyph glyph-name="map-pin-4" unicode="&#xe822;" d="M503 631c-70 0-128-57-128-128s57-128 128-128 128 57 128 128-57 128-128 128z m0-219c-50 0-91 41-91 91s41 91 91 91 91-41 91-91-40-91-91-91z m245 335c-66 67-154 103-248 103-94 0-181-36-248-103-122-122-137-352-33-492l281-405 280 405c105 140 90 370-32 492z m3-471l-251-362-251 363c-95 127-81 335 29 445 59 59 138 91 222 91s163-33 222-92c110-110 124-318 29-445z" horiz-adv-x="1000" />

<glyph glyph-name="map-pin-5" unicode="&#xe823;" d="M500 834c-187 0-340-153-340-340 0-63 18-125 51-179l270-435c5-8 14-13 24-13 0 0 0 0 0 0 10 0 19 5 24 14l263 439c31 52 48 113 48 174 0 187-153 340-340 340z m243-486l-239-399-245 396c-28 45-43 96-43 149 0 156 128 283 284 283s284-127 284-283c0-52-14-102-41-146z m-243 316c-94 0-170-76-170-170 0-93 75-170 170-170 96 0 170 78 170 170 0 93-76 170-170 170z m0-284c-63 0-114 51-114 114 0 62 51 114 114 114s114-51 114-114c0-62-50-114-114-114z" horiz-adv-x="1000" />

<glyph glyph-name="map-pin-6" unicode="&#xe824;" d="M814 590c-3 13-10 26-15 38-61 147-195 200-303 200-145 0-304-97-325-297v-41c0-2 1-17 1-25 12-95 87-196 143-292 60-102 123-202 185-303 38 65 76 132 114 196 10 19 22 37 32 55 7 12 20 24 26 35 60 111 158 222 158 332v45c-1 13-15 55-16 57z m-316-205c-42 0-89 21-112 80-3 9-3 28-3 30v26c0 75 64 109 119 109 68 0 121-54 121-122-1-68-57-123-125-123z" horiz-adv-x="1000" />

<glyph glyph-name="mastercard-1" unicode="&#xe825;" d="M266 393c-19 0-33-6-33-6l-4-24c0 0 12 5 30 5 10 0 18-1 18-9 0-5-1-7-1-7s-8 1-12 1c-24 0-48-10-48-40 0-24 16-29 26-29 19 0 28 13 28 13l-1-10h24l11 75c0 30-28 31-38 31z m-13-87c-8 0-11 6-11 10 0 7 4 16 24 16 5 0 5 0 6-1 1-4-3-25-19-25z m85 53c0-14 33-7 33-41 0-36-35-35-41-35-23 0-30 3-31 3l4 24c0 0 12-4 24-4 7 0 17 1 17 10 0 13-34 10-34 41 0 28 21 36 41 36 16 0 25-2 25-2l-3-24c0 0-15 1-19 1-10 0-16-2-16-9z m65-42c-1-4 0-9 10-9 2 0 5 1 7 1l-3-23c-3-1-11-4-20-4-13 0-22 7-22 23 0 11 16 100 16 101h27l-3-16h14l-3-26h-14l-9-47z m142 169h-87c6 9 12 19 18 27h49c8-8 14-17 20-27z m359-279c0 0 0 0 0 0 0 1 1 1 1 1 0 0 1 1 1 2 0 0 0 1 0 1 0 0-1 1-1 1 0 0-1 0-2 0h-3v-9h1v4h1c0 0 1 0 1 0 0 0 1-1 2-2l1-1h2l-1 2c-2 0-2 0-3 1z m-1 1h-2v3h2c1 0 1 0 1 0 0 0 0 0 1 0 0 0 0 0 0-1 0 0 0-1 0-1-1-1-2-1-2-1z m-332 224h-142c1 3 6 13 14 27h117c4-9 8-18 11-27z m-345-17l-22-130h-28l16 98-35-98h-19l-2 98-17-98h-27l22 130h40l1-80 27 80h44z m483-22c-19 0-33-6-33-6l-4-24c0 0 12 5 30 5 10 0 18-1 18-9 0-5-1-7-1-7s-8 1-12 1c-24 0-48-10-48-40 0-24 16-29 26-29 19 0 28 13 28 13l-1-10h24l11 75c0 30-28 31-38 31z m-13-87c-8 0-11 6-11 10 0 7 4 16 24 16 5 0 5 0 6-1 1-4-3-25-19-25z m199-6c-1-1-2-2-3-3-1-1-1-3-1-4s0-3 1-4c1-1 2-2 3-3 1-1 3-1 4-1 1 0 3 0 4 1 1 1 2 2 3 3 1 1 1 3 1 4 0 1 0 3-1 4-1 1-2 2-3 3-1 1-3 1-4 1-1 0-2-1-4-1z m8-1c1-1 2-1 3-3 1-1 1-2 1-3 0-1 0-2-1-3-1-1-1-2-3-3-1-1-2-1-3-1-1 0-2 0-3 1-1 1-2 1-3 3-1 1-1 2-1 3 0 1 0 2 1 3 1 1 1 2 3 3 1 1 2 1 3 1 1-1 2-1 3-1z m-7-11h1v4h1c1 0 1 0 1 0 0 0 1-1 2-2l1-1h2l-2 1c-1 1-1 1-1 2 0 0 0 0-1 0 1 0 1 0 2 1 0 0 1 1 1 2 0 0 0 1 0 1 0 0-1 1-1 1s-1 0-2 0h-3v-9z m1 8h2c1 0 1 0 1 0 0 0 0 0 1 0 0 0 0 0 0-1 0 0 0-1 0-1 0 0-1 0-2 0h-2v2z m-100 64c-19 7-20-30-28-75h-28l17 105h25l-2-15c0 0 9 17 21 17 4 0 5 0 5 0-3-8-6-15-10-32z m-2-33c0-22 11-44 34-44 16 0 25 11 25 11l-1-10h27l21 130-27 0-6-37c0 0-10 14-26 14-27 1-47-29-47-64z m65 16c0-14-7-34-22-34-10 0-14 8-14 21 0 21 10 35 22 35 9 1 14-6 14-22z m114 331h-948c-14 0-26-12-26-26v-597c0-14 12-26 26-26h949c14 0 26 12 26 26v597c-1 15-13 26-27 26z m-64-471c-1-1-2-2-3-3-1-1-3-1-4-1-1 0-3 0-4 1-1 1-2 2-3 3-1 1-1 3-1 4s0 3 1 4c1 1 2 2 3 3 1 1 3 1 4 1 1 0 3 0 4-1 1-1 2-2 3-3 1-1 1-3 1-4s0-2-1-4z m19 147c0-142-115-257-257-257-66 0-127 25-172 66-46-41-106-66-172-66-142 0-257 115-257 257 0 141 114 256 255 257 1 0 1 0 2 0 66 0 127-25 172-66 46 41 106 66 172 66 142 0 257-115 257-257 0 0 0 0 0 0z m-455-162h53c-8-10-17-19-26-27h0c0 0 0 0 0 0 0 0 0 0-1-1-10 8-18 18-26 28z m28 99l5 26c0 0-15-7-29-7-29 0-24 22-24 22h56c0 0 4 18 4 25 0 18-9 40-39 40-27 0-48-30-48-63 0-39 25-48 47-48 19 1 28 5 28 5z m-29 82c15 0 13-17 13-19h-30c0 2 2 19 17 19z m156-60c9 0 23 7 23 7l-5-30c0 0-15-4-24-4-33 0-49 23-49 57 0 51 31 79 62 79 14 0 31-7 31-7l-4-29c0 0-11 8-25 8-19 0-35-18-35-50-1-16 6-31 26-31z m-190-67h121c-4-9-9-19-15-27h-91c-5 8-10 17-15 27z m139 149c-4-7-7-14-10-32-19 7-20-30-28-75h-28l17 106h25l-2-15c0 0 9 17 21 17 3 0 5-1 5-1z" horiz-adv-x="1000" />

<glyph glyph-name="mastercard-2" unicode="&#xe826;" d="M678 675c-66 0-127-20-178-54-51 34-112 54-178 54-178 0-322-144-322-321 0-177 144-322 322-322 66 0 127 20 178 54 51-34 112-54 178-54 177 0 322 144 322 322 0 177-144 321-322 321z m-356-584c-145 0-263 118-263 263s118 263 263 263c47 0 92-13 131-35-59-58-95-139-95-228 0-89 36-170 95-228-39-23-84-35-131-35z m178 70c-18 17-34 37-47 58h34c16 0 29 13 29 29 0 16-13 29-29 29h-60c-4 12-6 24-8 37h115c16 0 29 13 29 29 0 16-13 29-29 29h-118c1 13 3 25 5 37h65c16 0 29 13 29 29 0 16-13 29-29 29h-45c14 30 34 56 58 79 52-48 85-117 85-193 1-76-32-144-84-192z m178-70c-47 0-92 13-131 35 59 58 95 139 95 228 0 89-36 170-95 228 38 22 83 35 131 35 145 0 263-118 263-263s-118-263-263-263z" horiz-adv-x="1000" />

<glyph glyph-name="mastercard-3" unicode="&#xe827;" d="M266 393c-19 0-33-6-33-6l-4-24c0 0 12 5 30 5 10 0 18-1 18-9 0-5-1-7-1-7s-8 1-12 1c-24 0-48-10-48-40 0-24 16-29 26-29 19 0 28 13 28 13l-1-10h24l11 75c0 30-28 31-38 31z m-13-87c-8 0-11 6-11 10 0 7 4 16 24 16 5 0 5 0 6-1 1-4-3-25-19-25z m85 53c0-14 33-7 33-41 0-36-35-35-41-35-23 0-30 3-31 3l4 24c0 0 12-4 24-4 7 0 17 1 17 10 0 13-34 10-34 41 0 28 21 36 41 36 16 0 25-2 25-2l-3-24c0 0-15 1-19 1-10 0-16-2-16-9z m65-42c-1-4 0-9 10-9 2 0 5 1 7 1l-3-23c-3-1-11-4-20-4-13 0-22 7-22 23 0 11 16 100 16 101h27l-3-16h14l-3-26h-14l-9-47z m142 169h-87c6 9 12 19 18 27h49c8-8 14-17 20-27z m359-279c0 0 0 0 0 0 0 1 1 1 1 1 0 0 1 1 1 2 0 0 0 1 0 1 0 0-1 1-1 1 0 0-1 0-2 0h-3v-9h1v4h1c0 0 1 0 1 0 0 0 1-1 2-2l1-1h2l-1 2c-2 0-2 0-3 1z m-1 1h-2v3h2c1 0 1 0 1 0 0 0 0 0 1 0 0 0 0 0 0-1 0 0 0-1 0-1-1-1-2-1-2-1z m-332 224h-142c1 3 6 13 14 27h117c4-9 8-18 11-27z m-345-17l-22-130h-28l16 98-35-98h-19l-2 98-17-98h-27l22 130h40l1-80 27 80h44z m483-22c-19 0-33-6-33-6l-4-24c0 0 12 5 30 5 10 0 18-1 18-9 0-5-1-7-1-7s-8 1-12 1c-24 0-48-10-48-40 0-24 16-29 26-29 19 0 28 13 28 13l-1-10h24l11 75c0 30-28 31-38 31z m-13-87c-8 0-11 6-11 10 0 7 4 16 24 16 5 0 5 0 6-1 1-4-3-25-19-25z m199-6c-1-1-2-2-3-3-1-1-1-3-1-4s0-3 1-4c1-1 2-2 3-3 1-1 3-1 4-1 1 0 3 0 4 1 1 1 2 2 3 3 1 1 1 3 1 4 0 1 0 3-1 4-1 1-2 2-3 3-1 1-3 1-4 1-1 0-2-1-4-1z m8-1c1-1 2-1 3-3 1-1 1-2 1-3 0-1 0-2-1-3-1-1-1-2-3-3-1-1-2-1-3-1-1 0-2 0-3 1-1 1-2 1-3 3-1 1-1 2-1 3 0 1 0 2 1 3 1 1 1 2 3 3 1 1 2 1 3 1 1-1 2-1 3-1z m-7-11h1v4h1c1 0 1 0 1 0 0 0 1-1 2-2l1-1h2l-2 1c-1 1-1 1-1 2 0 0 0 0-1 0 1 0 1 0 2 1 0 0 1 1 1 2 0 0 0 1 0 1 0 0-1 1-1 1s-1 0-2 0h-3v-9z m1 8h2c1 0 1 0 1 0 0 0 0 0 1 0 0 0 0 0 0-1 0 0 0-1 0-1 0 0-1 0-2 0h-2v2z m-100 64c-19 7-20-30-28-75h-28l17 105h25l-2-15c0 0 9 17 21 17 4 0 5 0 5 0-3-8-6-15-10-32z m-2-33c0-22 11-44 34-44 16 0 25 11 25 11l-1-10h27l21 130-27 0-6-37c0 0-10 14-26 14-27 1-47-29-47-64z m65 16c0-14-7-34-22-34-10 0-14 8-14 21 0 21 10 35 22 35 9 1 14-6 14-22z m114 331h-948c-14 0-26-12-26-26v-597c0-14 12-26 26-26h949c14 0 26 12 26 26v597c-1 15-13 26-27 26z m-64-471c-1-1-2-2-3-3-1-1-3-1-4-1-1 0-3 0-4 1-1 1-2 2-3 3-1 1-1 3-1 4s0 3 1 4c1 1 2 2 3 3 1 1 3 1 4 1 1 0 3 0 4-1 1-1 2-2 3-3 1-1 1-3 1-4s0-2-1-4z m19 147c0-142-115-257-257-257-66 0-127 25-172 66-46-41-106-66-172-66-142 0-257 115-257 257 0 141 114 256 255 257 1 0 1 0 2 0 66 0 127-25 172-66 46 41 106 66 172 66 142 0 257-115 257-257 0 0 0 0 0 0z m-455-162h53c-8-10-17-19-26-27h0c0 0 0 0 0 0 0 0 0 0-1-1-10 8-18 18-26 28z m28 99l5 26c0 0-15-7-29-7-29 0-24 22-24 22h56c0 0 4 18 4 25 0 18-9 40-39 40-27 0-48-30-48-63 0-39 25-48 47-48 19 1 28 5 28 5z m-29 82c15 0 13-17 13-19h-30c0 2 2 19 17 19z m156-60c9 0 23 7 23 7l-5-30c0 0-15-4-24-4-33 0-49 23-49 57 0 51 31 79 62 79 14 0 31-7 31-7l-4-29c0 0-11 8-25 8-19 0-35-18-35-50-1-16 6-31 26-31z m-190-67h121c-4-9-9-19-15-27h-91c-5 8-10 17-15 27z m139 149c-4-7-7-14-10-32-19 7-20-30-28-75h-28l17 106h25l-2-15c0 0 9 17 21 17 3 0 5-1 5-1z" horiz-adv-x="1000" />

<glyph glyph-name="message-1" unicode="&#xe828;" d="M500 841c-285 0-500-176-500-410 0-151 73-272 206-341v-216c0-6 3-11 8-13 2-1 5-2 7-2 3 0 6 1 8 3l243 160 1 0c9 0 18-1 28-1 285 0 500 176 500 410-1 234-216 410-501 410z m0-790c-9 0-17 0-26 1l-6 0c-3 0-6-1-9-2l-223-148v197c0 6-3 11-8 14-164 80-198 217-198 318 0 217 202 380 470 380s470-163 470-380c0-217-202-380-470-380z m255 375c0-17-14-31-31-31-17 0-31 14-31 31 0 17 14 31 31 31 17 0 31-14 31-31z m-224 0c0-17-14-31-31-31s-31 14-31 31c0 17 14 31 31 31s31-14 31-31z m-225 0c0-17-14-31-31-31-17 0-31 14-31 31 0 17 14 31 31 31 17 0 31-14 31-31z" horiz-adv-x="1000" />

<glyph glyph-name="message-2" unicode="&#xe829;" d="M500 841c-285 0-500-176-500-410 0-151 73-272 206-341v-216c0-6 3-11 8-13 2-1 5-2 7-2 3 0 6 1 8 3l243 160 1 0c9 0 18-1 28-1 285 0 500 176 500 410-1 234-216 410-501 410z m0-790c-9 0-17 0-26 1l-6 0c-3 0-6-1-9-2l-223-148v197c0 6-3 11-8 14-164 80-198 217-198 318 0 217 202 380 470 380s470-163 470-380c0-217-202-380-470-380z m242 522c0-8-7-15-15-15h-454c-8 0-15 7-15 15s7 15 15 15h454c8 0 15-6 15-15z m0-147c0-8-7-15-15-15h-454c-8 0-15 7-15 15s7 15 15 15h454c8 0 15-7 15-15z m-227-148c0-8-7-15-15-15h-227c-8 0-15 7-15 15s7 15 15 15h227c8 1 15-6 15-15z" horiz-adv-x="1000" />

<glyph glyph-name="message-3" unicode="&#xe82a;" d="M825 830h-650c-96 0-175-79-175-176v-401c0-97 79-175 175-175l414 0 198-198c7-7 16-10 25-10 5 0 9 1 13 3 13 5 22 18 22 32v175c86 11 153 85 153 174v400c0 97-79 176-175 176z m105-576c0-58-47-105-105-105h-13c-19 0-35-16-35-35v-124l-149 148c-7 7-15 10-25 10h-428c-58 1-105 48-105 106v400c0 58 47 106 105 106h649c59 0 106-48 106-106v-400z m-137 292c0-19-16-35-35-35h-516c-19 0-35 16-35 35 0 19 16 35 35 35h516c19 0 35-15 35-35z m0-196c0-19-16-35-35-35h-516c-19 0-35 16-35 35 0 19 16 35 35 35h516c19 0 35-16 35-35z" horiz-adv-x="1000" />

<glyph glyph-name="message-4" unicode="&#xe82b;" d="M595 427c0 17 13 30 30 30 17 0 30-14 30-30 0-17-14-30-30-30-16 0-30 14-30 30z m357 202v-403c0-34-27-61-61-61h-468l-154-155v155h-160c-34 0-61 27-61 61v403c0 34 27 61 61 61h782c33 0 61-28 61-61z m-812-202c0 17-14 31-31 31-17 0-31-14-31-31 0-17 14-31 31-31 17 1 31 14 31 31z m715 220h-694v-440h139v-119l120 119h435v440z m53-155c0 4-3 7-7 7-4 0-7-3-7-7v-129c0-4 3-7 7-7 4 0 7 3 7 7v129z m-408-95c17 0 30 14 30 30 0 17-14 30-30 30-17 0-30-14-30-30 0-16 13-30 30-30z m-126 0c17 0 30 14 30 30 0 17-14 30-30 30-17 0-30-14-30-30 0-16 14-30 30-30z" horiz-adv-x="1000" />

<glyph glyph-name="phone-1" unicode="&#xe82c;" d="M646 810h-292c0 0-84 0-84-84v-753c0-84 84-84 84-84h292c0 0 84 0 84 84v753c0 84-84 84-84 84z m-209-51c0 5 2 9 6 9h114c3 0 6-4 6-9v-2c0-5-3-9-6-9h-114c-3 0-6 4-6 9v2z m63-834c-23 0-42 19-42 42 0 23 19 42 42 42 23 0 42-19 42-42 0-23-19-42-42-42z m188 113h-376v668h376v-668z" horiz-adv-x="1000" />

<glyph glyph-name="phone-2" unicode="&#xe82d;" d="M698 795h-396c-33 0-60-27-60-60v-770c0-33 27-60 60-60h397c33 0 60 27 60 60v770c0 33-28 60-61 60z m-261-43h127c4 0 7-3 7-7 0-4-3-7-7-7h-127c-4 0-7 3-7 7-1 3 3 7 7 7z m63-817c-17 0-30 13-30 30s13 30 30 30 30-13 30-30-13-30-30-30z m217 81h-434v684h433v-684z" horiz-adv-x="1000" />

<glyph glyph-name="phone-3" unicode="&#xe82e;" d="M1000 350c0-104-50-236-163-298-65-36-176-63-320 34-68 46-110 96-146 130l0 0c-1 1-2 2-3 3-1 1-2 2-3 3l0 0c-34 36-67 72-99 109-84 98-73 230 13 284 4 2 7 6 11 7 24 10 52 11 77 17 33 8 96-143 56-156-15-5-63-12-75-21-11-8-6-29 5-42 29-34 72-72 106-106 1-1 2-2 3-3 1-1 2-2 3-3l0 0c33-34 72-77 106-106 13-11 34-16 42-5 9 13 17 60 21 75 13 41 163-23 156-56-6-25-7-53-17-77-2-4-5-7-7-11-12-20-29-35-49-47 32 0 63 8 91 23 77 42 131 143 131 244-1 244-197 440-439 440s-438-196-438-438c0-242 197-438 438-438 17 0 31-14 31-31 0-17-14-31-31-31-276 0-500 224-500 500 0 276 224 500 500 500s500-224 500-500z" horiz-adv-x="1000" />

<glyph glyph-name="phone-4" unicode="&#xe82f;" d="M1000 350c0-104-50-236-163-298-65-36-176-63-320 34-68 46-110 96-146 130l0 0c-1 1-2 2-3 3-1 1-2 2-3 3l0 0c-34 36-67 72-99 109-84 98-73 230 13 284 4 2 7 6 11 7 24 10 52 11 77 17 33 7 96-143 56-156-15-5-63-12-75-21-11-8-6-29 5-42 29-34 72-72 106-106v0c1-1 2-2 3-3 1-1 2-2 3-3l0 0c33-34 72-77 106-106 13-11 34-16 42-5 9 13 17 60 21 75 13 41 163-23 156-56-6-26-7-53-17-77-2-4-5-7-7-11-12-20-29-35-49-47 32 0 63 8 91 23 77 42 131 143 131 243-1 245-197 441-439 441s-438-196-438-438c0-242 197-438 438-438 17 0 31-14 31-31 0-17-14-31-31-31-276 0-500 224-500 500 0 276 224 500 500 500 276 0 500-224 500-500z m-188-5h51c0 195-158 353-353 353l0-51c167 0 302-136 302-302z m-302 214c118 0 214-96 214-214l51 0c0 146-119 265-265 265l0-51z" horiz-adv-x="1000" />

<glyph glyph-name="phone-5" unicode="&#xe830;" d="M500 850c-276 0-500-224-500-500 0-276 224-500 500-500s500 224 500 500c0 276-224 500-500 500z m264-730l-40-40c-7-7-28-12-29-12-127-1-249 49-338 138-90 90-140 212-138 339 0 0 5 20 12 27l40 40c15 15 43 21 63 15l8-3c20-7 40-28 46-48l20-74c5-20-2-49-17-63l-27-27c26-97 102-173 200-200l27 27c15 15 43 22 63 17l74-20c20-6 42-26 48-46l3-9c6-18 0-46-15-61z" horiz-adv-x="1000" />

<glyph glyph-name="phone-6" unicode="&#xe831;" d="M893 167c-131 105-178 58-232 3l-10-10c-16-16-56 6-78 20-35 23-79 61-131 112-158 159-141 200-132 209l10 10c55 54 103 101-3 232-36 44-71 67-106 68-52 2-92-39-126-76-6-6-11-12-17-17-38-38-38-122 0-223 42-112 125-234 234-343 109-109 231-192 342-234 51-19 97-29 136-29 38 0 69 10 87 29 5 5 11 11 17 17 37 35 78 74 76 126 0 35-23 70-67 106z m-29-210c-6-6-12-12-18-17-28-28-103-26-190 7-108 40-226 121-332 227-106 106-187 224-227 331-33 87-36 162-7 190 6 6 11 12 17 18 30 31 63 66 100 66 1 0 2 0 2 0 26-1 54-20 84-57 88-109 57-140 5-190l-10-10c-41-41 1-122 132-253 53-53 99-92 136-116 53-35 93-40 117-16l10 10c51 51 81 82 190-5 36-29 56-57 57-84 2-37-34-71-66-101z" horiz-adv-x="1000" />

<glyph glyph-name="phone-7" unicode="&#xe832;" d="M205 433h-204c0 290 252 329 499 329 247 0 499-39 499-328h-205c-14 186-120 176-289 177-167 2-284 13-300-178z m-102-93c50 0 92-3 101 46 1 7 2 14 2 23h-2-204c0-73 46-69 103-69z m692 70h-2c0-9 1-16 2-23 10-45 51-43 101-43 57 0 103-4 103 66h-204z m-100 24c49-51 208-266 214-292v-175c0-16-13-29-29-29h-778c-16 0-29 13-29 29l0 174c6 26 165 242 214 292v25 29c0 13 15 14 33 14h30c18 0 33-1 33-14v-25-19h214v19 25c0 13 15 14 33 14h30c19 0 34-1 34-14v-29-24z m-294-287c0 16-13 28-28 28s-28-13-28-28 13-28 28-28 28 12 28 28z m0 97c0 16-13 28-28 28s-28-13-28-28 13-28 28-28 28 12 28 28z m0 97c0 16-13 28-28 28s-28-13-28-28c0-16 13-28 28-28s28 12 28 28z m117-194c0 16-13 28-28 28-16 0-28-13-28-28s13-28 28-28c15-1 28 12 28 28z m0 97c0 16-13 28-28 28-16 0-28-13-28-28s13-28 28-28c15 0 28 12 28 28z m0 97c0 16-13 28-28 28-16 0-28-13-28-28 0-16 13-28 28-28 15 0 28 12 28 28z m117-194c0 16-13 28-28 28s-28-13-28-28 13-28 28-28 28 12 28 28z m0 97c0 16-13 28-28 28s-28-13-28-28 13-28 28-28 28 12 28 28z m0 97c0 16-13 28-28 28s-28-13-28-28c0-16 13-28 28-28s28 12 28 28z" horiz-adv-x="1000" />

<glyph glyph-name="phone-8" unicode="&#xe833;" d="M779 183c7-20 0-48-15-62l-40-40c-7-7-28-12-29-12-127-1-249 49-338 138-90 90-140 212-138 339 0 0 5 20 12 27l40 40c15 15 43 21 63 15l8-3c20-7 40-28 46-48l20-74c5-20-2-49-17-63l-27-27c26-97 102-173 200-200l27 27c15 15 43 22 63 17l74-20c20-5 42-26 48-46l3-8z m221 167c0-276-224-500-500-500s-500 224-500 500 224 500 500 500 500-224 500-500z m-62 0c0 241-197 437-438 437s-437-196-437-437 196-438 437-438 438 197 438 438z" horiz-adv-x="1000" />

<glyph glyph-name="phone-9" unicode="&#xe834;" d="M976-54l-44-43-2 1c-19-15-40-27-63-36-21-8-42-14-64-16-10-1-244-23-533 267-210 209-287 364-267 533 2 21 8 42 16 64 9 23 21 45 36 63l-1 2 44 44c32 32 83 33 114 2l154-154c31-31 30-82-2-114l-26-26-52-52c3-5 5-10 8-15 27-49 65-117 136-187 70-72 137-109 186-136 5-3 10-6 15-9l78 78c32 32 83 33 114 2l155-154c30-31 29-82-2-114z" horiz-adv-x="1000" />

<glyph glyph-name="pinterest-1" unicode="&#xe835;" d="M870 504c0-104-29-199-82-267-54-70-132-109-217-109-46 0-92 19-121 47-10-38-25-99-29-115-5-20-59-196-120-180-54 14-21 195-16 218 9 39 58 247 67 282-5 12-16 43-16 85 0 85 51 151 117 151 52 0 86-38 86-94 0-33-13-74-26-118-7-24-15-49-21-72-5-21-1-41 11-57 13-16 34-26 57-26 53 0 88 41 108 75 28 49 44 117 44 189 0 115-78 186-204 186-158 0-244-122-244-237 0-39 10-68 31-93 12-14 16-23 11-43-2-10-8-33-11-42-4-16-17-26-32-26-5 0-10 1-15 3-73 30-117 110-117 215 0 83 36 168 99 231 50 52 142 113 291 113 98 0 188-34 252-96 62-58 97-139 97-220z" horiz-adv-x="1000" />

<glyph glyph-name="pinterest-2" unicode="&#xe836;" d="M1000 350c0-91-22-174-67-251-45-77-105-137-182-182-77-45-160-67-251-67-48 0-95 7-142 21 26 40 43 76 51 107 4 15 16 61 35 137 9-17 25-32 48-44 23-12 48-19 74-19 53 0 99 15 141 45 41 30 73 71 96 123 23 52 34 111 34 176 0 49-13 96-39 139-26 43-63 79-112 106-49 27-104 41-166 41-46 0-88-6-128-19-39-13-73-29-101-50-28-21-51-45-71-72-20-27-34-55-44-84-9-29-14-58-14-87 0-45 9-85 26-119 17-34 43-58 76-72 13-5 21-1 25 13 1 3 3 10 5 20 3 10 4 17 5 20 3 10 0 19-7 28-22 26-33 59-33 98 0 66 23 122 68 169 45 47 105 71 178 71 66 0 117-18 153-53 37-36 55-82 55-139 0-74-15-136-45-188-30-52-68-77-114-77-26 0-48 9-64 28-16 19-21 42-15 68 3 15 9 35 17 61 8 25 15 48 20 67 5 19 8 36 8 49 0 22-6 40-18 54-12 14-28 21-50 21-27 0-50-12-68-37-19-25-28-56-28-92 0-32 5-58 16-79l-64-272c-7-30-10-69-8-115-89 39-162 100-217 183-55 80-83 172-83 273 0 91 22 174 67 251 45 77 105 137 182 182 77 45 160 67 251 67 91 0 174-22 251-67 77-45 137-105 182-182 45-77 67-160 67-251z" horiz-adv-x="1000" />

<glyph glyph-name="pinterest-3" unicode="&#xe837;" d="M900 850h-800c-55 0-100-45-100-100v-800c0-55 45-100 100-100h800c55 0 100 45 100 100v800c0 55-45 100-100 100z m-350-710c-40 0-80 15-105 45l-50-160-5-10c-10-15-25-25-45-25-30 0-55 25-55 55 0 5 0 5 0 5l5 10 90 280c0 0-10 30-10 75 0 85 45 110 85 110 35 0 70-15 70-65 0-65-45-100-45-150 0-35 30-65 65-65 115 0 160 90 160 170 0 110-95 200-210 200-115 0-210-90-210-200 0-35 10-65 25-95 5-10 5-15 5-25 0-30-20-50-50-50-20 0-35 10-45 25-25 45-40 95-40 150 0 165 140 300 310 300s310-135 310-300c5-140-75-280-255-280z" horiz-adv-x="1000" />

<glyph glyph-name="play-1" unicode="&#xe838;" d="M761 368l-402 232c-6 4-14 4-20 0-6-4-10-10-10-18v-465c0-7 4-14 10-18 3-2 7-3 10-3 4 0 7 1 10 3l402 232c6 4 10 10 10 18s-3 15-10 19z m-392-215v394l341-197-341-197z m485 551c-95 94-220 146-354 146-134 0-259-52-354-146-94-95-146-220-146-354 0-134 52-259 146-354 94-94 220-146 354-146 134 0 259 52 354 146 94 94 146 220 146 354 0 134-52 259-146 354z m-29-679c-87-86-202-134-325-134-123 0-238 48-325 134-86 87-134 202-134 325s48 238 134 325c87 86 202 134 325 134 123 0 238-48 325-134 87-87 134-202 134-325s-48-238-134-325z" horiz-adv-x="1000" />

<glyph glyph-name="play-2" unicode="&#xe839;" d="M933 601c-45 77-105 137-182 182-77 45-160 67-251 67-91 0-174-22-251-67-77-45-137-105-182-182-45-77-67-160-67-251s22-174 67-251c45-77 105-137 182-182 77-45 160-67 251-67 91 0 174 22 251 67 77 45 137 105 182 182 45 77 67 160 67 251 0 91-22 174-67 251z m-183-287l-354-208c-7-4-13-6-21-6-7 0-14 2-21 5-14 8-21 20-21 36v417c0 16 7 28 21 36 14 8 28 8 42-1l354-207c14-8 21-20 21-36 0-16-7-28-21-36z" horiz-adv-x="1000" />

<glyph glyph-name="play-3" unicode="&#xe83a;" d="M732 384l-295 193c-7 5-15 7-23 7-21 0-36-17-36-39v-389c0-22 16-39 36-39 8 0 16 3 23 7l294 193c12 8 19 20 19 34 1 13-6 25-18 33z m-298-195v322l246-161-246-161z m66 661c-276 0-500-224-500-500 0-276 224-500 500-500 276 0 500 224 500 500 0 276-224 500-500 500z m0-943c-245 0-443 198-443 443 0 245 198 443 443 443 245 0 443-199 443-443 0-245-198-443-443-443z" horiz-adv-x="1000" />

<glyph glyph-name="play-4" unicode="&#xe83b;" d="M500 850c-275 0-500-225-500-500s225-500 500-500 500 225 500 500-225 500-500 500z m0-938c-244 0-437 194-437 438s193 437 437 437 438-193 438-437-194-438-438-438z m-125 688l375-250-375-250v500z" horiz-adv-x="1000" />

<glyph glyph-name="sharing-1" unicode="&#xe83c;" d="M1000 30c0-95-77-171-171-171-95 0-171 77-171 171 0 9 1 17 2 26l-365 178c-31-33-75-54-124-54-94 0-171 77-171 172 0 95 77 171 171 171 49 0 93-21 124-54l365 176c-1 8-2 16-2 25 0 95 77 171 171 171 94 1 171-76 171-171 0-95-77-171-171-171-49 0-93 21-124 54l-365-177c1-8 2-16 2-25 0-9-1-17-2-26l364-178c31 33 75 53 124 53 95 1 172-76 172-170z" horiz-adv-x="1000" />

<glyph glyph-name="sharing-2" unicode="&#xe83d;" d="M792 208c-58 0-109-27-142-70l-274 153c6 18 10 38 10 59 0 21-4 40-10 59l274 154c33-43 84-70 142-70 98 0 179 80 179 179 0 98-80 178-179 178-99 0-179-80-179-179 0-21 4-41 10-59l-274-153c-33 43-84 70-142 70-98 0-179-80-179-179 0-99 80-179 179-179 58 0 109 28 142 70l275-153c-7-19-10-39-10-60 0-98 80-179 179-179 99 0 179 80 179 179s-81 180-180 180z m0 586c68 0 123-55 123-123s-55-123-123-123-122 55-122 123 55 123 122 123z m-584-567c-68 0-123 56-123 123s55 123 123 123 122-55 122-123-55-123-122-123z m584-321c-68 0-123 55-123 123s55 123 123 123 123-55 123-123-55-123-123-123z" horiz-adv-x="1000" />

<glyph glyph-name="sharing-3" unicode="&#xe83e;" d="M907 144c31-31 48-73 48-117 0-44-17-86-48-117-31-31-73-48-117-48-44 0-86 17-117 48-31 31-48 73-48 117 0 21 4 40 11 59l-287 174c-30-45-80-75-138-75-91 0-165 74-165 165s73 166 164 166c58 0 109-30 138-75l286 172c-7 18-11 38-11 59 0 91 74 165 165 165s165-74 165-165c0-91-74-165-165-165-59 0-110 31-139 77l-285-172c8-19 12-40 12-61s-4-42-12-61l286-174c6 10 14 20 23 28 31 31 73 48 117 48 44 1 85-16 117-48z" horiz-adv-x="1000" />

<glyph glyph-name="shiping-truck-1" unicode="&#xe83f;" d="M914 359l-106 236-160 0v117h-508v-121h-140v-54h140v-71h-112v-54h112v-71h-84v-54h84v-195h105c7-58 57-104 117-104 60 0 110 46 117 104h182c7-58 57-104 117-104 60 0 110 46 117 104h105v252l-86 15z m-552-317c-35 0-64 29-64 64 0 3 0 6 1 9 0 2 1 4 1 5 0 0 0 0 0 0 0 2 1 3 1 5 0 0 0 0 0 1 1 2 1 3 2 5 0 0 0 0 0 0 9 19 26 33 47 37 0 0 0 0 0 0 2 0 4 1 6 1 0 0 0 0 0 0 2 0 4 0 6 0s4 0 6 0c0 0 0 0 0 0 2 0 4 0 6-1 0 0 0 0 0 0 21-4 38-18 47-37 0 0 0 0 0 0 1-2 1-3 2-5 0 0 0 0 0-1 1-2 1-3 1-5 0 0 0 0 0 0 0-2 1-4 1-5 0-3 1-6 1-9 0-35-29-64-64-64z m233 104h-122c0 1-1 3-2 4 0 0 0 0 0 0-1 1-1 3-2 4 0 0 0 0 0 0-17 37-51 63-92 69-1 0-1 0-2 0-1 0-2 0-3 0-1 0-2 0-3 0-1 0-1 0-2 0-2 0-4 0-5 0-2 0-4 0-5 0-1 0-1 0-2 0-1 0-2 0-3 0-1 0-2 0-3 0-1 0-1 0-2 0-41-5-76-32-92-69 0 0 0 0 0 0-1-1-1-3-2-4 0 0 0 0 0 0-1-1-1-3-2-4h-57v141h140v54h-140v71h112v54h-112v71h84v54h-84v67h401v-512z m54 395l124 0 80-179h-204v179z m129-499c-35 0-64 29-64 64 0 3 0 6 1 9 0 2 1 4 1 5 0 0 0 0 0 0 0 2 1 3 1 5 0 0 0 0 0 1 1 2 1 3 2 5 0 0 0 0 0 0 9 19 26 33 47 37 0 0 0 0 0 0 2 0 4 1 6 1 0 0 0 0 0 0 2 0 4 0 6 0s4 0 6 0c0 0 0 0 0 0 2 0 4 0 6-1 0 0 0 0 0 0 21-4 38-18 47-37 0 0 0 0 0 0 1-2 1-3 2-5 0 0 0 0 0-1 1-2 1-3 1-5 0 0 0 0 0 0 0-2 1-4 1-5 0-3 1-6 1-9 0-35-29-64-64-64z m168 104h-57c0 1-1 3-2 4 0 0 0 0 0 0-1 1-1 3-2 4 0 0 0 0 0 0-17 37-51 63-92 69-1 0-1 0-2 0-1 0-2 0-3 0-1 0-2 0-3 0-1 0-1 0-2 0-2 0-4 0-5 0s-4 0-5 0c-1 0-1 0-2 0-1 0-2 0-3 0-1 0-2 0-3 0-1 0-1 0-2 0-41-5-76-32-92-69 0 0 0 0 0 0-1-1-1-3-2-4 0 0 0 0 0 0-1-1-1-3-2-4h-18v162h243l53-9v-153z" horiz-adv-x="1000" />

<glyph glyph-name="shiping-truck-2" unicode="&#xe840;" d="M914 384h-43l-98 121c-23 28-57 44-93 44h-52c-3 40-36 72-77 72h-385c-17 0-31-14-31-31v-75c-2 0-4 1-7 1h-97c-17 0-31-14-31-31 0-17 14-31 31-31h98c2 0 5 0 7 1v-69h-47c-17 0-31-14-31-31s14-31 31-31h47v-146c0-17 14-31 31-31h80c13-39 50-68 94-68 44 0 81 28 94 68h164c9 0 17 4 22 10h117c10-44 49-78 96-78s87 33 96 78h40c17 0 31 14 31 31v109c-1 48-40 87-87 87z m-574-243c-20 0-37 17-37 37s17 37 37 37c20 0 37-17 37-37s-17-37-37-37z m227 68h-134c-13 39-50 68-94 68s-81-28-94-68h-49v115h75c17 0 31 14 31 31s-14 31-31 31h-75v173h354c9 0 16-7 16-16v-334z m61 278h52c18 0 34-8 45-22l67-82h-77v28c0 17-14 31-31 31-17 0-31-14-31-31v-28h-25v104z m205-346c-20 0-37 17-37 37s17 37 37 37c20 0 37-17 37-37s-17-37-37-37z m106 78l0 0h-16c-15 34-50 58-90 58s-74-24-90-58h-115v103h228c0 0 0 0 0 0 0 0 0 0 0 0h58c14 0 25-11 25-25v-78z" horiz-adv-x="1000" />

<glyph glyph-name="shopping-bag-1" unicode="&#xe841;" d="M930-107l-52 677c-1 16-15 29-31 29h-100c1 136-111 247-247 247-137 0-248-111-248-248h-100c-16 0-30-13-31-29l-52-682c-1-9 2-17 8-23 6-6 14-10 23-10h799c0 0 0 0 1 0 17 0 31 14 31 31 0 3 0 6-1 8z m-430 891c103 0 186-83 186-186h-372c0 103 83 186 186 186z m-366-868l47 621h71v-62c0-17 14-31 31-31 17 0 31 14 31 31v62h372v-62c0-17 14-31 31-31s31 14 31 31v62h71l47-621h-732z" horiz-adv-x="1000" />

<glyph glyph-name="shopping-bag-2" unicode="&#xe842;" d="M940 463h-204l-196 294c-9 9-22 18-36 18s-26-5-35-18l-196-294h-213c-27 0-44-18-44-44 0-4 0-9 0-13l111-413c9-36 44-67 84-67h578c40 0 76 27 84 67l111 413c0 4 0 9 0 13 1 27-17 44-44 44z m-436-355c-49 0-89 40-89 89s40 89 89 89 89-40 89-89-40-89-89-89z m-133 355l133 196 133-196h-266z" horiz-adv-x="1000" />

<glyph glyph-name="shopping-bag-3" unicode="&#xe843;" d="M864 570c0 4-4 7-8 7h-136v38c0 121-99 220-220 220-121 0-220-99-220-220v-38h-136c-4 0-7-3-8-7l-53-697c0-2 1-4 2-6 1-2 3-2 6-2h818c2 0 4 1 6 2 1 2 2 4 2 6l-53 697z m-523 45c0 88 71 159 159 159 88 0 159-71 159-159v-38h-318v38z m-30-250c-42 0-76 34-76 76 0 30 15 57 45 69v-69c0-17 14-30 30-30s30 14 30 30v69c30-12 45-39 45-69 1-42-33-76-74-76z m378 0c-42 0-76 34-76 76 0 30 15 57 45 69v-69c0-17 14-30 30-30 17 0 30 14 30 30v69c30-12 45-39 45-69 2-42-32-76-74-76z" horiz-adv-x="1000" />

<glyph glyph-name="shopping-bag-4" unicode="&#xe844;" d="M833 545c-4 33-32 59-65 59h-51v19c0 119-97 216-216 216-119 0-216-97-216-216v-19h55v-141c0-16-13-28-28-28-16 0-28 13-28 28v141h-51c-34 0-62-25-65-59l-51-468h768l-52 468z m-117-82c0-16-13-28-28-28s-28 12-28 28v141h-320v19c0 88 72 160 160 160s160-72 160-160v-19h56v-141z m167-580c-12-14-30-22-49-22h-668c-19 0-37 8-49 22s-18 33-16 51l10 87h780l10-87c1-19-5-37-18-51z" horiz-adv-x="1000" />

<glyph glyph-name="sort-down-arrow-1" unicode="&#xe845;" d="M1000 569c0-17-6-32-19-44l-437-438c-12-12-27-19-44-19-17 0-32 6-44 19l-437 438c-13 12-19 27-19 44 0 17 6 32 19 44 12 12 27 19 44 19h875c17 0 32-6 44-19 12-13 18-27 18-44z" horiz-adv-x="1000" />

<glyph glyph-name="sort-down-arrow-2" unicode="&#xe846;" d="M1000 599l-500-498-500 498h1000z" horiz-adv-x="1000" />

<glyph glyph-name="star-1" unicode="&#xe847;" d="M999 464c-2 6-8 11-14 12l-324 47-145 293c-3 6-9 10-16 10-7 0-13-4-16-10l-145-293-324-47c-7-1-12-6-14-12-2-6 0-14 5-18l234-229-55-323c-1-7 2-13 7-18 3-2 7-3 11-3 3 0 6 1 8 2l290 152 290-152c6-3 13-3 19 1 5 4 8 11 7 18l-57 323 234 228c5 5 7 12 5 19z m-270-228c-4-4-6-10-5-16l51-296-266 140c-5 3-11 3-17 0l-266-140 51 296c1 6-1 12-5 16l-215 210 297 43c6 1 11 5 13 10l133 269 133-269c3-5 8-9 13-10l297-43-214-210z" horiz-adv-x="1000" />

<glyph glyph-name="star-2" unicode="&#xe848;" d="M978 395c20 19 27 47 18 74-9 26-31 45-58 49l-242 35c-10 2-19 8-24 17l-108 219c-12 25-37 40-64 40-27 0-52-15-64-40l-109-219c-5-9-14-16-24-17l-242-36c-27-4-49-23-58-49-8-26-2-54 18-74l175-171c7-7 11-18 9-28l-41-241c-5-27 6-54 29-70 22-16 51-18 76-5l217 114c9 5 20 5 29 0l217-114c11-6 22-8 33-8 15 0 30 5 42 14 22 16 33 43 29 70l-41 241c-2 10 2 21 9 28l174 171z m-223-206l41-241c2-12-3-24-13-31-10-7-22-8-33-2l-217 114c-10 5-22 8-33 8s-23-3-33-8l-217-114c-11-6-23-5-33 2-10 7-15 19-13 31l41 241c4 23-4 47-21 63l-174 172c-9 9-12 21-8 32 4 12 13 20 26 22l242 35c23 3 44 18 54 39l108 219c5 11 16 18 28 18 12 0 23-7 28-18l108-219c10-21 31-36 54-39l242-35c12-2 22-10 26-22 4-12 1-24-8-32l-175-171c-17-17-24-40-20-64z" horiz-adv-x="1000" />

<glyph glyph-name="star-3" unicode="&#xe849;" d="M803 224c-7-7-11-18-9-28l41-241c4-21-2-42-16-58-14-16-34-26-55-26-12 0-23 3-33 8l-216 114c-9 5-20 5-29 0l-217-114c-30-16-67-8-88 17-14 16-19 37-16 58l41 241c2 10-2 21-9 28l-175 172c-20 19-27 47-18 74 9 26 31 45 58 49l242 35c10 2 19 8 24 17l108 219c12 25 37 40 64 40 27 0 52-15 64-40l109-219c5-9 14-16 24-17l242-35c27-4 49-23 58-49 8-26 2-54-18-74l-176-171z" horiz-adv-x="1000" />

<glyph glyph-name="star-4" unicode="&#xe84a;" d="M991 437l-247-214 74-318c5-22-19-40-38-28l-280 169-280-169c-19-12-43 6-38 28l74 318-247 214c-17 15-8 43 15 45l325 28 127 301c9 21 38 21 47 0l128-301 326-28c22-2 31-30 14-45z" horiz-adv-x="1000" />

<glyph glyph-name="star-5" unicode="&#xe84b;" d="M999 467c-3 10-12 17-22 19l-313 44-140 282c-5 9-14 15-25 15-10 0-20-6-25-16l-138-282-312-47c-10-2-19-9-22-19-3-10 0-21 7-28l226-219-52-311c-2-10 2-21 11-27 5-3 10-5 16-5 5 0 9 1 13 3l279 148 279-146c4-2 8-3 13-3 15 0 28 13 28 28 0 2 0 4-1 6l-54 309 225 221c7 6 10 18 7 28z m-282-220c-7-6-9-16-8-25l47-269-242 126c-8 4-18 4-26 0l-242-128 45 270c1 9-1 18-8 24l-196 190 271 40c9 1 17 7 21 15l120 246 122-245c4-8 12-14 21-15l271-39-196-190z" horiz-adv-x="1000" />

<glyph glyph-name="star-6" unicode="&#xe84c;" d="M692 237l121-387-313 240-313-240 121 388-308 237h375l125 375 125-375h375l-308-238z" horiz-adv-x="1000" />

<glyph glyph-name="star-7" unicode="&#xe84d;" d="M1000 468h-364l-136 382-136-382h-364l297-224-106-394 309 236 309-236-106 394 297 224z m-500-270l-171-143 71 202-163 132 200-6 62 230 62-230 200 6-160-131 71-202-172 142z" horiz-adv-x="1000" />

<glyph glyph-name="twitter-1" unicode="&#xe84e;" d="M992 667c-7 5-16 4-22-1-8-6-22-12-37-15 39 43 40 72 39 79 0 7-5 13-11 16-6 3-14 2-19-2-44-32-87-38-113-39-40 38-91 59-146 59-117 0-213-97-213-215 0-10 1-20 2-31-203 2-368 197-370 199-4 5-10 7-16 7-6-1-11-4-14-10-58-101-19-190 16-242-6 3-11 7-15 9-6 4-13 5-20 2-6-3-10-10-11-17 0-96 46-151 90-182-6 1-12-2-16-6-5-5-6-12-4-18 30-99 104-133 152-144-97-76-240-51-241-51-9 2-17-3-21-11-4-8-1-17 6-23 102-78 225-96 314-96 67 0 114 10 119 11 448 106 461 517 460 584 84 78 97 108 99 115 1 9-2 18-8 22z m-124-114c-4-4-6-9-6-15 1-18 24-446-430-554-2 0-183-38-339 39 66 2 161 19 227 93 5 6 6 14 3 20-3 7-10 11-17 11 0 0 0 0 0 0-1-1-100 0-146 95 18-1 41 0 59 8 7 3 12 11 11 19-1 8-7 15-15 16-5 1-116 26-131 146 17-7 38-13 59-10 7 1 13 6 15 13 2 7 0 15-6 20-5 6-108 99-59 218 53-56 212-202 404-191 6 0 11 3 14 8 3 5 4 10 3 16-4 14-5 29-5 44 0 98 78 178 175 178 47 0 91-19 124-53 3-4 8-6 13-6 20 0 53 2 90 17-11-13-27-29-50-48-7-5-9-14-6-22 3-8 11-13 19-12 4 0 27 2 52 8-13-15-32-34-58-58z" horiz-adv-x="1000" />

<glyph glyph-name="twitter-2" unicode="&#xe84f;" d="M897 554c0-9 1-17 1-26 0-271-206-583-583-583-116 0-224 33-315 92 16-2 32-3 49-3 96 0 184 33 254 87-90 2-165 62-192 143 13-4 26-4 39-4 19 0 37 2 54 7-93 18-164 101-164 201 0 1 0 2 0 2 27-15 60-25 93-25-55 36-91 99-91 170 0 38 10 73 28 104 101-124 252-206 423-214-3 15-5 31-5 47 0 113 91 205 205 205 58 0 112-25 150-65 47 9 90 26 130 50-15-48-48-88-90-113 41 5 81 16 118 32-29-42-63-79-104-107z" horiz-adv-x="1000" />

<glyph glyph-name="twitter-3" unicode="&#xe850;" d="M812 850h-625c-103 0-187-84-187-187v-625c0-104 84-188 187-188h625c104 0 188 84 188 188v625c0 103-84 187-188 187z m-63-388l0-16c0-163-124-350-350-350-70 0-134 20-189 55 10-1 20-1 30-1 58 0 111 20 153 53-54 1-99 37-115 85 8-1 15-2 23-2 11 0 22 1 32 4-56 11-99 61-99 121v2c17-9 36-15 56-15-33 22-55 60-55 102 0 23 6 44 17 62 61-75 151-124 254-129-2 9-3 18-3 28 0 68 55 123 123 123 35 0 67-15 90-39 28 6 54 16 78 30-9-29-29-53-54-68 25 3 49 10 71 19-17-25-38-46-62-64z" horiz-adv-x="1000" />

<glyph glyph-name="user-1" unicode="&#xe851;" d="M1000-25v-63c0-35-28-62-62-62h-875c-35 0-63 28-63 62v63c74 156 188 187 188 187h62c69 0 125 56 125 125v42c-25 30-44 64-56 101-2 7-4 16-11 21-27 22-35 64-18 95 3 6 9 11 8 19 0 37 0 75 0 112 1 35 10 70 30 99 22 33 58 56 97 66 44 11 91 12 136 3 35-7 70-22 95-49 31-33 44-79 45-123 0-37 0-73 0-110 0-5 4-9 7-14 18-29 13-69-11-93-4-5-11-8-12-15-12-41-32-80-60-113v-40c0-69 56-125 125-125h63c0-1 113-32 187-188z" horiz-adv-x="1000" />

<glyph glyph-name="user-2" unicode="&#xe852;" d="M265 586c0 129 105 235 235 235 130 0 235-105 235-235s-105-235-235-235c-130 0-235 105-235 235z m629-504c-20 132-89 238-193 298l-7 4-6-6c-49-52-116-80-187-80-71 0-138 29-187 80l-6 6-9-4c-105-60-173-166-194-298l-1-5 3-4c106-125 245-194 393-194 148 0 287 69 392 194l3 4-1 5z" horiz-adv-x="1000" />

<glyph glyph-name="user-3" unicode="&#xe853;" d="M977-94c-7-8-19-13-30-13h-893c-12 0-23 5-30 13-6 7-9 17-8 26 21 163 121 299 258 371 58-58 138-94 226-94 88 0 168 36 226 94 137-72 237-208 258-371 2-9-1-19-7-26z m-678 433c5-5 11-11 16-16 49-44 114-71 185-71s136 27 185 71c6 5 11 10 16 16 5 5 10 11 15 17 39 48 62 108 62 174 0 153-125 277-278 277s-278-124-278-277c0-66 23-126 62-174 5-6 10-12 15-17z" horiz-adv-x="1000" />

<glyph glyph-name="view-eye-1" unicode="&#xe854;" d="M500 653c-276 0-500-242-500-303 0-61 224-303 500-303 276 0 500 242 500 303s-224 303-500 303z m304-438c-68-49-176-107-304-107-128 0-236 58-304 107-81 58-123 114-133 135 11 21 52 77 133 135 68 49 176 107 304 107 128 0 236-58 304-107 81-58 122-114 133-135-10-21-52-77-133-135z m-304 317c-100 0-182-82-182-182 0-100 81-182 182-182 100 0 182 81 182 182 0 100-82 182-182 182z m-49-182c-42 0-77 34-77 77s34 77 77 77 77-34 77-77c0-43-34-77-77-77z" horiz-adv-x="1000" />

<glyph glyph-name="view-eye-2" unicode="&#xe855;" d="M983 372c-2 3-50 63-134 124-111 82-232 125-349 125-117 0-238-43-349-125-83-61-132-122-134-124l-17-22 17-22c2-3 50-63 134-124 111-82 231-125 349-125 117 0 238 43 349 125 83 61 132 122 134 124l17 22-17 22z m-177-113c-69-50-177-110-306-110-129 0-238 60-306 110-47 34-82 69-103 91 20 22 55 56 103 91 69 50 177 110 306 110 129 0 238-60 306-110 47-34 82-69 103-91-20-22-56-56-103-91z m-158 91c0-82-66-148-148-148-82 0-148 66-148 148 0 12 1 23 4 34 9-10 22-16 36-16 27 0 49 22 49 49 0 22-15 41-35 47 26 21 59 34 95 34 81 0 147-66 147-148z" horiz-adv-x="1000" />

<glyph glyph-name="view-eye-3" unicode="&#xe856;" d="M993 370c-9 11-223 261-493 261-270 0-484-250-493-261-10-12-10-29 0-40 9-11 223-261 493-261 270 0 484 250 493 261 9 12 9 28 0 40z m-919-20c55 58 227 219 426 219 0 0 0 0 0 0-121 0-219-98-219-219 0-121 98-219 219-219 0 0 0 0 0 0-199 0-371 161-426 219z m426 156c86 0 156-70 156-156 0-86-70-156-156-156-86 0-156 70-156 156 0 86 70 156 156 156z m0-375c121 0 218 98 219 219 0 121-98 218-218 219 199 0 371-161 426-219-56-58-228-219-427-219z" horiz-adv-x="1000" />

<glyph glyph-name="view-eye-4" unicode="&#xe857;" d="M983 372c-2 3-50 63-134 124-111 82-232 125-349 125-117 0-238-43-349-125-83-61-132-122-134-124l-17-22 17-22c2-3 50-63 134-124 111-82 231-125 349-125 117 0 238 43 349 125 83 61 132 122 134 124l17 22-17 22z m-676-179c-45 20-83 44-113 66-47 34-82 69-103 91 20 22 55 56 103 91 30 22 69 46 113 66-35-43-56-98-56-157 0-60 21-114 56-157z m193-26c-101 0-183 82-183 183 0 101 82 183 183 183 101 0 183-82 183-183 0-101-82-183-183-183z m306 92c-30-22-69-46-113-66 35 43 56 98 56 157s-21 114-56 157c45-20 83-44 113-66 47-34 82-69 103-91-20-22-56-56-103-91z m-193 163c47-77-11-207-113-174 44 18 75 54 72 103 1 31-38 69-74 71-45 2-82-28-100-72-20 62 31 122 91 130 49 6 98-15 124-58z" horiz-adv-x="1000" />

<glyph glyph-name="view-eye-5" unicode="&#xe858;" d="M613 343c-4-57-50-102-106-106-68-4-125 52-120 120 3 56 49 102 106 106 68 4 125-52 120-120z m379-17c-128-170-301-274-492-274-191 0-364 105-492 275-10 14-10 33 0 47 128 170 301 274 492 274 191 0 364-105 492-275 11-13 11-33 0-47z m-506 234c-105-7-190-91-196-196-8-127 97-232 224-224 105 7 189 92 196 196 8 127-97 232-224 224z" horiz-adv-x="1000" />

<glyph glyph-name="visa-1" unicode="&#xe859;" d="M957 652h-914c-24 0-43-19-43-43v-518c0-24 19-43 43-43h914c24 0 43 19 43 43v518c0 24-19 43-43 43z m-28-533h-858v462h859v-462z m-282 124c1-2 3-3 6-3h47c3 0 5 2 6 4 6 16 10 25 11 29 3 0 18 0 34 0h1c18 0 37 0 42 0 1-6 5-21 6-28 1-3 3-5 7-5h42c2 0 4 1 5 2 1 2 2 4 1 6l-45 206c-1 3-3 5-7 5h-41c-16 0-26-5-31-18l-85-192c-1-2-1-4 1-6z m119 157l4-19 14-63h-50 0l32 82z m-286-142l6 33c0 2 2 4 3 5 2 1 4 1 6 0 18-7 31-11 54-11 16 0 34 6 34 21 0 9-7 16-30 26-22 10-51 27-51 57 0 41 40 70 97 70 20 0 36-4 46-7 3-1 5-4 5-7l-5-32c0-2-2-4-3-5-2-1-4-1-6 0-8 3-21 7-39 7-1 0-1 0-2 0-22 0-33-9-33-18 0-10 12-17 33-26 33-15 48-33 48-57 0-44-40-72-100-72 0 0 0 0 0 0-21 0-43 4-59 9-3 0-5 3-4 7z m-335 196c1 3 3 6 7 6 0 0 0 0 0 0l63 0c0 0 0 0 0 0 9 0 22-3 26-18 0 0 0 0 0 0l11-53c1-3-1-6-4-7-1 0-2-1-3-1-2 0-4 1-5 3-21 28-52 49-91 63-3 1-4 4-4 7z m235-206l35 206c1 3 3 6 7 6h46c2 0 4-1 5-2 1-2 2-3 1-5l-35-206c-1-3-3-6-7-6h-46c-2 0-4 1-5 2-1 1-2 3-1 5z m-117 85c0-1 0-1 0 0l7-23 57 145c1 3 3 4 6 4l49 0h0c2 0 4-1 6-3 1-2 1-4 1-6l-88-206c-1-2-3-4-6-4l-54 0c0 0 0 0 0 0-3 0-6 2-6 5l-47 160c-1 3 0 6 3 7 2 2 6 2 8 0 31-26 55-58 64-79z" horiz-adv-x="1000" />

<glyph glyph-name="visa-2" unicode="&#xe85a;" d="M974 674h-948c-14 0-26-12-26-26v-597c0-14 12-26 26-26h949c14 0 26 12 26 26v597c-1 15-13 26-27 26z m-897-196h107c14-1 26-5 30-21l23-112c-22 59-77 108-160 128l0 5z m130-254l-62 211c44-28 82-73 95-105l7-26 67 172h73l-108-252-72 0z m234-1h-69l43 253h69l-43-253z m120-3c-31 0-61 6-77 13l10 57 9-4c23-9 37-13 65-13 20 0 41 8 41 25 0 11-9 19-36 31-26 12-61 32-60 69 0 49 48 83 116 83 27 0 48-5 62-11l-9-55-6 3c-13 5-29 10-52 10-27 0-39-11-39-22 0-12 15-20 39-31 40-18 58-40 58-69-1-53-48-86-121-86z m299 3c0 0-6 29-8 38-10 0-80 0-88 0-3-7-14-38-14-38h-72l102 231c7 16 20 21 36 21h53l56-252-65 0z m-36 163c0 0 13-60 16-73h-57c6 15 27 71 27 71 0-1 6 15 9 24l5-22z" horiz-adv-x="1000" />

<glyph glyph-name="visa-3" unicode="&#xe85b;" d="M482 493l-49-287h-78l49 287h78z m-192 0l-77-196-8 30c-15 36-58 87-108 119l70-239 83 0 123 286-83 0z m-88-147l-26 127c-5 17-18 23-34 23h-122l-1-6c94-23 157-78 183-144z m438 32c-27 13-44 22-44 36 0 12 14 25 45 25 26 0 44-5 59-11l7-3 11 62c-15 6-40 12-70 12-77 0-132-39-132-95-1-41 39-64 68-78 30-14 41-23 41-36 0-19-24-28-47-28-31 0-48 4-74 15l-10 5-11-64c18-8 52-15 87-15 82 0 136 38 136 98 0 32-21 56-66 77z m341-172h-73c0 0-7 33-10 43-11 0-91 0-100 0-3-8-16-43-16-43h-82l116 263c8 19 22 24 41 24h60l64-287z m-95 102c-3 14-18 83-18 83l-5 25c-4-11-11-28-10-27 0 0-25-64-31-80h64z" horiz-adv-x="1000" />

<glyph glyph-name="whishlist-1" unicode="&#xe85c;" d="M1000 535c0-190-170-345-430-575l-70-70-70 70c-260 230-430 385-430 575 0 155 120 275 275 275 85 0 170-40 225-105 55 65 140 105 225 105 155 0 275-120 275-275z" horiz-adv-x="1000" />

<glyph glyph-name="whishlist-2" unicode="&#xe85d;" d="M887 679c-48 52-113 80-184 80-53 0-102-17-145-50-22-17-41-37-58-61-17 24-37 44-58 61-43 33-91 50-145 50-71 0-136-28-184-80-47-51-73-121-73-196 0-78 29-149 91-224 56-67 136-135 228-214l0 0c32-27 67-57 105-90 10-9 22-13 36-13 13 0 26 5 36 13 37 33 73 63 105 90 93 79 173 147 228 214 62 75 91 146 91 224 0 75-26 145-73 196z m-60-386c-53-64-131-130-222-208-32-27-68-58-105-91-37 33-73 63-105 90l0 0c-91 77-169 144-222 208-55 66-79 124-79 190 0 62 21 119 59 160 37 40 89 63 144 63 41 0 78-13 112-39 30-23 50-52 62-72 6-10 17-17 29-17 12 0 23 6 29 17 12 20 33 49 62 72 33 26 71 39 112 39 56 0 107-22 144-63 38-41 59-98 59-160 0-65-24-123-79-189z" horiz-adv-x="1000" />

<glyph glyph-name="youtube-1" unicode="&#xe85e;" d="M958 627c-27 48-57 57-117 60-60 4-210 6-341 6-131 0-281-2-341-6-60-3-89-12-117-61-28-47-42-130-42-276 0 0 0 0 0 0 0 0 0 0 0 0v0c0-145 14-229 42-277 27-48 57-57 117-61 60-4 210-6 341-6 130 0 281 2 341 5 60 4 89 13 116 61 29 48 43 132 43 278 0 0 0 0 0 0 0 0 0 0 0 0 0 146-14 229-42 277z m-583-465v375l313-187-313-188z" horiz-adv-x="1000" />

<glyph glyph-name="youtube-2" unicode="&#xe85f;" d="M888 334c-5 21-15 39-31 54-16 14-35 23-56 25-67 7-167 11-301 11-134 0-234-4-300-11-21-3-40-11-56-25-16-14-26-32-31-54-9-42-14-105-14-190 0-86 5-149 14-190 5-21 15-39 31-54 16-14 35-23 56-25 67-8 167-11 301-11 134 0 234 4 301 11 21 2 39 10 55 25 16 14 26 32 31 54 9 42 14 105 14 190 0 86-5 149-14 190z m-560-55l0 0h-58v-309h-54v309h-57v51h169v-51z m146-309l0 0h-48v30c-20-22-38-33-55-33-17 0-27 7-31 20-3 9-4 22-4 40v211h48v-197c0-12 0-18 1-19 1-8 5-11 11-11 10 0 20 8 31 23v204h48v-268z m184 81c0-26-2-44-5-54-6-20-19-30-39-30-17 0-34 10-50 30v-27h-48v360h48v-118c16 20 32 29 50 29 20 0 32-10 39-30 3-9 5-27 5-54v-106z m184 44h-97v-47c0-25 8-37 25-37 12 0 19 7 22 20 1 4 1 15 1 33h49v-7c0-18 0-28-1-31-1-10-5-20-11-29-13-19-33-29-59-29-25 0-44 9-59 28-10 13-16 34-16 63v94c0 29 5 50 15 63 14 18 33 28 58 28 24 0 43-9 57-28 10-13 15-34 15-63v-58z m-232 66v-114c0-24-7-36-21-36-8 0-16 4-24 12v163c8 8 16 12 24 12 14 0 21-13 21-37z m183 0v-25h-49v25c0 25 8 37 24 37 17 0 25-13 25-37z m-530 574c-13 37-25 71-35 101h57l39-143 37 143h55l-66-216v-147h-54v147c-5 26-16 65-33 115z m226-266c25 0 44 9 57 28 10 13 15 35 15 64v95c0 29-5 50-15 63-13 18-33 28-57 28-24 0-43-9-57-28-10-13-15-35-15-63v-96c0-29 5-50 15-64 13-18 32-27 57-27z m-24 196c0 25 8 37 23 37s23-12 23-37v-114c0-25-8-38-23-38s-23 13-23 38v114z m141-176c-3 9-4 22-4 41v213h49v-199c0-12 0-18 1-19 1-8 5-12 11-12 10 0 20 8 31 23v207h49v-271h-49v30c-19-22-38-34-56-34-17 1-28 7-32 21z" horiz-adv-x="1000" />

<glyph glyph-name="american-express-1" unicode="&#xe860;" d="M968 565v61c0 23-19 41-41 41h-854c-23 0-41-19-41-41v-553c0-23 19-41 41-41h854c23 0 41 19 41 41v441c0 9 7 16 16 16s16-7 16-16v-441c0-40-33-73-73-73h-854c-40 0-73 33-73 73v554c0 40 33 73 73 73h854c40 0 73-33 73-73v-61c0-9-7-16-16-16s-16 7-16 15z m-431-271c1-3 1-6 1-9 0-26-18-32-38-32h-26v-3-8-8h0v-14h-43l-25 29 0 0-2 1-29-30h-84v92h85l23-26 5-5 1 1 28 30h70c13-1 28-4 34-18z m-147-29l-24 28h-55v-17h12 37v-18h-37-12v-20h54l25 27z m61 37l-34-37 34-38v75z m65-21c-1 8-7 12-14 12h-28v-24h29c8 0 13 4 13 12z m133-62h74v20h-51v18h50v18h-50v17h51v20h-74v-93z m-29 44c7-3 11-5 12-8 1-1 1-2 1-3 0 0 0-1 1-1 0 0 0 0 0 0 0-1 1-3 1-4 0 0 0 0 0-1 0 0 0-1 0-1 0 0 0-1 0-1 0 0 0-1 0-1 0 0 0-1 0-1 0 0 0-1 0-1 0-1 0-2 0-3v-18h-22v12c0 5 0 14-4 18-3 4-8 4-16 4h-23v-14-20h-22v30 63 0h0 50c11 0 20 0 26-4 7-4 12-11 12-21 0-15-10-23-16-25z m-12 27c-3 1-7 1-11 1h-26v-21h26c4 0 8 0 11 1 3 1 4 5 4 9 1 6-1 9-4 10z m-129 87h-22v29 63h50c12 0 20 0 26-4 6-4 10-10 10-20 0-14-9-22-16-24 0 0 4-1 8-5 0 0 0 0 0 0 0-1 1-1 1-2 1-1 2-3 3-5 0-1 0-1 1-2 0 0 0 0 0 0 0-1 0-1 0-2 0 0 0 0 0-1 0-1 0-1 0-2 0 0 0 0 0-1 0-1 0-2 0-3 0 0 0 0 0 0 0 0 0 0 0 0 0 0 0 0 0 0 0-1 0-1 0-2v-18h-20v11c0 1 0 2 0 2 0 0 0 0 0 0 0 3 0 5-1 8 0 0 0 0 0 0-1 3-1 5-3 8-1 1-3 2-4 3 1 0-3 0-9 0h-24v-13h0v-20z m0 52h26c4 0 8 0 11 1 0 0 1 0 1 1l0 0c0 0 0 0 0 0 0 0 1 1 1 1 1 2 3 5 2 10 0 0 0 1 0 1 0 0 0 0 0 0l0 0c-1 2-2 4-4 4-3 3-7 3-11 3h-26v-21z m-37-33h-51v18h50v18h-50v18h51v20h-74v-93h74v19z m-163-19l-31 73v-72h-45l-9 20h-45l-4-9-5-10h-23l39 92h33l37-88v88h8 26l1-1h0l17-36 12-27 0 1 26 63h36v-92h-13-9v8 63l-1-3v0l-31-69h-1-7v0h-11z m-93 40l-14 37-14-37h28z m51-98v6h-50c-6 0-12 2-17 5-5-3-11-5-17-5h-1-66-1c-11 0-20 5-26 14-6 9-7 20-3 30l1 1c0 0 0 0 0 1l30 67 26 62c5 12 16 19 29 19h57 1c1 0 2 0 3 0 1 0 2 0 3 0h20 47c5 0 10-1 14-4 4 2 9 4 14 4h212c5 0 11 0 16-1 3 1 6 1 9 1h59c4 0 8-1 12-2 8 2 16 2 25 2h86c1 0 3 0 4 0 1 0 3 0 4 0h62c1 0 3 0 4 0 1 0 3 0 4 0h59c17 0 32-14 32-32v-122h20c17 0 32-14 32-32v-2c0-1 0-1 0-2v-52c4-10 7-21 7-32 0-1 0-1 0-2 0-1 0-3 0-4 0-1 0-1 0-2-2-25-15-46-35-59-16-10-35-11-48-11h-57c-4 0-7 1-11 2-8-1-15-2-20-2h-181c-1 0-2 0-3 0-1 0-2 0-3 0h-60c-7 0-14 2-19 7-5-3-11-5-18-5h-1-1-3-67-1c-6 0-13 2-18 5-5-4-11-5-18-5h-115c-17 0-32 14-32 32v118z m607 15c-6 0-13-4-16-7 0 0 0 0 0 0-1-1-1-1-2-1 0 0 0 0 0 0 0 0 0 0 0 0v1 7h-61c-9 0-21-3-26-8v1 7h-107v-4-3-1c-8 7-22 8-29 8h-71v-4-3-1c0 0-1 1-2 1 0 0 0 0 0 0-7 5-21 7-29 7h-79l-18-20-17 20h-6-9-103v-4-4-7-119h116l19 19 16-19h1 13 35 19 3 1 1v13 17h7c9 0 21 0 30 4v-33-1h60v3 32h3c4 0 4 0 4-4v-28-3h179c12 0 24 3 30 8v-5-3h57c12 0 24 1 32 7 12 7 20 20 21 35 0 0 0 1 0 1l0 0c0 1 0 2 0 3 0 9-3 18-7 25v59h0v4c0 0-16 0-32 0-15 0-29 0-33 0z m-596 23h16v1 6 8l7-16h38l7 16v-8-7-1h30 151 1v8 26h2c3 0 3 0 3-4v-22-7h95v7 1c8-4 20-8 36-8h39l7 23h18l8-21h76v7 7 7l12-20h3 1 58v7 121h-59v-16l-8 16h-62v-16l-7 16h-84c-14 0-26-3-37-8v8h-59v-1-7c-7 5-14 8-25 8h-212l-14-33-14 33h-47-20v-16l-8 16h-1-57l-26-62-30-67-1-1h1 67 1l0 1 8 20h17l8-21h61z m332 112h-22v-92h22v92z m238-183c0-29 25-28 46-29 4 0 7-1 8-3 1-1 3-4 3-7 0-3-1-5-3-7-3-3-5-3-9-3h-42v-20h42c13 0 22 4 28 9 5 5 8 12 8 20 0 2 0 3 0 5-3 14-15 19-18 21-4 1-8 2-14 2h-11-1c-3 0-5 0-8 1-4 1-5 3-5 7 0 3 1 5 3 7 3 1 5 1 9 1h1 11 29v22h-45c-2 0-5 0-7 0-17-2-25-13-25-26z m-38-10h-12c-3 0-5 0-8 1-3 1-5 3-5 7 0 3 0 5 3 7 3 1 5 1 9 1h41v22h-43c-24 0-32-14-32-28 0-29 25-28 46-29 4 0 7-1 8-3 1-1 3-4 3-7 0-3-1-5-3-7-3-3-5-3-9-3h-42v-20h42c22 0 34 9 34 29 0 9-3 16-7 20-5 7-13 10-25 10z m-177 110c-8 8-12 18-12 36 0 13 3 26 12 37 7 8 18 11 33 11h21v-15-5h-2-19c-8 0-12-1-17-5-4-4-7-12-7-21 0-11 1-17 7-22 4-4 9-5 16-5h9l3 7 27 65h13 20l27-65 10-23v4 30 3 51h33l38-64v64h22v-91h-29l-42 70v-58l0 0v-12h-22v0h-22l-4 10-4 10h-46l-8-21h-25c-11-1-24 2-32 9z m72 31h30l-14 37-16-37z" horiz-adv-x="1000" />

<glyph glyph-name="american-express-2" unicode="&#xe861;" d="M974 674h-948c-14 0-26-12-26-26v-597c0-14 12-26 26-26h949c14 0 26 12 26 26v597c-1 15-13 26-27 26z m-728-296l-3 7v0c0-9-7-16-16-16h-46c-6 0-12 4-15 10l-4 11h-26l-5-12c-2-6-8-10-14-10h-25c-5 0-10 3-13 7-3 4-3 10-1 15l41 95c2 6 8 10 14 10h34c6 0 12-4 14-9l9-20v14c0 9 7 16 16 16h37c6 0 12-4 14-9l15-32 13 32c2 6 8 10 14 10h38c3 0 6-1 8-3 2 2 5 3 8 3h76c3 0 6-1 8-2 2 1 5 2 8 2h52c14 0 25 0 35-7 1-1 2-1 3-2 3 5 8 9 14 9h23c8 0 14-6 15-13 10 9 24 13 43 13h22c3 0 7-1 9-3 3 2 6 3 9 3h34c6 0 12-4 14-10l8-20v13c0 9 7 16 16 16h35c6 0 11-3 13-8l11-18v10c0 9 7 16 16 16h23c9 0 16-7 16-16v-95c0-9-7-16-16-16h-32c-6 0-11 3-13 8l-14 23v-15c0-9-7-16-16-16h-45c-6 0-12 4-14 10l-5 11h-26l-5-12c-2-6-8-10-14-10h-27c-10 0-28 2-41 13-1-7-7-13-15-13h-23c-3 0-5 1-7 2-2-1-4-2-7-2h-23c-9 0-16 7-16 16l0 12 0 2c0 1 0 3 0 5-1 0-2 0-4 0h-9v-19c0-9-7-16-16-16h-23c-3 0-6 1-8 2-2-1-5-2-8-2h-76c-3 0-6 1-8 3-2-2-5-3-8-3h-23c-9 0-16 7-16 16v0l-3-7c-3-6-8-9-14-9h-20c-7 1-13 4-15 10z m627-173h-44c-6 0-12 4-14 10-9-6-20-10-34-10h-44c-2 0-5 1-7 2-2-1-4-2-7-2h-76c-3 0-5 1-7 2-2-1-4-2-7-2h-23c-9 0-16 7-16 16v14c0 1 0 3 0 5-1 0-3 0-5 0h-9v-19c0-9-7-16-16-16h-23c-9 0-16 7-16 16v24c-8-5-19-8-35-8h-13v-16c0-9-7-16-16-16h-41c-4 0-9 2-12 5l-16 19-18-19c-3-3-7-5-12-5h-90c-9 0-16 7-16 16v95c0 9 7 16 16 16h91c4 0 9-2 12-5l17-18 17 19c3 3 7 5 12 5h73c16 0 27-4 35-9 3 5 8 9 14 9h52c12 0 24 0 35-6 1-1 2-2 3-2 3 5 8 9 14 9h76c6 0 11-3 14-8 7 5 17 8 30 8h46c7 0 12-4 15-10 8 6 18 10 33 10h46c9 0 16-7 16-16v-20c0-6-3-10-7-13 0 0 0 0 0 0 8-8 11-18 11-31-3-32-22-49-54-49z m-405 214h24c8 0 13-1 17-4 4-5 4-13 4-19l0-12h23v19c0 8-1 13-4 17-2 3-6 6-11 8 6 2 16 10 16 25 0 11-4 17-11 21-7 4-16 5-28 5h-52v-95h23v35z m0 40h28c4 0 8 0 11-2 3-1 5-4 5-8 0-4-2-7-5-9-3-2-7-2-11-2h-28l0 21z m105-75h-23v95h23v-95z m56 0h27l9 21h47l9-21h46v71l43-71h32v95h-23v-66l-40 66h-35v-90l-38 90h-34l-32-75h-10c-6 0-12 1-16 5-4 5-6 12-6 22 0 10 3 18 7 22 4 4 9 6 17 6h22v20h-22c-16 0-27-3-34-11-10-10-12-23-12-37 0-17 4-28 12-36 6-8 20-11 31-11z m59 79l16-38h-31l15 38z m-64-21c1 1 1 1 7 1h8l-10-23c-2 0-4 0-4 0-1 1-2 5-2 11 0 7 1 11 1 11z m22-126h76v-20h-53v-17h52v-19h-52v-19l53 0v-20h-76v95z m-153 0h-73l-29-31-28 31h-91v-95h90l29 31 28-31h44v32h28c20 0 40 5 40 32 1 26-20 31-38 31z m-142-76h-56v19h50v19h-50v17h57l25-28-26-27z m90-11l-35 39 35 37v-76z m52 43h-29v24h30c8 0 14-3 14-12-1-8-6-12-15-12z m141 18c0 11-5 17-12 21-8 4-16 4-27 4h-52v-95h23v35h24c8 0 13-1 17-4 4-4 4-13 4-19v-12h23v20c0 8-1 13-4 17-2 3-6 6-11 8 5 2 15 10 15 25z m-30-13c-3-2-7-2-11-2h-28v21h28c4 0 8 0 11-2 3-2 5-4 5-9s-2-7-5-8z m205-6c4-5 7-10 7-20 0-20-13-30-36-30h-44v20h44c4 0 7 1 9 2 2 1 3 4 3 6 0 3-1 5-3 6-2 1-4 2-8 2-21 1-48-1-48 29 0 14 9 28 32 28h46v-20h-42c-4 0-7 0-9-2-3-2-3-4-3-7 0-4 2-6 5-7 2-1 5-1 9-1l12 0c12 1 21-1 26-6z m-529 113l33 74 0-74h23v95h-38l-27-64-30 64h-37v-90l-39 90h-34l-41-95h25l9 21h47l9-21h46v74l33-74 21 0z m-147 41l15 38 16-38h-31z m296-41h-76v95h76v-20h-53v-17h52v-19h-52v-19h53v-20z m473-113c4-5 7-10 7-20 0-20-13-30-36-30h-44v20h44c4 0 7 1 9 2 2 1 3 4 3 6 0 3-1 5-3 6-2 1-4 2-8 2-21 1-48-1-48 29 0 14 9 28 32 28h46v-20h-42c-4 0-7 0-9-2-2 0-3-2-3-5 0-4 2-6 5-7 2-1 5-1 9-1l12 0c12-1 20-3 26-8z" horiz-adv-x="1000" />

<glyph glyph-name="american-express-3" unicode="&#xe862;" d="M740 439h-37l18 45 19-45z m-672 0h37l-18 45-19-45z m440 18c3 2 6 6 6 11 0 5-2 8-6 10-3 2-8 2-13 2h-33v-25h33c5-1 9-1 13 2z m114-173c-3 2-8 2-13 2h-33v-25h33c5 0 10 0 13 2 3 2 6 6 6 11 0 5-2 9-6 10z m-130 2h-35v-29h35c10 0 17 5 17 15-1 11-7 14-17 14z m508-53c0-34-23-54-61-54h-52c-8 0-14 5-17 11-10-7-24-11-40-11h-52c-3 0-6 1-8 2-2-1-5-2-8-2h-89c-3 0-6 1-8 2-2-1-5-2-8-2h-27c-10 0-19 8-19 18v16c0 2 0 4 0 6-1 0-3 0-5 0h-10v-22c0-10-8-18-19-18h-27c-10 0-19 8-19 18v28c-10-6-23-9-41-9h-15v-19c0-10-8-18-19-18h-52c-5 0-10 2-14 6l-19 22-20-22c-4-4-8-6-14-6h-105c-10 0-18 8-18 19v112c0 10 8 19 18 19h108c5 0 10-2 14-6l19-22 20 22c4 4 8 6 14 6h86c19 0 32-4 41-10 3 6 9 10 16 10h62c14 0 28-1 41-7 1-1 2-2 4-3 3 6 9 10 16 10h89c7 0 13-4 16-10 9 6 20 10 35 10h54c8 0 15-5 17-12 9 7 22 12 39 12h54c10 0 19-8 19-19v-24c0-7-3-12-8-16 0 0 0 0 1-1 7-9 11-20 11-36z m-463 40c0 31-24 37-45 37h-86l-34-37-33 37h-107v-112h106l34 37 33-37h52v38h33c24-1 47 6 47 37z m121 6c0 13-5 20-14 25-9 5-19 5-32 5h-62v-112h27v41h29c10 0 16-1 20-5 5-5 4-15 4-22v-14h27v23c0 10-1 15-4 20-2 3-7 7-13 9 6 3 18 13 18 30z m104 31h-89v-112h89v23l-63 0v22h61v23h-61v20h63v24z m110-77c0 12-3 18-8 24-6 6-16 9-31 9l-14 0c-5 0-8 0-10 1-3 1-6 4-6 8 0 4 1 6 4 8 3 2 6 2 11 2h49v25h-54c-28 0-38-17-38-33 0-35 31-34 56-35 5 0 7-1 10-2 2-2 3-4 3-7 0-3-1-6-3-7-2-2-6-3-11-3h-52v-24h52c27-1 42 10 42 34z m109 0c0 12-3 18-8 24-6 6-16 9-31 9l-14 0c-5 0-8 0-10 1-3 1-6 4-6 8 0 4 1 6 4 8 3 2 6 2 11 2h49v25h-54c-28 0-38-17-38-33 0-35 31-34 56-35 5 0 7-1 10-2 2-2 3-4 3-7 0-3-1-6-3-7-2-2-6-3-11-3h-52v-24h53c26-1 41 10 41 34z m-764 139c-7 0-14 4-17 11l-4 8v0c0-10-8-18-18-18h-54c-8 0-14 5-17 11l-6 14h-31l-6-14c-3-7-10-11-17-11h-29c-6 0-12 3-15 8-3 5-4 12-2 17l48 112c3 7 10 11 17 11h40c7 0 14-4 17-11l10-23v16c0 10 8 18 18 18h44c7 0 14-4 17-11l18-38 16 37c3 7 10 11 17 11h45c4 0 7-1 10-3 3 2 6 3 10 3h89c3 0 7-1 9-3 3 2 6 3 9 3h62c16 0 29-1 42-8 1-1 2-2 3-3 3 6 9 10 16 10h27c9 0 17-7 18-16 12 10 28 16 50 16h27c4 0 8-1 11-4 3 2 7 4 11 4h40c7 0 14-4 17-11l10-23v16c0 10 8 18 18 18h41c6 0 12-3 16-9l13-21v12c0 10 8 18 19 18h27c10 0 18-8 18-18v-111c0-10-8-18-18-18h-38c-7 0-13 3-16 9l-16 27v-18c0-10-8-18-18-18h-54c-7 0-14 5-17 11l-6 14h-31l-7-14c-3-7-10-12-17-12h-31c-12 0-33 2-48 15-2-8-9-15-18-15h-27c-3 0-6 1-8 2-3-1-5-2-8-2h-27c-10 0-18 8-19 18l0 14 0 2c0 2 0 4 0 6-1 0-3 0-5 0h-10v-21c0-10-8-18-18-18h-27c-3 0-7 1-9 3-3-2-6-3-9-3h-89c-4 0-7 1-10 3-3-2-6-3-10-3h-30c-10 0-18 8-18 18v0l-4-8c-3-7-10-11-17-11l-24 1z m382 74c0-20 5-33 14-43 9-9 26-12 39-12h31l10 25h56l10-25h54v84l51-84h38v111h-27v-78l-47 78h-41v-106l-45 106h-40l-38-88h-12c-7 0-15 1-19 6-5 6-7 14-7 26 0 12 3 21 8 25 5 5 11 7 21 7h25v24h-26c-18 0-32-4-41-13-11-12-14-27-14-43z m55 14c-6 0-7-1-8-1 0 0-2-4-2-12 0-8 1-11 2-13 1 0 3-1 5-1l12 27-9 0z m-96-70h27v112h-27v-112z m-123 0l0 0h27v41h29c10 0 16-1 20-5 5-5 4-15 4-22l0-14h27v22c0 10-1 15-4 21-2 3-7 7-13 9 7 3 19 12 19 30 0 13-5 20-14 25-9 5-19 5-32 5h-62v-112z m-108 0h89v23h-63v22h61v23h-61v20h63v23h-89v-111z m-110 0h24l39 88 0-88h27v112h-45l-32-76-35 76h-44v-106l-46 106h-40l-47-112h29l10 25h56l10-25h55v88l39-88z m213-182v90l-41-44 41-46z m-171 78v-20h59v-23h-59v-22h66l31 33-29 33h-68z" horiz-adv-x="1000" />

<glyph glyph-name="arrow-down-circle-1" unicode="&#xe863;" d="M933 601c-45 77-105 137-182 182-77 45-160 67-251 67-91 0-174-22-251-67-77-45-137-105-182-182-45-77-67-160-67-251 0-91 22-174 67-251 45-77 105-137 182-182 77-45 160-67 251-67 91 0 174 22 251 67 77 45 137 105 182 182 45 77 67 160 67 251 0 91-22 174-67 251z m-108-218l-296-295c-8-8-18-12-29-12-11 0-21 4-29 12l-296 295c-8 8-12 18-12 29 0 11 4 21 12 29l66 66c8 8 18 12 29 12 11 0 21-4 29-12l200-200 200 200c8 8 18 12 29 12 11 0 21-4 29-12l66-66c8-8 12-18 12-29 2-11-2-21-10-29z" horiz-adv-x="1000" />

<glyph glyph-name="arrow-left-circle-1" unicode="&#xe864;" d="M933 601c-45 77-105 137-182 182-77 45-160 67-251 67-91 0-174-22-251-67-77-45-137-105-182-182-45-77-67-160-67-251 0-91 22-174 67-251 45-77 105-137 182-182 77-45 160-67 251-67 91 0 174 22 251 67 77 45 137 105 182 182 45 77 67 160 67 251 0 91-22 174-67 251z m-275-451c8-8 12-18 12-29 0-11-4-21-12-29l-66-66c-8-8-18-12-29-12-11 0-21 4-29 12l-296 295c-8 8-12 18-12 29 0 11 4 21 12 29l296 296c8 8 18 12 29 12 11 0 21-4 29-12l66-66c8-8 12-18 12-29 0-11-4-21-12-29l-200-200 200-201z" horiz-adv-x="1000" />

<glyph glyph-name="arrow-left-circle-2" unicode="&#xe865;" d="M500 843c-272 0-493-221-493-493s221-493 493-493 493 221 493 493-221 493-493 493z m107-725l-46-46-277 278 277 277 46-46-231-231 231-232z" horiz-adv-x="1000" />

<glyph glyph-name="arrow-left-circle-3" unicode="&#xe866;" d="M500 850c-276 0-500-224-500-500s224-500 500-500c276 0 500 224 500 500s-224 500-500 500z m0-966c-257 0-466 209-466 466 0 257 209 466 466 466 257 0 466-209 466-466 0-257-209-466-466-466z m70 627l-154-154 154-154c7-7 7-17 0-24-3-3-8-5-12-5-4 0-9 2-12 5l-166 166c-7 7-7 17 0 24l166 166c7 7 17 7 24 0 6-7 6-17 0-24z" horiz-adv-x="1000" />

<glyph glyph-name="arrow-right-1" unicode="&#xe867;" d="M746 326l-444-443c-7-7-15-10-24-10s-17 3-24 10c-13 13-13 35 0 48l420 420-420 420c-13 13-13 35 0 48s35 13 48 0l444-444c13-14 13-36 0-49z" horiz-adv-x="1000" />

<glyph glyph-name="arrow-right-2" unicode="&#xe868;" d="M777 350c0-17-7-35-20-48l-418-419c-27-27-70-27-96 0-27 27-27 70 0 96l370 370-370 370c-27 27-27 70 0 96 27 27 70 27 96 0l419-419c13-11 19-29 19-46z" horiz-adv-x="1000" />

<glyph glyph-name="arrow-right-3" unicode="&#xe869;" d="M810 350l-503-503-117 118 385 385-385 385 117 118 503-503z" horiz-adv-x="1000" />

<glyph glyph-name="arrow-right-4" unicode="&#xe86a;" d="M1000 350l-274-274-45 44 198 198h-879v63h879l-198 199 45 45 274-275z" horiz-adv-x="1000" />

<glyph glyph-name="arrow-right-5" unicode="&#xe86b;" d="M762 350l-500-500-24 24 476 476-476 476 24 24 500-500z" horiz-adv-x="1000" />

<glyph glyph-name="arrow-right--6" unicode="&#xe86c;" d="M789 139v158h-789v106h789v158l211-211-211-211z" horiz-adv-x="1000" />

<glyph glyph-name="arrow-right-circle-1" unicode="&#xe86d;" d="M933 601c-45 77-105 137-182 182-77 45-160 67-251 67-91 0-174-22-251-67-77-45-137-105-182-182-45-77-67-160-67-251 0-91 22-174 67-251 45-77 105-137 182-182 77-45 160-67 251-67 91 0 174 22 251 67 77 45 137 105 182 182 45 77 67 160 67 251 0 91-22 174-67 251z m-171-280l-295-296c-8-8-18-12-29-12-11 0-21 4-29 12l-66 66c-8 8-12 18-12 29 0 11 4 21 12 29l200 200-200 200c-8 8-12 18-12 29 0 11 4 21 12 29l66 66c8 8 18 12 29 12 11 0 21-4 29-12l296-296c8-8 12-18 12-29 0-9-4-19-13-27z" horiz-adv-x="1000" />

<glyph glyph-name="arrow-right-circle-2" unicode="&#xe86e;" d="M500 850c-276 0-500-224-500-500 0-276 224-500 500-500 276 0 500 224 500 500 0 276-224 500-500 500z m157-524l-217-216c-13-13-34-13-47 0-13 13-13 34 0 47l193 193-193 193c-13 13-13 34 0 47s34 13 47 0l216-216c7-7 10-15 10-24 0-9-3-17-9-24z" horiz-adv-x="1000" />

<glyph glyph-name="arrow-right-circle-3" unicode="&#xe86f;" d="M500 850c-276 0-500-224-500-500 0-276 224-500 500-500 276 0 500 224 500 500 0 276-224 500-500 500z m0-966c-257 0-466 209-466 466 0 257 209 466 466 466 257 0 466-209 466-466 0-257-209-466-466-466z m115 485c7-7 7-17 0-24l-166-166c-3-3-8-5-12-5-4 0-9 2-12 5-7 7-7 17 0 24l154 154-154 154c-7 7-7 17 0 24 7 7 17 7 24 0l166-166z" horiz-adv-x="1000" />

<glyph glyph-name="arrow-up-circle-1" unicode="&#xe870;" d="M933 601c-45 77-105 137-182 182-77 45-160 67-251 67-91 0-174-22-251-67-77-45-137-105-182-182-45-77-67-160-67-251 0-91 22-174 67-251 45-77 105-137 182-182 77-45 160-67 251-67 91 0 174 22 251 67 77 45 137 105 182 182 45 77 67 160 67 251 0 91-22 174-67 251z m-108-343l-66-66c-8-8-18-12-29-12-11 0-21 4-29 12l-200 200-200-200c-8-8-18-12-29-12-11 0-21 4-29 12l-66 66c-8 8-12 18-12 29 0 11 4 21 12 29l296 296c8 8 18 12 29 12s21-4 29-12l296-296c8-8 12-18 12-29-2-11-6-21-14-29z" horiz-adv-x="1000" />

<glyph glyph-name="blogger-1" unicode="&#xe871;" d="M334 474c0 22 18 40 40 40h126c22 0 40-18 40-40 0-22-18-40-40-40h-126c-22 0-40 18-40 40z m666 376v-1000h-1000v1000h1000z m-154-468c0 31-9 52-47 52h-30c-30 0-47 19-47 40v19c0 99-108 203-201 203h-147c-123 0-220-97-220-220v-263c0-115 99-210 202-210h278c113 0 212 95 212 212v167z m-222-118h-250c-22 0-40-18-40-40 0-22 18-40 40-40h250c22 0 40 18 40 40 0 22-18 40-40 40z" horiz-adv-x="1000" />

<glyph glyph-name="blogger-2" unicode="&#xe872;" d="M997 435l-8 17-14 11c-18 14-112-1-137 22-18 16-21 46-26 85-10 77-16 81-28 107-45 94-164 163-245 173h-222c-174 0-317-142-317-316v-369c0-173 143-315 317-315h364c174 0 316 142 317 315l2 255-3 15z m-676 157h176c34 0 61-27 61-60 0-33-27-60-61-60h-176c-34 0-61 27-61 60 0 33 27 60 61 60z m357-482h-357c-34 0-61 27-61 60 0 33 27 60 61 60h357c33 0 60-27 60-60 0-33-27-60-60-60z" horiz-adv-x="1000" />

<glyph glyph-name="blogger-3" unicode="&#xe873;" d="M350 500c0 30 20 50 50 50h130c30 0 50-20 50-50s-20-50-50-50h-130c-30 0-50 20-50 50z m250-200h-200c-30 0-50-20-50-50s20-50 50-50h200c30 0 50 20 50 50s-20 50-50 50z m400 450v-800c0-55-45-100-100-100h-800c-55 0-100 45-100 100v800c0 55 45 100 100 100h800c55 0 100-45 100-100z m-200-400c0 30-20 50-50 50s-50 20-50 50v50 50c0 85-65 150-150 150h-200c-85 0-150-65-150-150v-350c0-85 65-150 150-150h300c85 0 150 65 150 150v150z" horiz-adv-x="1000" />

<glyph glyph-name="cart-1" unicode="&#xe874;" d="M400-50c0-55-45-100-100-100s-100 45-100 100 45 100 100 100 100-45 100-100z m-45 350h370c40 0 70 20 85 50l180 325c10 10 10 15 10 25 0 30-20 50-50 50h-740l-45 100h-165v-100h100l180-380-70-120c-5-15-10-35-10-50 0-55 45-100 100-100h600v100h-580c-5 0-10 5-10 10v5l45 85z m445-250c-55 0-100-45-100-100s45-100 100-100 100 45 100 100-45 100-100 100z" horiz-adv-x="1000" />

<glyph glyph-name="cart-2" unicode="&#xe875;" d="M792 58c15 15 33 23 54 23 21 0 39-8 54-23 15-15 23-33 23-54s-8-39-23-54c-15-15-33-23-54-23-21 0-39 8-54 23-15 15-23 33-23 54s8 39 23 54z m197 627c-8 8-17 11-27 11h-722c0 3-1 8-3 15-1 7-3 13-3 18-1 4-2 10-5 16-2 6-5 11-8 15-3 4-7 7-12 9-5 3-11 4-17 4h-154c-10 0-19-4-27-11-7-8-11-17-11-27 0-10 4-19 11-27 8-8 17-11 27-11h123l106-495c-1-2-5-9-12-23-7-14-13-26-18-36-4-10-7-18-7-24 0-10 4-19 11-27 8-8 17-11 27-11h38 0 538 0 38c10 0 19 4 27 11 8 8 11 17 11 27s-4 19-11 27c-8 8-17 11-27 11h-550c10 19 14 32 14 38 0 4-1 8-2 13-1 5-2 10-4 16-1 6-2 10-3 13l627 73c10 1 18 6 25 13 6 7 10 16 10 26v309c1 10-3 19-10 27z m-758-681c0-21 8-39 23-54 15-15 33-23 54-23 21 0 39 8 54 23 15 15 23 33 23 54s-8 39-23 54c-15 15-33 23-54 23-21 0-39-8-54-23-16-15-23-33-23-54z" horiz-adv-x="1000" />

<glyph glyph-name="cart-3" unicode="&#xe876;" d="M879 226l118 354c6 17 1 27-3 34-12 17-37 17-42 17l-668 0-18 85c-5 20-19 39-48 39h-188c-19 0-30-9-30-27v-49c0-18 11-22 31-22h159l121-515c-19-20-30-50-30-78 0-61 49-117 111-117 59 0 103 55 110 88h236c7-33 43-89 110-89 61 0 111 53 111 114 0 61-37 114-110 114-30 0-67-16-83-41h-290c-21 33-50 43-79 44l-4 21h442c31 0 38 12 44 28z m-31-124c23 0 42-19 42-42s-19-42-42-42-42 19-42 42c1 23 19 42 42 42z m-415-42c0-23-19-42-42-42-23 0-42 19-42 42 0 23 19 42 42 42 23 0 42-19 42-42z" horiz-adv-x="1000" />

<glyph glyph-name="cart-4" unicode="&#xe877;" d="M999 603l-80-277c-5-15-21-26-36-26h-383c-15 0-31 12-36 26l-92 270c-6 18 5 33 24 33h583c16 1 24-11 20-26z m-550-527c-48 0-87-39-87-87 0-48 39-87 87-87s87 39 87 87c0 48-39 87-87 87z m369-1c-48 0-87-39-87-87 0-48 39-87 87-87 48 0 87 39 87 87 0 48-39 87-87 87z m105 137h-510l-205 587h-159c-27 0-49-22-49-49 0-27 22-50 49-50h89l204-588h580c27 0 49 22 49 49 1 28-21 51-48 51z" horiz-adv-x="1000" />

<glyph glyph-name="cart-5" unicode="&#xe878;" d="M360 16c15-15 23-33 23-55 0-21-8-40-23-55s-33-23-55-23c-21 0-40 8-55 23-15 15-23 34-23 55 0 21 8 40 23 55 15 15 33 23 55 23 22-1 40-8 55-23z m616 532c-8 11-19 18-34 20l-672 76-9 82c-1 10-5 19-11 27s-14 13-23 16l-148 46c-13 4-26 3-38-4s-21-15-25-29c-4-14-2-26 4-39 6-12 16-20 30-25l116-36 41-410-27-146c-2-16 2-30 12-42 11-12 24-18 39-18h627c14 0 25 5 35 14 10 10 15 22 15 36 0 14-5 26-15 36-10 10-22 14-35 14h-569l12 67h594c12 0 23 4 33 12 10 8 15 18 17 30l41 234c2 15-1 28-10 39z m-212-510c-21 0-40-8-55-23-15-15-23-33-23-55 0-21 8-40 23-55 15-15 33-23 55-23 21 0 40 8 55 23 15 15 23 34 23 55 0 21-8 40-23 55-16 16-34 23-55 23z" horiz-adv-x="1000" />

<glyph glyph-name="cart-6" unicode="&#xe879;" d="M1000 650c0 12-10 21-21 21h-793c-2 0-3-1-4-1l-33 107c0 1-1 2-2 3-1 11-10 20-21 20 0 0 0 0 0 0l-105 0c-12 0-21-10-21-22 0-12 10-21 21-21 0 0 0 0 0 0l89 0 205-681c-20-19-33-45-33-75 0-56 46-102 102-102 56 0 102 46 102 102 0 15-3 29-9 41h296c-6-13-9-26-9-41 0-56 46-101 102-101 56 0 102 46 102 102s-46 102-102 102c-21 0-41-7-57-18h-368c-16 11-36 18-57 18-11 0-21-2-30-5l-31 101 540 0c9 0 17 6 20 15 1 1 2 3 2 4l114 421c1 3 1 5 1 8 0 1 0 1 0 2z m-134-589c33 0 59-26 59-59 0-33-26-59-59-59s-59 26-59 59c0 32 27 59 59 59z m-482 0c33 0 59-26 59-59 0-33-26-59-59-59s-59 26-59 59 26 59 59 59z m463 182l-537 0-116 385h758l-105-385z" horiz-adv-x="1000" />

<glyph glyph-name="cart-7" unicode="&#xe87a;" d="M994 705c-5 7-14 11-23 11h-768l-21 93c-3 13-15 22-28 22h-125c-16 0-29-13-29-29 0-16 13-29 29-29h102l146-631c3-13 15-22 28-22h578c16 0 29 13 29 29 0 16-13 29-29 29h-555l-22 96h579c13 0 25 9 28 23l86 383c2 9 0 18-5 25z m-132-374h-570l-75 327h718l-73-327z m-439-250c-58 0-106-47-106-106 0-58 47-106 106-106 58 0 106 47 106 106 0 58-48 106-106 106z m0-154c-27 0-48 22-48 48 0 27 22 48 48 48 27 0 48-22 48-48 0-27-21-48-48-48z m346 154c-58 0-106-47-106-106 0-58 47-106 106-106 58 0 106 47 106 106 0 58-47 106-106 106z m0-154c-27 0-48 22-48 48 0 27 22 48 48 48 27 0 48-22 48-48 0-27-21-48-48-48z" horiz-adv-x="1000" />

<glyph glyph-name="cart-9" unicode="&#xe87b;" d="M319 72c-58 0-104-47-104-104 0-58 47-104 104-104 58 0 104 47 104 104 0 57-46 104-104 104z m0-162c-32 0-58 26-58 58s26 58 58 58 58-26 58-58c0-32-26-58-58-58z m441 162c-58 0-104-47-104-104 0-58 47-104 104-104 58 0 104 47 104 104 0 57-47 104-104 104z m0-162c-32 0-58 26-58 58s26 58 58 58 58-26 58-58c0-32-26-58-58-58z m235 771c-5 5-11 9-18 9l-755 10-21 64c-15 43-55 71-100 72h-78c-13 1-23-10-23-23s10-23 23-23h78c25-1 47-17 56-41l147-444-12-27c-13-33-9-71 10-101 19-29 52-48 87-49h451c13 0 23 10 23 23s-10 23-23 23h-450c-20 0-38 11-49 28-10 17-13 37-6 56l9 21 488 51c54 6 98 45 110 97l56 233c3 8 2 16-3 21z m-97-242c-8-34-36-59-71-61l-483-50-107 326 711-10-50-205z" horiz-adv-x="1000" />

<glyph glyph-name="discover-1" unicode="&#xe87c;" d="M171 350c1-12-4-25-13-33-8-7-19-11-35-11h-8v87h7c16 0 27-3 35-11 8-8 14-20 14-32z m710 25c0 13-9 20-25 20h-8v-40h8c16 0 25 7 25 20z m93 209c9 0 15 7 15 15v21c0 39-32 71-71 71h-836c-39 0-71-32-71-71v-541c0-39 32-71 71-71h835c39 0 71 32 71 71v471c0 9-7 15-15 15s-15-7-15-15v-470c0-22-18-41-41-41h-835c-22 0-41 18-41 41v541c0 22 18 41 41 41h835c22 0 41-18 41-41v-21c0-9 7-16 16-16z m-274-300v5l-9-21c-5-11-16-19-28-19h-15c-13 0-24 8-29 19l-9 22c-3-4-7-8-10-12-18-18-44-28-71-28-22 0-42 7-59 19-3-3-6-5-10-7-12-5-26-11-45-11 0 0 0 0-1 0 0 0 0 0-1 0-25 0-47 8-64 22-2-2-3-3-5-5-14-13-33-20-54-20-15 0-28 3-40 10-5-3-10-5-16-5h-25c-11 0-21 6-26 15-16-10-35-15-57-15h-37c-17 0-31 14-31 31v132c0 17 14 31 31 31h37c21 0 41-5 57-15 5 9 15 15 26 15h25c8 0 16-3 21-8 11 6 24 10 38 10 21 0 41-7 57-21 1 1 2 1 2 2 17 13 38 21 59 23 1 0 1 0 2 0 16 0 30-3 46-11 4-2 8-5 11-9 17 12 37 19 59 19 0 0 0 0 1 0h0c16 0 31-4 45-10 5 4 12 6 19 6h28c13 0 24-8 29-20l6-15 1 2c1 3 3 5 4 8l3 6c5 12 16 19 29 19h28 0c0 0 0 0 0 0 0 0 0 0 0 0 2 0 4 0 5 0 2 0 4 0 5 0h74c3 0 6 0 9-1 3 1 6 1 9 1h39c46 0 78-28 78-70 0-18-6-34-16-46l21-28c7-9 8-22 3-32-5-10-16-17-28-17h-31c-7 0-15 3-20 7-5-5-12-7-20-7h-25c-3 0-6 0-9 1-3-1-6-1-9-1h-1-72c-20-1-34 12-34 29z m122 0h13 12v52h4l36-52h31l-41 55c20 4 31 17 31 37 0 24-17 39-47 39h-25-13v-131z m-91 0h60 12 1v21h-13-9-24v25 12h33 12v23h-12-33v28h33 13v23h-13-40-20v-54-5-73z m-534 66c0 19-7 35-19 47 0 0 0 0 0 0-1 1-2 1-2 2 0 0 0 0 0 0-2 2-5 4-8 6 0 0 0 0 0 0-1 1-2 1-3 2 0 0 0 0 0 0-1 1-2 1-3 1 0 0 0 0 0 0-1 0-2 1-3 1 0 0 0 0 0 0-1 0-2 1-3 1 0 0 0 0 0 0-1 0-2 1-3 1 0 0 0 0 0 0-1 0-2 1-3 1 0 0 0 0-1 0-1 0-2 0-3 1 0 0 0 0-1 0-1 0-2 0-3 1 0 0-1 0-1 0-1 0-2 0-3 0 0 0-1 0-1 0-1 0-2 0-3 0 0 0-1 0-1 0-1 0-2 0-3 0 0 0-1 0-1 0-1 0-3 0-4 0h-36v-131h37c20 0 35 5 47 15 15 13 24 32 24 52z m38-11l0 0 0 77h-3-23v-7-116-8h13 13l0 53v1z m102-17c0 18-5 28-22 37 0 0 0 0 0 0-1 1-2 1-3 2 0 0 0 0 0 0-1 1-2 1-4 2 0 0 0 0 0 0-1 0-2 1-4 1 0 0 0 0-1 0-1 0-2 1-4 1-16 5-20 9-20 16 0 8 8 15 19 15 8 0 15-3 21-11l2 3 11 15c-3 3-7 5-10 7 0 0 0 0 0 0-1 1-3 1-4 2 0 0 0 0 0 0-1 1-3 1-4 2 0 0 0 0 0 0-1 0-3 1-4 1 0 0 0 0-1 0-1 0-3 1-4 1 0 0 0 0-1 0-1 0-3 0-4 1 0 0 0 0 0 0-2 0-3 0-5 0-1 0-3 0-4 0-1 0-1 0-2 0-1 0-1 0-2 0-1 0-2 0-2-1 0 0-1 0-1 0-1 0-2-1-3-1 0 0-1 0-1 0-1 0-2-1-3-1 0 0 0 0 0 0-1 0-2-1-3-2 0 0 0 0 0 0-12-6-19-18-19-32 0-13 4-21 15-28 0 0 1 0 1-1-2-1-1-1-1-1 0 0 1 0 1-1 0 0 1 0 1-1 1 0 1-1 2-1 0 0 1 0 1-1 1 0 2-1 3-1 0 0 1 0 1 0 1-1 2-1 4-2 11-4 15-5 17-8 5-3 8-8 8-13 0-11-8-19-20-19-1 0-2 0-3 0 0 0 0 0-1 0-1 0-2 0-3 1 0 0 0 0 0 0-1 0-2 0-3 1 0 0 0 0 0 0-1 0-2 1-3 1 0 0 0 0 0 0-2 1-4 2-6 3 0 0 0 0 0 0-2 1-3 3-5 5-2 2-3 4-4 6l-16-16c6-9 13-15 20-19 0 0 0 0 0 0 1-1 2-1 3-1 0 0 0 0 0 0 5-2 10-4 15-4 0 0 0 0 0 0 1 0 2 0 3 0 0 0 0 0 0 0 1 0 2 0 3 0 1 0 3 0 4 0 0 0 1 0 1 0 1 0 3 0 4 1 0 0 1 0 1 0 1 0 2 0 3 1 0 0 0 0 1 0 1 0 2 1 4 1 0 0 1 0 1 0 1 0 2 1 3 1 0 0 1 0 1 0 1 0 2 1 2 1 0 0 1 0 1 1 1 1 2 1 3 2 0 0 1 1 1 1 1 0 1 1 2 1 0 0 1 1 1 1 1 1 1 1 2 2 0 0 1 1 1 1 1 1 1 2 2 2 8 8 11 16 11 26z m111-30l-1 28c0 0 0 0 0 0v0c0 0 0 0 0 0l0 1c-3-3-7-6-11-8-1-1-2-1-2-1 0 0 0 0 0 0-2-1-3-2-5-2 0 0 0 0 0 0-1 0-1-1-2-1 0 0 0 0 0 0-2 0-3-1-5-1 0 0 0 0-1 0-1 0-1 0-2 0 0 0 0 0-1 0-1 0-2 0-2 0-25 0-44 19-44 45 0 13 5 24 13 34 8 7 17 12 28 12 1 0 2 0 3 0 0 0 0 0 1 0 1 0 2 0 2 0 0 0 0 0 0 0 1 0 2 0 3 0 0 0 0 0 0 0 1 0 2 0 2-1 0 0 0 0 0 0 2-1 3-1 5-2 0 0 0 0 0 0 2-1 3-2 5-3 3-2 6-5 9-8v25 6c-11 5-20 8-32 8-17-1-33-8-45-19-1-1-2-2-3-3 0 0 0 0 0 0-1-1-2-2-3-3 0 0 0 0 0 0-1-2-3-3-4-5-4-6-8-12-10-19l0 0c0 0 0 0 0 0-2-7-4-14-4-22 0-27 14-49 36-60 0 0 0 0 0 0 1 0 2-1 3-1 0 0 0 0 0 0 1 0 2-1 3-1 0 0 0 0 0 0 1 0 2-1 3-1 0 0 0 0 0 0 1 0 2-1 3-1 0 0 0 0 1 0 1 0 2 0 3-1 0 0 0 0 1 0 1 0 2 0 3-1 0 0 1 0 1 0 1 0 2 0 2 0 0 0 1 0 1 0 1 0 2 0 2 0 0 0 1 0 1 0 1 0 2 0 3 0 0 0 1 0 1 0 1 0 2 0 4 0 0 0 0 0 1 0 0 0 1 0 1 0 11 0 20 3 32 8h0v-3z m-19 58c0 2 0 4 0 7-2 1-3 2-5 4-6 6-7 6-10 6-2 0-3 0-4-1 0 0 0 0 0 0-5-6-6-10-6-13 0-5 2-14 13-15 1 0 3 1 8 6 1 1 3 3 4 4 0-1 0 1 0 2z m170 0c0 0 0 0 0 0 0 18-7 36-20 50-5 5-10 9-16 12 0 0 0 0 0 0 0 0 0 0 0 0-3 1-5 3-8 4 0 0 0 0 0 0-1 0-2 1-4 1 0 0 0 0-1 0-1 0-2 1-3 1 0 0 0 0 0 0-3 1-5 1-8 1 0 0-1 0-1 0-1 0-2 0-3 0 0 0-1 0-1 0-1 0-2 0-3 0 0 0-1 0-1 0 0 0 0 0 0 0 0 0 0 0 0 0-1 0-3 0-4 0 0 0-1 0-1 0-1 0-2 0-2 0 0 0-1 0-1 0-1 0-2 0-2 0 0 0-1 0-1 0-1 0-1 0-2 0 0 0-1 0-1 0-1 0-1 0-2-1 0 0-1 0-1 0-1 0-1 0-2-1 0 0-1 0-1 0-1 0-1-1-2-1 0 0-1 0-1 0-1 0-1-1-2-1 0 0-1 0-1 0-1 0-2-1-2-1 0 0-1 0-1 0-1 0-2-1-2-1 0 0 0 0-1 0-1-1-2-1-3-2 0 0 0 0 0 0-5-3-9-7-13-12l0 0c-10-11-16-26-17-42 0 0 0 0 0 0 0-1 0-3 0-4 0 0 0-1 0-1 0-18 7-34 19-47 0 0 0 0 0 0 1-1 2-2 2-2 0 0 0 0 0 0 1-1 2-2 2-2 0 0 0 0 0 0 1-1 2-1 2-2 0 0 0 0 0 0 1-1 2-1 2-2 0 0 0 0 0 0 1-1 2-1 2-2 0 0 0 0 0 0 1-1 2-1 2-1 0 0 0 0 1 0 1 0 2-1 2-1 0 0 0 0 1 0 1 0 2-1 2-1 0 0 1 0 1 0 1 0 2-1 2-1 0 0 1 0 1 0 1 0 2-1 2-1 0 0 1 0 1 0 1 0 2 0 2-1 0 0 1 0 1 0 1 0 2 0 2-1 0 0 1 0 1 0 1 0 2 0 2 0 0 0 1 0 1 0 1 0 2 0 2 0 0 0 1 0 1 0 1 0 2 0 3 0 0 0 1 0 1 0 1 0 2 0 4 0 1 0 2 0 3 0 0 0 1 0 1 0 1 0 2 0 2 0 0 0 1 0 1 0 1 0 1 0 2 0 0 0 1 0 1 0 1 0 2 0 3 0 0 0 0 0 0 0 1 0 2 0 3 1 0 0 1 0 1 0 1 0 1 0 2 1 0 0 1 0 1 0 1 0 1 0 2 1 0 0 1 0 1 0 1 0 1 1 2 1 0 0 1 0 1 0 1 0 2 1 3 1 0 0 1 0 1 1 1 0 1 1 2 1 0 0 1 0 1 1 0 0 1 1 1 1 0 0 1 0 1 1 0 0 1 1 1 1 0 0 1 1 1 1 1 1 1 1 2 2 0 0 1 1 1 1 0 0 1 1 1 1 0 0 1 1 1 1 0 0 1 1 1 1 0 0 1 1 1 1 0 0 1 0 1 1 2 2 3 3 5 5 0 0 0 0 0 1 0 1 1 1 1 2 0 0 0 0 1 1 0 1 1 1 1 2 0 0 0 0 0 1 1 2 3 4 4 6 0 0 0 0 0 0 0 1 1 1 1 2 0 0 0 0 0 1 0 1 1 1 1 2 0 0 0 0 0 0 1 2 2 5 3 7 0 0 0 0 0 0 7-3 8 4 8 12z m122 66h-20-8l-6-14-30-74-35 88h-16-12l54-136h15l58 136z" horiz-adv-x="1000" />

<glyph glyph-name="discover-2" unicode="&#xe87d;" d="M745 440h-77v139h77v-24h-50v-31h48v-23h-48v-37h50v-24z m45 0h-27v139h40c31 0 49-15 49-41 0-21-11-35-32-39l44-58h-33l-37 56h-4v-57z m0 75h8c17 0 26 7 26 21 0 13-9 21-26 21h-8l0-42z m63 56c0 6 5 11 11 11 6 0 10-5 10-11 0-6-5-11-10-11-6 0-11 5-11 11z m2 0c0-5 4-9 8-9 5 0 8 4 8 9 0 5-4 9-8 9-4 0-8-4-8-9z m7-6h-3v12h4c3 0 5-1 5-4 0-2-1-3-3-3l4-5h-4l-3 5v-5z m0 7l0 0c2 0 3 1 3 2 0 1-1 2-2 2h-1v-4z m-735-132h27v139h-27v-139z m93 86c-16 6-21 10-21 17 0 9 9 15 20 15 8 0 15-3 22-11l14 19c-12 10-26 15-41 15-25 0-43-17-43-40 0-19 9-29 34-38 11-4 16-6 19-8 5-4 8-9 8-14 0-11-9-20-21-20-13 0-23 6-29 18l-17-17c12-18 27-26 48-26 28 0 48 19 48 46-2 23-11 33-41 44z m44-409h736v265c0 0-260-183-736-265z m-150 393c0-20-9-40-25-53-13-12-29-17-50-17h-39v139h40c43 0 74-29 74-69z m-28 0c0 13-6 26-15 34-9 8-20 11-37 11h-7v-92h7c17 0 28 3 37 11 10 9 15 22 15 36z m510-73l60 142h-29l-37-93-37 93h-30l59-142h14z m-139-2c33 0 61 22 70 52 0 1 1 3 1 4 0 1 1 2 1 3 1 5 2 10 2 15 0 41-33 74-74 74-31 0-57-19-68-45-4-9-6-19-6-29 1-41 34-74 74-74z m-116 2c12 0 22 2 34 8v32c-11-11-20-15-33-15-27 0-47 20-47 48 0 27 20 48 45 48 13 0 23-5 34-16v32c-12 6-22 9-33 9-41 0-74-32-74-73 1-41 33-73 74-73z" horiz-adv-x="1000" />

<glyph glyph-name="discover-3" unicode="&#xe87e;" d="M866 422c4 0 7 3 7 7 0 4-3 7-7 7-4 0-7-3-7-7 0-4 4-7 7-7z m-3 12h3c3 0 4-1 4-3 0-1-1-2-2-3l3-4h-3l-3 4v-4h-2v10z m3-4l0 0 0 3h0c1 0 2 0 2-1-1-2-1-2-2-2z m108 244h-948c-14 0-26-12-26-26v-597c0-14 12-26 26-26h949c14 0 26 12 26 26v597c-1 15-13 26-27 26z m-107-236c5 0 9-4 9-9 0-5-4-9-9-9-5 0-9 4-9 9-1 5 3 9 9 9z m-86-2h34c27 0 42-13 42-35 0-18-10-30-27-33l37-50h-28l-32 47h-3v-47h-23 0v118z m-81 0h65v-20h-42v-26h41v-20h-41v-32h42v-20h-65v118z m-98 0l0 0 31-79 32 79h25l-51-121h-12l-50 121h25z m-138-35c9 22 32 38 58 38 35 0 63-28 63-63 0-4 0-9-1-13 0-1 0-2-1-3 0-1-1-2-1-3-8-25-32-44-60-44-35 0-63 28-63 63 0 9 2 18 5 25z m-41 38c10 0 18-2 28-7v-27c-10 9-18 13-29 13-22 0-38-18-38-40 0-24 16-41 39-41 10 0 19 4 28 13v-27c-10-5-19-7-29-7-35 0-62 27-62 61 1 34 28 62 63 62z m-214-107c-11-9-24-14-42-14h-34v118h34c37 0 63-24 63-59 0-17-8-34-21-45z m54-14h-23v118h23v-118z m50-3c-17 0-30 7-41 22l15 14c5-10 14-16 25-16 10 0 18 7 18 17 0 5-2 9-7 12-2 1-7 4-16 7-22 8-29 16-29 32 0 19 16 34 37 34 13 0 25-4 35-13l-12-16c-6 7-12 10-19 10-10 0-17-6-17-13 0-6 4-10 18-15 26-10 34-18 34-37-1-22-17-38-41-38z m669-271h-624c404 70 624 225 624 225v-225z m-788 362c8-7 13-18 13-29 0-11-5-23-13-30-7-6-17-9-31-9h-6v78h6c14 0 23-3 31-10z m616-24h-7v36h7c14 0 22-6 22-17 1-13-7-19-22-19z" horiz-adv-x="1000" />

<glyph glyph-name="email-1" unicode="&#xe87f;" d="M959 672h-918c-23 0-41-19-41-42v-560c0-23 18-41 41-41h918c23 0 41 18 41 41v560c0 23-18 42-41 42z m-918-33h918c4 0 7-3 8-6l-467-292-467 292c1 4 4 6 8 6z m-9-43l336-210-336-266v476z m936-526c0-5-4-9-9-9h-918c-5 0-9 4-9 9v9l365 289 94-59c5-3 12-3 17 0l94 59 365-289v-9z m0 50l-337 265 337 209v-474z" horiz-adv-x="1000" />

<glyph glyph-name="email-2" unicode="&#xe880;" d="M624 315l353-303c-13-12-30-19-49-19h-856c-19 0-37 7-49 19l354 303 123-108 124 108z m353 373c-13 12-30 19-49 19h-856c-19 0-36-7-49-20l477-408 477 409z m-977-44v-593l345 293-345 300z m655-300l345-293v594l-345-301z" horiz-adv-x="1000" />

<glyph glyph-name="email-3" unicode="&#xe881;" d="M0 681v-663h1000v663h-1000z m910-49l-410-360-410 360h820z m-861-29l288-253-288-252v505z m41-535l284 250 126-111 126 111 284-250h-820z m861 30l-288 252 287 252v-504z" horiz-adv-x="1000" />

<glyph glyph-name="arrow-down-1" unicode="&#xe882;" d="M950 542l-428-429c-6-6-15-10-23-10-9 0-17 3-23 10l-428 429c-13 13-13 33 0 46s33 13 46 0l406-406 405 406c13 13 33 13 46 0s13-34-1-46z" horiz-adv-x="1000" />

<glyph glyph-name="logout-1" unicode="&#xe883;" d="M1000 739v-778c0-61-50-111-111-111h-778c-61 0-111 50-111 111v222h111v-222h778v778h-778v-222h-111v222c0 61 50 111 111 111h778c61 0 111-50 111-111z m-606-588l79-79 277 278-278 278-79-79 144-144h-537v-111h537l-143-143z" horiz-adv-x="1000" />

<glyph glyph-name="account-info" unicode="&#xe884;" d="M500 850c-275 0-500-225-500-500s225-500 500-500 500 225 500 500-225 500-500 500z m0-150c85 0 150-65 150-150s-65-150-150-150-150 65-150 150 65 150 150 150z m0-710c-125 0-235 65-300 160 0 100 200 155 300 155s300-55 300-155c-65-95-175-160-300-160z" horiz-adv-x="1000" />

<glyph glyph-name="calendar" unicode="&#xe885;" d="M912 662c-13 13-29 20-47 20h-66v50c0 23-8 42-24 59-16 16-36 24-59 24h-33c-23 0-42-8-59-24-16-17-24-36-24-59v-50h-200v50c0 23-8 42-24 59-16 16-36 24-59 24h-33c-23 0-42-8-59-24-16-16-24-36-24-59v-50h-66c-18 0-34-7-47-20-13-13-20-29-20-47v-664c0-18 7-34 20-47 13-13 29-20 47-20h731c18 0 34 7 47 20 13 13 20 29 20 47v665c-1 18-8 33-21 46z m-246 70c0 5 2 9 5 12 3 3 7 5 12 5h33c5 0 9-2 12-5 3-3 5-7 5-12v-149c0-5-2-9-5-12-3-3-7-5-12-5h-33c-5 0-9 2-12 5-3 3-5 7-5 12v149z m-399 0c0 5 2 9 5 12 3 3 7 5 12 5h33c5 0 9-2 12-5 3-3 5-7 5-12v-149c0-5-2-9-5-12-3-3-7-5-12-5h-33c-5 0-9 2-12 5-3 3-5 7-5 12v149z m598-781h-730v532h731v-532z" horiz-adv-x="1000" />

<glyph glyph-name="chat" unicode="&#xe886;" d="M251 226h469v-143h-518l-127-137v137h-75v482h224v-312-27h27z m0 528v-189-312h469 70l132-142v142h78v501h-749z" horiz-adv-x="1000" />

<glyph glyph-name="chat-2" unicode="&#xe887;" d="M640 240c3 0 7 0 10 1v-91c0-55-45-100-100-100h-250l-150-150v150h-50c-55 0-100 45-100 100v300c0 55 45 100 100 100h190v-310h350z m260 560h-450c-55 0-100-45-100-100v-400h350l150-150v150h50c55 0 100 45 100 100v300c0 55-45 100-100 100z" horiz-adv-x="1000" />

<glyph glyph-name="edit" unicode="&#xe888;" d="M750 379l125 125v-654h-875v875h654l-125-125h-404v-625h625v404z m-440-87l-44-177 176 45 442 442-132 132-442-442z m663 531c-37 37-96 37-133 0l-44-44 133-133 44 44c36 37 36 96 0 133z" horiz-adv-x="1000" />

<glyph glyph-name="info" unicode="&#xe889;" d="M500 850c-276 0-500-224-500-500 0-276 224-500 500-500s500 224 500 500c0 276-224 500-500 500z m38-788c0-21-17-38-38-38s-38 17-38 38v38c0 21 17 38 38 38s38-17 38-38v-38z m56 316c-34-22-55-63-55-108v-55c0-21-17-38-38-38s-38 17-38 38v55c0 71 34 136 90 172 28 18 45 49 44 82-1 51-44 94-95 95-26 1-50-9-69-28-18-18-29-43-29-68 0-21-17-38-38-38-21 0-38 17-38 38 0 47 18 90 52 123 33 32 76 50 121 50 1 0 2 0 3 0 93-1 169-78 171-171-1-60-31-115-81-147z" horiz-adv-x="1000" />

<glyph glyph-name="listings" unicode="&#xe88a;" d="M1000 610v-66c0-7-6-13-13-13h-974c-7 0-13 6-13 13v66c0 7 6 13 13 13h975c7 0 12-6 12-13z m-13-215h-974c-7 0-13-6-13-13v-66c0-7 5-13 13-13h975c7 0 13 6 13 13v66c-1 8-6 13-14 13z m0-227h-974c-7 0-13-6-13-13v-65c0-7 5-13 13-13h975c7 0 13 6 13 13v66c-1 6-6 12-14 12z" horiz-adv-x="1000" />

<glyph glyph-name="man" unicode="&#xe88b;" d="M500 850c-276 0-500-224-500-500s224-500 500-500c276 0 500 224 500 500s-224 500-500 500z m-137-405l1 1c4 3 6 8 5 12-10 61-3 86-1 92 18 54 73 79 84 83 2 1 7 2 11 3l1 0 9 0 0-1 2 0c2 0 4 0 6 1l2 0c2 0 23-3 55-13l22-8c41-12 59-34 63-39 33-37 24-92 16-122-1-4 0-7 2-10l2-2c2-3 4-16-3-42-1-8-4-14-9-19-2-2-3-4-3-7-11-64-69-137-130-137-52 0-111 66-121 136 0 3-1 5-3 7-4 5-7 11-9 21-5 23-6 38-2 44z m137-574c-110 0-217 38-302 107 5 50 17 140 49 188 2 3 15 17 40 27 23 7 77 25 107 47 1 1 3 2 4 3 3 3 7 8 12 12l3 3 3-3c26-25 56-39 82-39 28 0 57 12 84 35l2 2 6-3c5-5 14-11 18-13l5-3-1-1 2-1c5-3 10-6 17-9 6-3 12-5 17-7 5-2 29-10 57-23l5-2c27-11 40-25 41-27 33-48 45-138 50-189-84-66-191-104-301-104z" horiz-adv-x="1000" />

<glyph glyph-name="photo-camera" unicode="&#xe88c;" d="M961 611c-26 26-57 39-94 39h-117l-27 71c-7 17-19 32-36 44-18 12-36 18-54 18h-266c-18 0-36-6-54-18-18-12-30-27-36-44l-27-71h-117c-37 0-68-13-94-39-26-26-39-58-39-94v-467c0-37 13-68 39-94 26-26 57-39 94-39h733c37 0 68 13 94 39 26 26 39 57 39 94v467c1 36-12 68-38 94z m-296-493c-46-45-101-68-165-68-64 0-119 23-165 68-46 46-68 101-68 165 0 64 23 119 68 165 46 46 101 68 165 68 64 0 119-23 165-68 46-46 68-101 68-165 0-64-22-119-68-165z m-59 271c29-29 44-64 44-106 0-41-15-77-44-106-29-29-65-44-106-44-41 0-77 15-106 44-29 29-44 65-44 106 0 41 15 77 44 106 29 29 65 44 106 44 41 0 77-14 106-44z" horiz-adv-x="1000" />

<glyph glyph-name="users-group" unicode="&#xe88d;" d="M695 47c0-29 0-137 0-137h-695v182c0 47 54 66 84 79 99 41 131 76 131 151 0 45-30 30-43 112-6 34-32 1-37 78 0 31 15 39 15 39s-7 46-10 81c-5 44 20 158 158 158 137 0 163-114 159-158-3-35-10-81-10-81s15-8 15-39c-5-78-32-44-37-78-13-82-43-67-43-112 0-75 32-110 131-151 97-41 182-82 182-124z m305-137c0 0-2 189-14 209-17 29-57 49-132 80-74 31-98 57-98 113 0 34 23 23 33 84 4 26 24 0 28 59 0 23-11 29-11 29s6 34 8 61c3 33-17 118-120 118-103 0-122-85-120-118 2-26 8-61 8-61s-11-6-11-29c4-58 24-33 28-59 10-62 33-51 33-84 0-38-11-62-41-84 162-81 184-98 184-170v-148h225z" horiz-adv-x="1000" />

<glyph glyph-name="filter-1" unicode="&#xe88e;" d="M944 736l-320-320v-481c0-18-8-31-25-38-6-2-11-3-16-3-12 0-21 4-29 12l-166 166c-8 8-12 18-12 29v315l-320 320c-13 13-16 28-9 45 7 17 20 25 38 25h830c18 0 31-8 38-25 8-18 5-33-9-45z" horiz-adv-x="1000" />

<glyph glyph-name="filter-2" unicode="&#xe88f;" d="M909 779c-4 7-12 12-20 12h-778c-8 0-16-5-20-12-4-7-4-16 1-23l272-416v-271c0-8 4-15 11-20l227-137c7-4 16-4 23 0s12 12 12 20v408l271 416c5 7 5 16 1 23z m-315-420c-2-4-4-8-4-13v-375l-180 111v265c0 4-1 9-4 13l-253 386h694l-253-387z" horiz-adv-x="1000" />

<glyph glyph-name="filter-3" unicode="&#xe890;" d="M997 793c-5 11-16 17-27 17h-940c-12 0-22-7-27-17-5-10-4-23 4-32l361-438v-404c0-10 5-20 14-26 5-3 10-5 16-5 5 0 9 1 13 3l203 101c10 5 17 16 17 27l0 303 362 439c8 9 9 22 4 32z m-419-440c-4-5-7-12-7-19l0-295-142-71v366c0 7-2 14-7 19l-327 397h811l-328-397z" horiz-adv-x="1000" />

<glyph glyph-name="filter-4" unicode="&#xe891;" d="M103 721h804v-124l-309-309v-433l-186 124v309l-309 309v124z m0 124v-62h804v62h-804z" horiz-adv-x="1000" />

<glyph glyph-name="filter-5" unicode="&#xe892;" d="M652 609c0 12 10 22 22 22h33c12 0 22-10 22-22 0-12-10-22-22-22h-33c-12 0-22 10-22 22z m339 126l-382-481v-214c0-21-10-40-27-53l-121-84c-8-5-16-8-25-8-8 0-14 2-21 5-14 8-23 22-23 38v315l-383 482c-10 13-12 30-4 46 8 14 23 24 39 24h913c16 0 32-9 39-24 7-15 5-33-5-46z m-35 26h-912l104-130c1 0 3 0 4 0h424c12 0 22-10 22-22 0-12-10-22-22-22h-394l246-309c5-3 9-10 9-17v-323l121 84c5 4 9 11 9 18v221c0 5 2 10 4 13l385 487z" horiz-adv-x="1000" />

<glyph glyph-name="close-1" unicode="&#xe893;" d="M674 243c10-10 14-22 13-35 0-11-5-23-13-31-9-9-20-13-31-13-13 0-25 4-35 13l-108 107-107-108c-10-10-22-14-35-13-11 0-23 5-31 13-9 9-13 20-13 31 0 13 4 25 13 35l107 108-108 107c-10 10-14 22-13 35 0 11 5 23 13 31 9 9 20 13 31 13 13 0 25-4 35-13l108-107 107 107c10 10 22 14 35 13 11 0 23-5 31-13 9-9 13-20 13-31 1-13-4-25-13-35l-107-107 108-107z m326 107c0-276-224-500-500-500s-500 224-500 500 224 500 500 500 500-224 500-500z m-94 0c0 224-182 406-406 406s-406-182-406-406 182-406 406-406 406 182 406 406z" horiz-adv-x="1000" />

<glyph glyph-name="close-2" unicode="&#xe894;" d="M500 850c-276 0-500-224-500-500s224-500 500-500 500 224 500 500-224 500-500 500z m0-958c-253 0-458 205-458 458s205 458 458 458 458-205 458-458-205-458-458-458z m202 285c8-8 8-21 0-29-4-4-9-6-15-6s-11 2-15 6l-172 173-173-173c-4-4-9-6-15-6s-11 2-15 6c-8 8-8 21 0 29l174 173-173 173c-8 8-8 21 0 29 8 8 21 8 29 0l173-173 173 173c8 8 21 8 29 0 8-8 8-21 0-29l-173-173 173-173z" horiz-adv-x="1000" />

<glyph glyph-name="close-3" unicode="&#xe895;" d="M557 349l84-84-56-56-84 84-84-84-56 56 84 84-84 84 56 56 84-84 84 84 56-56-84-84z m382 1c0-242-197-439-439-439-242 0-439 197-439 439 0 242 197 439 439 439 242 0 439-197 439-439z m-80 0c0 198-161 359-359 359-198 0-359-161-359-359 0-198 161-359 359-359 198 0 359 161 359 359z" horiz-adv-x="1000" />

<glyph glyph-name="close-4" unicode="&#xe896;" d="M500 850c-276 0-500-224-500-500s224-500 500-500c276 0 500 224 500 500s-224 500-500 500z m183-566c18-18 18-47 0-64l-53-53c-9-9-21-13-32-13-12 0-23 4-32 13l-66 66-66-66c-9-9-21-13-32-13-12 0-23 4-32 13l-53 53c-18 18-18 47 0 64l66 66-66 66c-18 18-18 47 0 64l52 53c18 18 47 18 64 0l66-66 66 66c18 18 47 18 64 0l53-53c18-18 18-47 0-64l-65-66 66-66z" horiz-adv-x="1000" />

<glyph glyph-name="close-5" unicode="&#xe897;" d="M941 20c30-30 30-80 0-110-30-30-80-30-110 0l-331 330-330-330c-30-30-80-30-110 0-30 30-30 80 0 110l330 330-330 330c-30 30-30 80 0 110 30 30 80 30 110 0l330-330 330 330c30 30 80 30 110 0 30-30 30-80 0-110l-330-330 331-330z" horiz-adv-x="1000" />

<glyph glyph-name="close-6" unicode="&#xe898;" d="M589 350l356-356-89-89-356 356-356-356-89 89 356 356-356 356 89 89 356-356 356 356 89-89-356-356z" horiz-adv-x="1000" />

<glyph glyph-name="account" unicode="&#xe899;" d="M1000-25v-125h-1000v125c0 169 331 250 500 250s500-81 500-250z m-500 375c138 0 250 113 250 250s-112 250-250 250-250-113-250-250 113-250 250-250z" horiz-adv-x="1000" />

<glyph glyph-name="user-4" unicode="&#xe89a;" d="M1000 77v-91h-727v91c0 123 241 182 364 182 122 0 363-59 363-182z m-364 273c100 0 182 82 182 182s-82 182-182 182-182-82-182-182 82-182 182-182z m-272 91h-137v136h-91v-136h-136v-91h136v-136h91v136h136v91z" horiz-adv-x="1000" />

<glyph glyph-name="checkout" unicode="&#xe89b;" d="M60 363l240-240-60-60-240 240 60 60z m695 214l-60 60-270-270 60-60 270 270z m181 61l-451-455-180 180-60-60 240-240 515 514-64 61z" horiz-adv-x="1000" />

<glyph glyph-name="comment" unicode="&#xe89c;" d="M900 850h-800c-55 0-100-45-100-100v-900l200 200h700c55 0 100 45 100 100v600c0 55-45 100-100 100z m-100-600h-600v100h600v-100z m0 150h-600v100h600v-100z m0 150h-600v100h600v-100z" horiz-adv-x="1000" />

<glyph glyph-name="quotes" unicode="&#xe89d;" d="M447 784v-92c-256 0-384-382-192-382 106 0 192-88 192-197 0-109-86-197-192-197-443 0-264 868 192 868z m553-92v92c-456 0-635-868-192-868 106 0 192 88 192 197 0 109-86 197-192 197-192 1-64 382 192 382z" horiz-adv-x="1000" />

<glyph glyph-name="shopping-bag" unicode="&#xe89e;" d="M306 461v148c0 108 88 195 195 195 108 0 195-88 195-195v-148c0-21-17-38-38-38-21 0-38 17-38 38v148c0 66-54 120-120 120-66 0-120-54-120-120v-148c0-21-17-38-38-38-19 0-36 17-36 38z m629 47h-201v-47c0-42-34-76-76-76-42 0-76 34-76 76v47h-163v-47c0-42-34-76-76-76s-76 34-76 76v47h-202c-10 0-17-8-14-18l132-539c8-30 40-55 71-55h492c31 0 63 25 71 55l132 539c3 10-3 18-14 18z" horiz-adv-x="1000" />

<glyph glyph-name="sign-in" unicode="&#xe89f;" d="M794 409h-59v177c1 130-105 235-235 235-130 0-236-105-236-236v-177h-59c-32 0-59-27-59-59v-412c0-32 27-59 59-59h589c32 0 59 27 59 59v413c0 32-26 59-59 59z m-294-353c-33 0-59 26-59 59 0 33 26 59 59 59 33 0 59-26 59-59 0-33-26-59-59-59z m118 353l0 0h-236v177c0 65 53 118 118 118 65 0 118-53 118-118v-177z" horiz-adv-x="1000" />

<glyph glyph-name="clock" unicode="&#xe8a0;" d="M500 800c-247 0-450-203-450-450s203-450 450-450 450 203 450 450-202 450-450 450z m0-810c-198 0-360 162-360 360s162 360 360 360 360-162 360-360-162-360-360-360z m23 351l202-121-36-59-234 144v270h68v-234z" horiz-adv-x="1000" />

<glyph glyph-name="email-7" unicode="&#xe8a1;" d="M871 721h-742c-51 0-93-42-93-93v-556c0-51 42-93 93-93h741c51 0 93 42 93 93v556c0 51-41 93-92 93z m0-186l-371-231-371 231v93l371-232 371 232v-93z" horiz-adv-x="1000" />

</font>
</defs>
</svg>
