<?xml version="1.0" encoding="UTF-8"?><svg id="Capa_1" xmlns="http://www.w3.org/2000/svg" xmlns:xlink="http://www.w3.org/1999/xlink" viewBox="0 0 500 500"><defs><style>.cls-1,.cls-2,.cls-3{fill:none;}.cls-4{fill:url(#USGS_20_Scrub-6);}.cls-4,.cls-5,.cls-6,.cls-7,.cls-8{stroke-width:.73px;}.cls-4,.cls-5,.cls-6,.cls-7,.cls-8,.cls-2,.cls-3,.cls-9{stroke:#000;}.cls-4,.cls-5,.cls-6,.cls-7,.cls-8,.cls-2,.cls-9{stroke-miterlimit:10;}.cls-5{fill:url(#USGS_20_Scrub-4);}.cls-6{fill:url(#USGS_20_Scrub-5);}.cls-7{fill:url(#USGS_20_Scrub-2);}.cls-8{fill:url(#USGS_20_Scrub-3);}.cls-2{stroke-width:3.95px;}.cls-10{fill:#fff;}.cls-11{fill:#221e1f;}.cls-3{stroke-linejoin:round;stroke-width:.77px;}.cls-9{fill:url(#USGS_20_Scrub);stroke-width:3.86px;}</style><pattern id="USGS_20_Scrub" x="0" y="0" width="72" height="72" patternTransform="translate(-1736.32 -7796.32) scale(.61)" patternUnits="userSpaceOnUse" viewBox="0 0 72 72"><rect class="cls-1" x="0" width="72" height="72"/><path class="cls-11" d="m17,74.55c-.34,0-.68-.14-.92-.38-.24-.24-.38-.58-.38-.92s.14-.68.38-.92c.48-.48,1.36-.48,1.84,0,.24.24.38.58.38.92s-.14.68-.38.92c-.24.24-.57.38-.92.38Z"/><path class="cls-11" d="m27.75,74.55c-.34,0-.67-.14-.92-.38-.24-.25-.38-.58-.38-.92s.14-.67.38-.92c.49-.48,1.35-.48,1.84,0,.24.24.38.58.38.92s-.14.68-.38.92c-.24.24-.58.38-.92.38Z"/><path class="cls-11" d="m23.25,7.05c-.34,0-.67-.14-.92-.38-.24-.24-.38-.58-.38-.92s.14-.68.38-.92c.49-.48,1.36-.48,1.84,0,.24.24.38.58.38.92s-.14.67-.38.92c-.24.24-.58.38-.92.38Z"/><path class="cls-11" d="m14.5,9.05c-.34,0-.68-.14-.92-.38-.24-.24-.38-.58-.38-.92s.14-.68.38-.92c.49-.48,1.36-.48,1.84,0,.24.25.38.58.38.92s-.14.68-.38.92c-.24.24-.57.38-.92.38Z"/><path class="cls-11" d="m14.75,4.8c-.34,0-.67-.14-.92-.38-.24-.24-.38-.58-.38-.92s.14-.68.38-.92c.49-.49,1.36-.48,1.84,0,.24.25.38.58.38.92s-.14.68-.38.92c-.24.24-.58.38-.92.38Z"/><path class="cls-11" d="m17.75,8.8c-.34,0-.68-.14-.92-.38-.24-.24-.38-.58-.38-.92s.14-.68.38-.92c.49-.48,1.36-.48,1.84,0,.24.24.38.58.38.92s-.14.68-.38.92c-.24.24-.58.38-.92.38Z"/><path class="cls-11" d="m20,5.3c-.34,0-.67-.14-.92-.38-.24-.24-.38-.58-.38-.92s.14-.68.38-.92c.49-.48,1.36-.48,1.84,0,.24.24.38.58.38.92s-.14.68-.38.92c-.24.24-.58.38-.92.38Z"/><path class="cls-11" d="m29,6.3c-.34,0-.67-.14-.92-.38-.24-.24-.38-.58-.38-.92s.14-.68.38-.92c.49-.48,1.36-.48,1.84,0,.24.24.38.58.38.92s-.14.68-.38.92c-.24.24-.58.38-.92.38Z"/><path class="cls-11" d="m25,4.55c-.34,0-.67-.14-.92-.38-.24-.24-.38-.58-.38-.92s.14-.68.38-.92c.48-.48,1.36-.49,1.84,0,.24.24.38.58.38.92s-.14.68-.38.92c-.24.24-.58.38-.92.38Z"/><path class="cls-11" d="m17,2.55c-.34,0-.68-.14-.92-.38-.24-.24-.38-.58-.38-.92s.14-.68.38-.92c.48-.48,1.36-.48,1.84,0,.24.24.38.58.38.92s-.14.68-.38.92c-.24.24-.57.38-.92.38Z"/><path class="cls-11" d="m27.75,2.55c-.34,0-.67-.14-.92-.38-.24-.25-.38-.58-.38-.92s.14-.67.38-.92c.49-.48,1.35-.48,1.84,0,.24.24.38.58.38.92s-.14.68-.38.92c-.24.24-.58.38-.92.38Z"/><path class="cls-11" d="m31.75,3.55c-.34,0-.67-.14-.92-.38-.24-.24-.38-.58-.38-.92s.14-.68.38-.92c.49-.48,1.36-.48,1.84,0,.24.24.38.58.38.92s-.14.68-.38.92c-.24.24-.58.38-.92.38Z"/><path class="cls-11" d="m29,6.3c-.34,0-.67-.14-.92-.38-.24-.24-.38-.58-.38-.92s.14-.68.38-.92c.49-.48,1.36-.48,1.84,0,.24.24.38.58.38.92s-.14.68-.38.92c-.24.24-.58.38-.92.38Z"/><path class="cls-11" d="m28.25,9.05c-.34,0-.68-.14-.92-.38-.24-.24-.38-.58-.38-.92s.14-.68.38-.92c.49-.48,1.35-.49,1.84,0,.24.24.38.58.38.92s-.14.68-.38.92c-.24.24-.58.38-.92.38Z"/><path class="cls-11" d="m26.25,12.05c-.34,0-.67-.14-.92-.38-.24-.25-.38-.58-.38-.92s.14-.67.38-.92c.49-.48,1.36-.48,1.84,0,.24.25.38.58.38.92s-.14.67-.38.92c-.24.24-.58.38-.92.38Z"/><path class="cls-11" d="m22.25,10.3c-.34,0-.67-.14-.92-.38-.24-.24-.38-.58-.38-.92s.14-.68.38-.92c.49-.48,1.36-.48,1.84,0,.24.24.38.58.38.92s-.14.68-.38.92c-.24.24-.58.38-.92.38Z"/><path class="cls-11" d="m22,13.8c-.34,0-.67-.14-.92-.38-.24-.24-.38-.58-.38-.92s.14-.68.38-.92c.49-.48,1.36-.48,1.84,0,.24.24.38.58.38.92s-.14.68-.38.92c-.24.24-.58.38-.92.38Z"/><path class="cls-11" d="m17,12.8c-.34,0-.67-.14-.92-.38-.24-.24-.38-.58-.38-.92s.14-.68.38-.92c.48-.48,1.36-.48,1.84,0,.24.24.38.58.38.92s-.14.68-.38.92c-.24.24-.58.38-.92.38Z"/><path class="cls-11" d="m20.25,16.05c-.34,0-.67-.14-.92-.38-.24-.24-.38-.58-.38-.92s.14-.68.38-.92c.48-.48,1.36-.48,1.84,0,.24.24.38.58.38.92s-.14.68-.38.92c-.24.24-.58.38-.92.38Z"/><path class="cls-11" d="m22.75,19.8c-.34,0-.67-.14-.92-.38-.24-.24-.38-.58-.38-.92s.14-.68.38-.92c.48-.48,1.35-.48,1.84,0,.24.24.38.58.38.92s-.14.68-.38.92c-.24.24-.58.38-.92.38Z"/><path class="cls-11" d="m25.5,20.55c-.34,0-.68-.14-.92-.38-.24-.24-.38-.58-.38-.92s.14-.67.38-.92c.49-.48,1.36-.48,1.84,0,.24.25.38.58.38.92s-.14.68-.38.92c-.24.24-.58.38-.92.38Z"/><path class="cls-11" d="m28.5,18.8c-.34,0-.68-.14-.92-.38-.24-.24-.38-.58-.38-.92s.14-.68.38-.92c.48-.48,1.36-.48,1.84,0,.24.24.38.58.38.92s-.14.68-.38.92c-.24.24-.57.38-.92.38Z"/><path class="cls-11" d="m28,15.55c-.34,0-.68-.14-.92-.38-.24-.24-.38-.58-.38-.92s.14-.68.38-.92c.49-.48,1.36-.48,1.84,0,.24.24.38.58.38.92s-.14.68-.38.92c-.24.24-.58.38-.92.38Z"/><path class="cls-11" d="m30,13.3c-.34,0-.68-.14-.92-.38-.24-.24-.38-.58-.38-.92s.14-.68.38-.92c.49-.48,1.36-.48,1.84,0,.24.25.38.58.38.92s-.14.67-.38.92c-.24.24-.57.38-.92.38Z"/><path class="cls-11" d="m34.25,13.3c-.34,0-.68-.14-.92-.38-.24-.24-.38-.58-.38-.92s.14-.68.38-.92c.49-.48,1.36-.48,1.84,0,.24.24.38.58.38.92s-.14.68-.38.92c-.24.24-.58.38-.92.38Z"/><path class="cls-11" d="m32.5,18.05c-.34,0-.67-.14-.92-.38-.24-.24-.38-.58-.38-.92s.14-.68.38-.92c.5-.49,1.36-.48,1.84,0,.24.24.38.58.38.92s-.14.68-.38.92c-.24.24-.58.38-.92.38Z"/><path class="cls-11" d="m34.75,21.55c-.34,0-.68-.14-.92-.38-.24-.24-.38-.58-.38-.92s.14-.68.38-.92c.49-.48,1.36-.48,1.84,0,.24.25.38.58.38.92s-.14.68-.38.92c-.24.24-.58.38-.92.38Z"/><path class="cls-11" d="m31.25,21.8c-.34,0-.68-.14-.92-.38-.24-.24-.38-.58-.38-.92s.14-.68.38-.92c.49-.48,1.36-.48,1.84,0,.24.24.38.58.38.92s-.14.68-.38.92c-.24.24-.57.38-.92.38Z"/><path class="cls-11" d="m27.75,22.55c-.34,0-.67-.14-.92-.38-.24-.24-.38-.58-.38-.92s.14-.67.38-.92c.49-.48,1.36-.48,1.84,0,.24.24.38.58.38.92s-.14.68-.38.92c-.24.24-.58.38-.92.38Z"/><path class="cls-11" d="m37.25,17.05c-.34,0-.68-.14-.92-.38-.24-.24-.38-.58-.38-.92s.14-.68.38-.92c.49-.48,1.36-.48,1.84,0,.25.25.38.58.38.92s-.13.67-.38.92c-.24.24-.58.38-.92.38Z"/><path class="cls-11" d="m32,9.8c-.34,0-.68-.14-.92-.38-.24-.24-.38-.58-.38-.92s.14-.68.38-.92c.49-.48,1.36-.48,1.84,0,.24.24.38.58.38.92s-.14.68-.38.92c-.24.24-.57.38-.92.38Z"/><path class="cls-11" d="m34,6.8c-.34,0-.68-.14-.92-.38-.24-.24-.38-.58-.38-.92s.14-.68.38-.92c.48-.48,1.36-.48,1.84,0,.24.24.38.58.38.92s-.14.68-.38.92c-.24.24-.57.38-.92.38Z"/><path class="cls-11" d="m36.75,3.3c-.34,0-.68-.14-.92-.38-.24-.24-.38-.58-.38-.92s.14-.68.38-.92c.49-.48,1.36-.48,1.84,0,.25.25.38.58.38.92s-.13.67-.38.92c-.24.24-.58.38-.92.38Z"/><path class="cls-11" d="m37.5,6.55c-.34,0-.68-.14-.92-.38-.24-.24-.38-.58-.38-.92s.14-.68.38-.92c.49-.49,1.36-.48,1.84,0,.25.25.38.58.38.92s-.13.67-.38.92c-.24.24-.58.38-.92.38Z"/><path class="cls-11" d="m37.25,9.55c-.34,0-.67-.14-.92-.38-.24-.24-.38-.58-.38-.92s.14-.68.38-.92c.49-.48,1.36-.48,1.84,0,.25.25.38.58.38.92s-.13.67-.38.92c-.24.24-.58.38-.92.38Z"/><path class="cls-11" d="m37.5,13.3c-.34,0-.68-.14-.92-.38-.24-.24-.38-.58-.38-.92s.14-.68.38-.92c.49-.48,1.36-.48,1.84,0,.25.25.38.58.38.92s-.13.67-.38.92c-.24.24-.58.38-.92.38Z"/><path class="cls-11" d="m41,5.05c-.34,0-.67-.14-.92-.38-.24-.24-.38-.58-.38-.92s.14-.68.38-.92c.48-.48,1.36-.48,1.84,0,.24.24.38.58.38.92s-.14.68-.38.92c-.24.24-.58.38-.92.38Z"/><path class="cls-11" d="m41.75,8.8c-.34,0-.67-.14-.92-.38-.24-.24-.38-.58-.38-.92s.14-.68.38-.92c.49-.48,1.36-.48,1.84,0,.24.24.38.58.38.92s-.14.68-.38.92c-.24.24-.58.38-.92.38Z"/><path class="cls-11" d="m41.25,12.8c-.34,0-.67-.14-.92-.38-.24-.24-.38-.58-.38-.92s.14-.68.38-.92c.48-.48,1.36-.49,1.84,0,.24.24.38.58.38.92s-.14.67-.38.92c-.24.24-.58.38-.92.38Z"/><path class="cls-11" d="m41.5,17.3c-.34,0-.67-.14-.92-.38-.24-.24-.38-.58-.38-.92s.14-.68.38-.92c.48-.48,1.36-.48,1.84,0,.24.24.38.58.38.92s-.14.68-.38.92c-.24.24-.58.38-.92.38Z"/><path class="cls-11" d="m43,20.8c-.34,0-.67-.14-.92-.38-.24-.24-.38-.58-.38-.92s.14-.68.38-.92c.48-.48,1.36-.49,1.84,0,.24.24.38.58.38.92s-.14.68-.38.92c-.24.24-.58.38-.92.38Z"/><path class="cls-11" d="m38.25,20.55c-.34,0-.67-.14-.92-.38-.24-.24-.38-.58-.38-.92s.14-.68.38-.92c.48-.48,1.36-.48,1.84,0,.24.24.38.58.38.92s-.14.68-.38.92c-.24.24-.58.38-.92.38Z"/><path class="cls-11" d="m39.5,25.05c-.34,0-.67-.14-.92-.38-.24-.24-.38-.58-.38-.92s.14-.68.38-.92c.49-.48,1.36-.48,1.84,0,.24.24.38.58.38.92s-.14.68-.38.92c-.24.24-.58.38-.92.38Z"/><path class="cls-11" d="m35.25,24.8c-.34,0-.67-.14-.92-.38-.24-.24-.38-.58-.38-.92s.14-.68.38-.92c.49-.48,1.36-.48,1.84,0,.24.24.38.58.38.92s-.14.68-.38.92c-.24.24-.58.38-.92.38Z"/><path class="cls-11" d="m47,22.3c-.34,0-.68-.14-.92-.38-.24-.24-.38-.58-.38-.92s.14-.68.38-.92c.49-.48,1.36-.48,1.84,0,.24.24.38.58.38.92s-.14.68-.38.92c-.24.24-.57.38-.92.38Z"/><path class="cls-11" d="m46,18.8c-.34,0-.67-.14-.92-.38-.24-.24-.38-.58-.38-.92s.14-.68.38-.92c.49-.48,1.36-.48,1.84,0,.24.24.38.58.38.92s-.14.68-.38.92c-.24.24-.58.38-.92.38Z"/><path class="cls-11" d="m45,15.3c-.34,0-.68-.14-.92-.38-.24-.24-.38-.58-.38-.92s.14-.68.38-.92c.49-.48,1.36-.48,1.84,0,.24.24.38.58.38.92s-.14.68-.38.92c-.24.24-.57.38-.92.38Z"/><path class="cls-11" d="m45.25,11.3c-.34,0-.68-.14-.92-.38-.24-.24-.38-.58-.38-.92s.14-.68.38-.92c.49-.48,1.36-.48,1.84,0,.24.24.38.58.38.92s-.14.68-.38.92c-.24.24-.58.38-.92.38Z"/><path class="cls-11" d="m45,7.05c-.34,0-.67-.14-.92-.38-.24-.24-.38-.58-.38-.92s.14-.68.38-.92c.49-.48,1.35-.48,1.84,0,.24.24.38.58.38.92s-.14.68-.38.92c-.24.24-.58.38-.92.38Z"/><path class="cls-11" d="m44.75,3.8c-.34,0-.68-.14-.92-.38-.24-.24-.38-.58-.38-.92s.14-.68.38-.92c.49-.48,1.36-.48,1.84,0,.24.24.38.58.38.92s-.14.68-.38.92c-.24.24-.57.38-.92.38Z"/><path class="cls-11" d="m49.75,2.8c-.34,0-.67-.14-.92-.38-.24-.24-.38-.58-.38-.92s.14-.68.38-.92c.49-.48,1.36-.48,1.84,0,.24.24.38.58.38.92s-.14.68-.38.92c-.24.24-.58.38-.92.38Z"/><path class="cls-11" d="m49,7.05c-.34,0-.68-.14-.92-.38-.24-.24-.38-.58-.38-.92s.14-.68.38-.92c.49-.48,1.36-.48,1.84,0,.24.24.38.58.38.92s-.14.68-.38.92c-.24.24-.58.38-.92.38Z"/><path class="cls-11" d="m52.5,7.05c-.34,0-.67-.14-.92-.38-.24-.24-.38-.58-.38-.92s.14-.67.38-.92c.48-.48,1.35-.48,1.84,0,.24.24.38.58.38.92s-.14.68-.38.92c-.24.24-.58.38-.92.38Z"/><path class="cls-11" d="m52.25,10.55c-.34,0-.67-.14-.92-.38-.24-.24-.38-.58-.38-.92s.14-.67.38-.92c.49-.48,1.36-.48,1.84,0,.25.24.38.58.38.92s-.13.68-.38.92c-.24.24-.58.38-.92.38Z"/><path class="cls-11" d="m48.5,10.3c-.34,0-.67-.14-.92-.38-.24-.24-.38-.58-.38-.92s.14-.68.38-.92c.48-.48,1.36-.48,1.84,0,.24.24.38.58.38.92s-.14.68-.38.92c-.24.24-.58.38-.92.38Z"/><path class="cls-11" d="m48.75,14.8c-.34,0-.67-.14-.92-.38-.24-.24-.38-.58-.38-.92s.14-.68.38-.92c.49-.48,1.35-.48,1.84,0,.24.24.38.58.38.92s-.14.68-.38.92c-.24.24-.58.38-.92.38Z"/><path class="cls-11" d="m52.25,14.8c-.34,0-.67-.14-.92-.38-.24-.24-.38-.58-.38-.92s.14-.68.38-.92c.49-.48,1.36-.48,1.84,0,.25.24.38.58.38.92s-.14.68-.38.92c-.24.24-.58.38-.92.38Z"/><path class="cls-11" d="m49.5,18.3c-.34,0-.67-.14-.92-.38-.24-.24-.38-.58-.38-.92s.14-.68.38-.92c.49-.48,1.35-.48,1.84,0,.24.24.38.58.38.92s-.14.68-.38.92c-.24.24-.58.38-.92.38Z"/><path class="cls-11" d="m51,22.55c-.34,0-.67-.14-.92-.38-.24-.24-.38-.58-.38-.92s.14-.67.38-.92c.49-.48,1.35-.48,1.84,0,.24.24.38.58.38.92s-.14.68-.38.92c-.24.24-.58.38-.92.38Z"/><path class="cls-11" d="m52.75,25.8c-.34,0-.67-.14-.92-.38-.24-.24-.38-.58-.38-.92s.14-.68.38-.92c.49-.48,1.35-.48,1.84,0,.24.24.38.58.38.92s-.14.68-.38.92c-.24.24-.58.38-.92.38Z"/><path class="cls-11" d="m55.25,23.05c-.34,0-.68-.14-.92-.38-.24-.24-.38-.58-.38-.92s.14-.68.38-.92c.49-.48,1.36-.48,1.84,0,.24.24.38.58.38.92s-.14.68-.38.92c-.24.24-.57.38-.92.38Z"/><path class="cls-11" d="m53.75,19.55c-.34,0-.67-.14-.92-.38-.24-.24-.38-.58-.38-.92s.14-.68.38-.92c.48-.48,1.36-.48,1.84,0,.24.24.38.58.38.92s-.14.68-.38.92c-.24.24-.58.38-.92.38Z"/><path class="cls-11" d="m56,16.55c-.34,0-.67-.14-.92-.38-.24-.24-.38-.58-.38-.92s.14-.68.38-.92c.48-.48,1.35-.48,1.84,0,.24.24.38.58.38.92s-.14.68-.38.92c-.24.24-.58.38-.92.38Z"/><path class="cls-11" d="m56.25,12.3c-.34,0-.68-.14-.92-.38-.24-.24-.38-.58-.38-.92s.14-.68.38-.92c.49-.48,1.35-.48,1.84,0,.24.24.38.58.38.92s-.14.68-.38.92c-.24.24-.58.38-.92.38Z"/><path class="cls-11" d="m56.5,7.3c-.34,0-.68-.14-.92-.38-.24-.24-.38-.58-.38-.92s.14-.68.38-.92c.49-.48,1.35-.48,1.84,0,.24.24.38.58.38.92s-.14.68-.38.92c-.24.24-.58.38-.92.38Z"/><path class="cls-11" d="m59.75,8.3c-.34,0-.67-.14-.92-.38-.24-.25-.38-.58-.38-.92s.14-.67.38-.92c.49-.48,1.35-.48,1.84,0,.24.24.38.58.38.92s-.14.68-.38.92c-.24.24-.58.38-.92.38Z"/><path class="cls-11" d="m58,3.8c-.34,0-.68-.14-.92-.38-.24-.24-.38-.58-.38-.92s.14-.68.38-.92c.49-.48,1.36-.48,1.84,0,.24.24.38.58.38.92s-.14.68-.38.92c-.24.24-.57.38-.92.38Z"/><path class="cls-11" d="m61.75,4.8c-.34,0-.67-.14-.92-.38-.24-.24-.38-.58-.38-.92s.14-.68.38-.92c.49-.48,1.36-.48,1.84,0,.24.24.38.58.38.92s-.14.68-.38.92c-.24.24-.58.38-.92.38Z"/><path class="cls-11" d="m65,3.05c-.34,0-.67-.14-.92-.38-.24-.24-.38-.58-.38-.92s.14-.68.38-.92c.48-.48,1.36-.48,1.84,0,.24.24.38.58.38.92s-.14.68-.38.92c-.24.24-.58.38-.92.38Z"/><path class="cls-11" d="m67,5.05c-.34,0-.68-.14-.92-.38-.24-.24-.38-.58-.38-.92s.14-.68.38-.92c.49-.49,1.37-.48,1.84,0,.24.24.38.58.38.92s-.14.68-.38.92c-.24.24-.58.38-.92.38Z"/><path class="cls-11" d="m63.5,8.05c-.34,0-.67-.14-.92-.38-.24-.24-.38-.58-.38-.92s.14-.68.38-.92c.48-.48,1.37-.48,1.84,0,.24.24.38.58.38.92s-.14.68-.38.92c-.24.24-.58.38-.92.38Z"/><path class="cls-11" d="m62.75,11.8c-.34,0-.67-.14-.92-.38-.24-.24-.38-.58-.38-.92s.14-.67.38-.92c.49-.48,1.35-.48,1.84,0,.24.24.38.58.38.92s-.14.68-.38.92c-.24.24-.58.38-.92.38Z"/><path class="cls-11" d="m60,14.05c-.34,0-.67-.14-.92-.38-.24-.24-.38-.58-.38-.92s.14-.68.38-.92c.49-.48,1.36-.48,1.84,0,.24.24.38.58.38.92s-.14.68-.38.92c-.24.24-.58.38-.92.38Z"/><path class="cls-11" d="m62.5,16.8c-.34,0-.67-.14-.92-.38-.24-.24-.38-.58-.38-.92s.14-.68.38-.92c.48-.48,1.36-.48,1.84,0,.24.24.38.58.38.92s-.14.68-.38.92c-.24.24-.58.38-.92.38Z"/><path class="cls-11" d="m66.25,17.8c-.34,0-.67-.14-.92-.38-.24-.24-.38-.58-.38-.92s.14-.68.38-.92c.49-.48,1.36-.48,1.84,0,.24.24.38.58.38.92s-.14.68-.38.92c-.24.24-.58.38-.92.38Z"/><path class="cls-11" d="m64.25,20.05c-.34,0-.67-.14-.92-.38-.24-.24-.38-.58-.38-.92s.14-.68.38-.92c.48-.48,1.35-.48,1.84,0,.24.24.38.58.38.92s-.14.68-.38.92c-.24.24-.58.38-.92.38Z"/><path class="cls-11" d="m60.75,20.55c-.34,0-.67-.14-.92-.38-.24-.24-.38-.58-.38-.92s.14-.68.38-.92c.49-.48,1.36-.48,1.84,0,.24.24.38.58.38.92s-.14.68-.38.92c-.24.24-.58.38-.92.38Z"/><path class="cls-11" d="m58,20.05c-.34,0-.67-.14-.92-.38-.24-.24-.38-.58-.38-.92s.14-.68.38-.92c.49-.48,1.36-.48,1.84,0,.24.24.38.58.38.92s-.14.68-.38.92c-.24.24-.58.38-.92.38Z"/><path class="cls-11" d="m59.75,24.3c-.34,0-.68-.14-.92-.38-.24-.25-.38-.58-.38-.92s.14-.67.38-.92c.49-.48,1.35-.48,1.84,0,.24.24.38.58.38.92s-.14.68-.38.92c-.24.24-.57.38-.92.38Z"/><path class="cls-11" d="m64.25,23.05c-.34,0-.67-.14-.92-.38-.24-.24-.38-.58-.38-.92s.14-.68.38-.92c.48-.48,1.35-.48,1.84,0,.24.24.38.58.38.92s-.14.68-.38.92c-.24.24-.58.38-.92.38Z"/><path class="cls-11" d="m68.5,24.05c-.34,0-.68-.14-.92-.38-.24-.25-.38-.58-.38-.92s.14-.67.38-.92c.49-.49,1.37-.48,1.84,0,.24.24.38.58.38.92s-.14.68-.38.92c-.24.24-.58.38-.92.38Z"/><path class="cls-11" d="m68.5,20.55c-.34,0-.68-.14-.92-.38-.24-.24-.38-.58-.38-.92s.14-.68.38-.92c.5-.49,1.36-.48,1.84,0,.24.24.38.58.38.92s-.14.68-.38.92c-.24.24-.58.38-.92.38Z"/><path class="cls-11" d="m65.5,13.8c-.34,0-.67-.14-.92-.38-.24-.24-.38-.58-.38-.92s.14-.68.38-.92c.49-.48,1.36-.48,1.84,0,.24.24.38.58.38.92s-.14.68-.38.92c-.24.24-.58.38-.92.38Z"/><path class="cls-11" d="m66.25,10.05c-.34,0-.67-.14-.92-.38-.24-.24-.38-.58-.38-.92s.14-.68.38-.92c.49-.49,1.36-.48,1.84,0,.24.24.38.58.38.92s-.14.68-.38.92c-.24.24-.58.38-.92.38Z"/><path class="cls-11" d="m69.75,8.05c-.34,0-.67-.14-.92-.38-.24-.24-.38-.58-.38-.92s.14-.67.38-.92c.48-.49,1.36-.49,1.84,0,.24.24.38.58.38.92s-.14.68-.38.92c-.24.24-.58.38-.92.38Z"/><path class="cls-11" d="m70.75,3.3c-.34,0-.67-.14-.92-.38-.24-.25-.38-.58-.38-.92s.14-.68.38-.92c.49-.48,1.36-.48,1.84,0,.24.24.38.58.38.92s-.14.68-.38.92c-.24.24-.58.38-.92.38Z"/><path class="cls-11" d="m69.75,14.55c-.34,0-.68-.14-.92-.38-.24-.24-.38-.58-.38-.92s.14-.68.38-.92c.49-.48,1.36-.48,1.84,0,.24.24.38.58.38.92s-.14.68-.38.92c-.24.24-.58.38-.92.38Z"/><path class="cls-11" d="m71.5,18.05c-.34,0-.67-.14-.92-.38-.24-.24-.38-.58-.38-.92s.14-.68.38-.92c.48-.48,1.36-.48,1.84,0,.24.24.38.58.38.92s-.14.68-.38.92c-.24.24-.58.38-.92.38Z"/><path class="cls-11" d="m56.5,7.3c-.34,0-.68-.14-.92-.38-.24-.24-.38-.58-.38-.92s.14-.68.38-.92c.49-.48,1.35-.48,1.84,0,.24.24.38.58.38.92s-.14.68-.38.92c-.24.24-.58.38-.92.38Z"/><path class="cls-11" d="m58,3.8c-.34,0-.68-.14-.92-.38-.24-.24-.38-.58-.38-.92s.14-.68.38-.92c.49-.48,1.36-.48,1.84,0,.24.24.38.58.38.92s-.14.68-.38.92c-.24.24-.57.38-.92.38Z"/><path class="cls-11" d="m54,4.55c-.34,0-.68-.14-.92-.38-.24-.24-.38-.58-.38-.92s.14-.68.38-.92c.49-.48,1.36-.48,1.84,0,.24.24.38.58.38.92s-.14.68-.38.92c-.24.24-.58.38-.92.38Z"/><path class="cls-11" d="m24,24.05c-.34,0-.67-.14-.92-.38-.24-.24-.38-.58-.38-.92s.14-.68.38-.92c.49-.48,1.36-.48,1.84,0,.24.24.38.58.38.92s-.14.68-.38.92c-.24.24-.58.38-.92.38Z"/><path class="cls-11" d="m20,21.3c-.34,0-.67-.14-.92-.38-.24-.24-.38-.58-.38-.92s.14-.67.38-.92c.49-.48,1.36-.48,1.84,0,.24.25.38.58.38.92s-.14.68-.38.92c-.24.24-.57.38-.92.38Z"/><path class="cls-11" d="m16,22.3c-.34,0-.68-.14-.92-.38-.24-.24-.38-.58-.38-.92s.14-.67.38-.92c.49-.48,1.36-.48,1.84,0,.24.25.38.58.38.92s-.14.68-.38.92c-.24.24-.58.38-.92.38Z"/><path class="cls-11" d="m17,18.3c-.34,0-.67-.14-.92-.38-.24-.24-.38-.58-.38-.92s.14-.68.38-.92c.49-.48,1.35-.48,1.84,0,.24.24.38.58.38.92s-.14.68-.38.92c-.24.24-.58.38-.92.38Z"/><path class="cls-11" d="m14.75,15.3c-.34,0-.67-.14-.92-.38-.24-.24-.38-.58-.38-.92s.14-.67.38-.92c.49-.49,1.36-.48,1.84,0,.24.25.38.58.38.92s-.14.67-.38.92c-.24.24-.58.38-.92.38Z"/><path class="cls-11" d="m12.5,12.55c-.34,0-.67-.14-.92-.38-.24-.24-.38-.58-.38-.92s.14-.67.38-.92c.49-.48,1.36-.48,1.84,0,.24.24.38.58.38.92s-.14.68-.38.92c-.24.24-.58.38-.92.38Z"/><path class="cls-11" d="m12.5,18.8c-.34,0-.68-.14-.92-.38-.24-.24-.38-.58-.38-.92s.14-.68.38-.92c.49-.48,1.36-.48,1.84,0,.24.24.38.58.38.92s-.14.68-.38.92c-.24.24-.57.38-.92.38Z"/><path class="cls-11" d="m16,22.3c-.34,0-.68-.14-.92-.38-.24-.24-.38-.58-.38-.92s.14-.67.38-.92c.49-.48,1.36-.48,1.84,0,.24.25.38.58.38.92s-.14.68-.38.92c-.24.24-.58.38-.92.38Z"/><path class="cls-11" d="m18.5,24.55c-.34,0-.67-.14-.92-.38-.24-.24-.38-.58-.38-.92s.14-.68.38-.92c.48-.48,1.36-.49,1.84,0,.24.24.38.58.38.92s-.14.67-.38.92c-.24.24-.58.38-.92.38Z"/><path class="cls-11" d="m14,26.05c-.34,0-.68-.14-.92-.38-.24-.24-.38-.58-.38-.92s.14-.68.38-.92c.49-.49,1.36-.48,1.84,0,.24.24.38.58.38.92s-.14.68-.38.92c-.24.24-.58.38-.92.38Z"/><path class="cls-11" d="m11.5,23.05c-.34,0-.67-.14-.92-.38-.24-.24-.38-.58-.38-.92s.14-.67.38-.92c.48-.48,1.36-.48,1.84,0,.24.25.38.58.38.92s-.14.68-.38.92c-.24.24-.58.38-.92.38Z"/><path class="cls-11" d="m24,16.55c-.34,0-.68-.14-.92-.38-.24-.24-.38-.58-.38-.92s.14-.68.38-.92c.49-.48,1.36-.48,1.84,0,.24.24.38.58.38.92s-.14.68-.38.92c-.24.24-.57.38-.92.38Z"/><path class="cls-11" d="m2,7.05c-.34,0-.68-.14-.92-.38-.24-.24-.38-.58-.38-.92s.14-.67.38-.92c.5-.49,1.36-.48,1.84,0,.24.25.38.58.38.92s-.14.68-.38.92c-.24.24-.58.38-.92.38Z"/><path class="cls-11" d="m3.25,16.55c-.34,0-.68-.14-.92-.38-.24-.24-.38-.58-.38-.92s.14-.68.38-.92c.49-.48,1.36-.49,1.84,0,.24.24.38.58.38.92s-.14.68-.38.92c-.24.24-.58.38-.92.38Z"/><path class="cls-11" d="m5.25,19.8c-.34,0-.68-.14-.92-.38-.24-.24-.38-.58-.38-.92s.14-.68.38-.92c.49-.49,1.36-.48,1.84,0,.25.25.38.58.38.92s-.13.68-.38.92c-.24.24-.58.38-.92.38Z"/><path class="cls-11" d="m3.75,13.05c-.34,0-.67-.14-.92-.38-.24-.24-.38-.58-.38-.92s.14-.68.38-.92c.49-.48,1.35-.48,1.84,0,.24.24.38.58.38.92s-.14.68-.38.92c-.24.24-.58.38-.92.38Z"/><path class="cls-11" d="m9,5.8c-.34,0-.67-.14-.92-.38-.24-.24-.38-.58-.38-.92s.14-.68.38-.92c.48-.48,1.36-.48,1.84,0,.24.24.38.58.38.92s-.14.68-.38.92c-.24.24-.58.38-.92.38Z"/><path class="cls-11" d="m5.75,6.3c-.34,0-.67-.14-.92-.38-.24-.24-.38-.58-.38-.92s.14-.68.38-.92c.48-.48,1.36-.48,1.84,0,.24.24.38.58.38.92s-.14.67-.38.92c-.24.24-.58.38-.92.38Z"/><path class="cls-11" d="m6,9.55c-.34,0-.67-.14-.92-.38-.24-.24-.38-.58-.38-.92s.14-.68.38-.92c.49-.48,1.36-.49,1.84,0,.24.25.38.58.38.92s-.14.68-.38.92c-.24.24-.58.38-.92.38Z"/><path class="cls-11" d="m10.75,8.8c-.34,0-.67-.14-.92-.38-.24-.24-.38-.58-.38-.92s.14-.67.38-.92c.49-.48,1.36-.48,1.84,0,.24.25.38.58.38.92s-.14.68-.38.92c-.24.24-.58.38-.92.38Z"/><path class="cls-11" d="m3.75,3.55c-.34,0-.68-.14-.92-.38-.24-.24-.38-.58-.38-.92s.14-.68.38-.92c.49-.48,1.36-.48,1.84,0,.24.24.38.58.38.92s-.14.68-.38.92c-.24.24-.58.38-.92.38Z"/><path class="cls-11" d="m7,14.3c-.34,0-.67-.14-.92-.38-.24-.24-.38-.58-.38-.92s.14-.68.38-.92c.48-.48,1.36-.48,1.84,0,.24.25.38.58.38.92s-.14.67-.38.92c-.24.24-.58.38-.92.38Z"/><path class="cls-11" d="m9.75,12.05c-.34,0-.67-.14-.92-.38-.24-.25-.38-.58-.38-.92s.14-.68.38-.92c.49-.48,1.36-.48,1.84,0,.24.24.38.58.38.92s-.14.68-.38.92c-.24.24-.58.38-.92.38Z"/><path class="cls-11" d="m9.75,16.05c-.34,0-.67-.14-.92-.38-.24-.25-.38-.58-.38-.92s.14-.68.38-.92c.49-.48,1.36-.48,1.84,0,.24.24.38.58.38.92s-.14.67-.38.92c-.24.24-.58.38-.92.38Z"/><path class="cls-11" d="m12.5,18.8c-.34,0-.68-.14-.92-.38-.24-.24-.38-.58-.38-.92s.14-.68.38-.92c.49-.48,1.36-.48,1.84,0,.24.24.38.58.38.92s-.14.68-.38.92c-.24.24-.57.38-.92.38Z"/><path class="cls-11" d="m8.25,20.55c-.34,0-.67-.14-.92-.38-.24-.24-.38-.58-.38-.92s.14-.67.38-.92c.48-.48,1.36-.48,1.84,0,.24.25.38.58.38.92s-.14.68-.38.92c-.24.24-.58.38-.92.38Z"/><path class="cls-11" d="m5.75,26.05c-.34,0-.67-.14-.92-.38-.24-.24-.38-.58-.38-.92s.14-.68.38-.92c.48-.48,1.36-.48,1.84,0,.24.24.38.58.38.92s-.14.67-.38.92c-.24.24-.58.38-.92.38Z"/><path class="cls-11" d="m5,23.05c-.34,0-.68-.14-.92-.38-.24-.24-.38-.58-.38-.92s.14-.68.38-.92c.48-.48,1.36-.48,1.84,0,.24.25.38.58.38.92s-.14.67-.38.92c-.24.24-.58.38-.92.38Z"/><path class="cls-11" d="m15,71.8c-.34,0-.67-.14-.92-.38-.24-.24-.38-.58-.38-.92s.14-.68.38-.92c.49-.48,1.36-.48,1.84,0,.24.25.38.58.38.92s-.14.68-.38.92c-.24.24-.58.38-.92.38Z"/><path class="cls-11" d="m15,71.8c-.34,0-.67-.14-.92-.38-.24-.24-.38-.58-.38-.92s.14-.68.38-.92c.49-.48,1.36-.48,1.84,0,.24.25.38.58.38.92s-.14.68-.38.92c-.24.24-.58.38-.92.38Z"/><path class="cls-11" d="m18.5,70.8c-.34,0-.67-.14-.92-.38-.24-.24-.38-.58-.38-.92s.14-.68.38-.92c.49-.48,1.36-.48,1.84,0,.24.24.38.58.38.92s-.14.68-.38.92c-.24.24-.58.38-.92.38Z"/><path class="cls-11" d="m24,71.8c-.34,0-.67-.14-.92-.38-.24-.24-.38-.58-.38-.92s.14-.68.38-.92c.49-.48,1.36-.48,1.84,0,.24.24.38.58.38.92s-.14.68-.38.92c-.24.24-.57.38-.92.38Z"/><path class="cls-11" d="m29.25,71.3c-.34,0-.68-.14-.92-.38-.24-.24-.38-.58-.38-.92s.14-.68.38-.92c.49-.48,1.36-.48,1.84,0,.24.24.38.58.38.92s-.14.68-.38.92c-.24.24-.57.38-.92.38Z"/><path class="cls-11" d="m32.75,71.8c-.34,0-.67-.14-.92-.38-.24-.24-.38-.58-.38-.92s.14-.68.38-.92c.49-.48,1.36-.48,1.84,0,.24.24.38.58.38.92s-.14.67-.38.92c-.24.24-.58.38-.92.38Z"/><path class="cls-11" d="m37.75,71.3c-.34,0-.67-.14-.92-.38-.24-.24-.38-.58-.38-.92s.14-.68.38-.92c.49-.48,1.36-.48,1.84,0,.24.24.38.58.38.92s-.14.68-.38.92c-.24.24-.58.38-.92.38Z"/><path class="cls-11" d="m45,68.55c-.34,0-.68-.14-.92-.38-.24-.24-.38-.58-.38-.92s.14-.68.38-.92c.49-.48,1.36-.48,1.84,0,.24.24.38.58.38.92s-.14.68-.38.92c-.24.24-.58.38-.92.38Z"/><path class="cls-11" d="m49.75,70.3c-.34,0-.67-.14-.92-.38-.24-.24-.38-.58-.38-.92s.14-.68.38-.92c.49-.48,1.36-.48,1.84,0,.24.24.38.58.38.92s-.14.68-.38.92c-.24.24-.58.38-.92.38Z"/><path class="cls-11" d="m59.75,71.8c-.34,0-.67-.14-.92-.38-.24-.25-.38-.58-.38-.92s.14-.67.38-.92c.49-.48,1.35-.49,1.84,0,.24.24.38.58.38.92s-.14.68-.38.92c-.24.24-.58.38-.92.38Z"/><path class="cls-11" d="m67.75,72.55c-.34,0-.68-.14-.92-.38-.24-.24-.38-.58-.38-.92s.14-.68.38-.92c.48-.48,1.36-.48,1.84,0,.24.24.38.58.38.92s-.14.68-.38.92c-.24.24-.57.38-.92.38Z"/><path class="cls-11" d="m55,73.55c-.34,0-.68-.14-.92-.38-.24-.24-.38-.58-.38-.92s.14-.68.38-.92c.49-.48,1.36-.48,1.84,0,.24.24.38.58.38.92s-.14.68-.38.92c-.24.24-.58.38-.92.38Z"/><path class="cls-11" d="m53.75,69.8c-.34,0-.68-.14-.92-.38-.24-.24-.38-.58-.38-.92s.14-.68.38-.92c.49-.48,1.36-.48,1.84,0,.24.24.38.58.38.92s-.14.68-.38.92c-.24.24-.58.38-.92.38Z"/><path class="cls-11" d="m10.25,70.8c-.34,0-.67-.14-.92-.38-.24-.24-.38-.58-.38-.92s.14-.68.38-.92c.49-.48,1.36-.48,1.84,0,.24.24.38.58.38.92s-.14.68-.38.92c-.24.24-.58.38-.92.38Z"/><path class="cls-11" d="m5.75,71.05c-.34,0-.68-.14-.92-.38-.24-.24-.38-.58-.38-.92s.14-.68.38-.92c.49-.48,1.35-.49,1.84,0,.24.25.38.58.38.92s-.14.68-.38.92c-.24.24-.58.38-.92.38Z"/><path class="cls-11" d="m22,26.8c-.34,0-.67-.14-.92-.38-.24-.24-.38-.58-.38-.92s.14-.68.38-.92c.48-.48,1.36-.48,1.84,0,.24.24.38.58.38.92s-.14.68-.38.92c-.24.24-.57.38-.92.38Z"/><path class="cls-11" d="m26.5,27.8c-.34,0-.67-.14-.92-.38-.24-.24-.38-.58-.38-.92s.14-.68.38-.92c.49-.48,1.36-.48,1.84,0,.24.25.38.58.38.92s-.14.68-.38.92c-.24.24-.58.38-.92.38Z"/><path class="cls-11" d="m30.25,25.8c-.34,0-.67-.14-.92-.38-.24-.24-.38-.58-.38-.92s.14-.68.38-.92c.49-.48,1.36-.48,1.84,0,.24.24.38.58.38.92s-.14.68-.38.92c-.24.24-.58.38-.92.38Z"/><path class="cls-11" d="m29,29.8c-.34,0-.68-.14-.92-.38-.24-.24-.38-.58-.38-.92s.14-.68.38-.92c.49-.48,1.36-.48,1.84,0,.24.24.38.58.38.92s-.14.68-.38.92c-.24.24-.57.38-.92.38Z"/><path class="cls-11" d="m26.25,31.8c-.34,0-.67-.14-.92-.38-.24-.24-.38-.58-.38-.92s.14-.68.38-.92c.48-.48,1.36-.49,1.84,0,.24.24.38.58.38.92s-.14.68-.38.92c-.24.24-.58.38-.92.38Z"/><path class="cls-11" d="m22.75,31.05c-.34,0-.68-.14-.92-.38-.24-.24-.38-.58-.38-.92s.14-.68.38-.92c.48-.48,1.36-.49,1.84,0,.24.24.38.58.38.92s-.14.68-.38.92c-.24.24-.57.38-.92.38Z"/><path class="cls-11" d="m19.5,31.8c-.34,0-.67-.14-.92-.38-.24-.24-.38-.58-.38-.92s.14-.68.38-.92c.48-.48,1.36-.49,1.84,0,.24.24.38.58.38.92s-.14.68-.38.92c-.24.24-.58.38-.92.38Z"/><path class="cls-11" d="m18,28.05c-.34,0-.68-.14-.92-.38-.24-.24-.38-.58-.38-.92s.14-.68.38-.92c.49-.48,1.36-.48,1.84,0,.24.24.38.58.38.92s-.14.68-.38.92c-.24.24-.58.38-.92.38Z"/><path class="cls-11" d="m16,30.55c-.34,0-.68-.14-.92-.38-.24-.24-.38-.58-.38-.92s.14-.68.38-.92c.49-.48,1.35-.48,1.84,0,.24.24.38.58.38.92s-.14.68-.38.92c-.24.24-.57.38-.92.38Z"/><path class="cls-11" d="m12.75,29.3c-.34,0-.67-.14-.92-.38-.24-.24-.38-.58-.38-.92s.14-.68.38-.92c.49-.49,1.36-.48,1.84,0,.24.25.38.58.38.92s-.14.68-.38.92c-.24.24-.58.38-.92.38Z"/><path class="cls-11" d="m9.5,30.8c-.34,0-.67-.14-.92-.38-.24-.24-.38-.58-.38-.92s.14-.67.38-.92c.48-.48,1.36-.48,1.84,0,.25.25.38.58.38.92s-.13.68-.38.92c-.24.24-.58.38-.92.38Z"/><path class="cls-11" d="m8.5,34.05c-.34,0-.67-.14-.92-.38-.24-.24-.38-.58-.38-.92s.14-.68.38-.92c.48-.48,1.36-.48,1.84,0,.24.24.38.58.38.92s-.14.68-.38.92c-.24.24-.58.38-.92.38Z"/><path class="cls-11" d="m10,38.3c-.34,0-.67-.14-.92-.38-.24-.24-.38-.58-.38-.92s.14-.68.38-.92c.48-.48,1.36-.48,1.84,0,.24.24.38.58.38.92s-.14.68-.38.92c-.24.24-.58.38-.92.38Z"/><path class="cls-11" d="m12.5,35.8c-.34,0-.67-.14-.92-.38-.24-.24-.38-.58-.38-.92s.14-.68.38-.92c.48-.48,1.36-.48,1.84,0,.24.24.38.58.38.92s-.14.68-.38.92c-.24.24-.58.38-.92.38Z"/><path class="cls-11" d="m15.25,33.3c-.34,0-.68-.14-.92-.38-.24-.24-.38-.58-.38-.92s.14-.68.38-.92c.49-.48,1.35-.48,1.84,0,.24.24.38.58.38.92s-.14.68-.38.92c-.24.24-.58.38-.92.38Z"/><path class="cls-11" d="m19,35.55c-.34,0-.67-.14-.92-.38-.24-.24-.38-.58-.38-.92s.14-.68.38-.92c.48-.48,1.36-.48,1.84,0,.24.24.38.58.38.92s-.14.68-.38.92c-.24.24-.58.38-.92.38Z"/><path class="cls-11" d="m16,38.05c-.34,0-.67-.14-.92-.38-.24-.24-.38-.58-.38-.92s.14-.68.38-.92c.48-.48,1.36-.48,1.84,0,.24.24.38.58.38.92s-.14.68-.38.92c-.24.24-.58.38-.92.38Z"/><path class="cls-11" d="m13,40.8c-.34,0-.67-.14-.92-.38-.24-.24-.38-.58-.38-.92s.14-.68.38-.92c.49-.48,1.36-.48,1.84,0,.24.24.38.58.38.92s-.14.68-.38.92c-.24.24-.58.38-.92.38Z"/><path class="cls-11" d="m9.75,42.55c-.34,0-.67-.14-.92-.38-.24-.25-.38-.58-.38-.92s.14-.68.38-.92c.49-.48,1.36-.48,1.84,0,.24.24.38.58.38.92s-.14.67-.38.92c-.24.24-.58.38-.92.38Z"/><path class="cls-11" d="m10,38.3c-.34,0-.67-.14-.92-.38-.24-.24-.38-.58-.38-.92s.14-.68.38-.92c.48-.48,1.36-.48,1.84,0,.24.24.38.58.38.92s-.14.68-.38.92c-.24.24-.58.38-.92.38Z"/><path class="cls-11" d="m6.75,39.8c-.34,0-.67-.14-.92-.38-.24-.24-.38-.58-.38-.92s.14-.68.38-.92c.48-.48,1.36-.48,1.84,0,.24.24.38.58.38.92s-.14.68-.38.92c-.24.24-.58.38-.92.38Z"/><path class="cls-11" d="m5.75,35.3c-.34,0-.68-.14-.92-.38-.24-.24-.38-.58-.38-.92s.14-.68.38-.92c.49-.48,1.36-.48,1.84,0,.24.25.38.58.38.92s-.14.68-.38.92c-.24.24-.58.38-.92.38Z"/><path class="cls-11" d="m5.5,30.05c-.34,0-.67-.14-.92-.38-.24-.24-.38-.58-.38-.92s.14-.68.38-.92c.49-.48,1.36-.48,1.84,0,.24.24.38.58.38.92s-.14.68-.38.92c-.24.24-.58.38-.92.38Z"/><path class="cls-11" d="m2.5,32.05c-.34,0-.67-.14-.92-.38-.24-.24-.38-.58-.38-.92s.14-.68.38-.92c.49-.48,1.35-.48,1.84,0,.25.25.38.58.38.92s-.13.67-.38.92c-.24.24-.58.38-.92.38Z"/><path class="cls-11" d="m1.75,36.05c-.34,0-.67-.14-.92-.38-.24-.24-.38-.58-.38-.92s.14-.68.38-.92c.48-.48,1.36-.48,1.84,0,.24.24.38.58.38.92s-.14.68-.38.92c-.24.24-.58.38-.92.38Z"/><path class="cls-11" d="m1.75,27.55c-.34,0-.67-.14-.92-.38-.24-.25-.38-.58-.38-.92s.14-.67.38-.92c.49-.48,1.35-.48,1.84,0,.24.24.38.58.38.92s-.14.68-.38.92c-.24.24-.58.38-.92.38Z"/><path class="cls-11" d="m3,39.55c-.34,0-.68-.14-.92-.38-.24-.24-.38-.58-.38-.92s.14-.68.38-.92c.49-.48,1.36-.49,1.84,0,.24.24.38.58.38.92s-.14.68-.38.92c-.24.24-.58.38-.92.38Z"/><path class="cls-11" d="m3.5,43.3c-.34,0-.67-.14-.92-.38-.24-.24-.38-.58-.38-.92s.14-.68.38-.92c.49-.48,1.36-.48,1.84,0,.24.24.38.58.38.92s-.14.68-.38.92c-.24.24-.58.38-.92.38Z"/><path class="cls-11" d="m2.75,49.3c-.34,0-.67-.14-.92-.38-.24-.24-.38-.58-.38-.92s.14-.67.38-.92c.49-.48,1.35-.48,1.84,0,.24.24.38.58.38.92s-.14.68-.38.92c-.24.24-.58.38-.92.38Z"/><path class="cls-11" d="m3.75,52.3c-.34,0-.67-.14-.92-.38-.24-.24-.38-.58-.38-.92s.14-.67.38-.92c.49-.48,1.36-.48,1.84,0,.24.25.38.58.38.92s-.14.68-.38.92c-.24.24-.58.38-.92.38Z"/><path class="cls-11" d="m7.25,50.3c-.34,0-.67-.14-.92-.38-.24-.24-.38-.58-.38-.92s.14-.68.38-.92c.48-.48,1.36-.48,1.84,0,.24.24.38.58.38.92s-.14.68-.38.92c-.24.24-.58.38-.92.38Z"/><path class="cls-11" d="m5.5,46.3c-.34,0-.68-.14-.92-.38-.24-.24-.38-.58-.38-.92s.14-.68.38-.92c.49-.48,1.36-.48,1.84,0,.24.25.38.58.38.92s-.14.68-.38.92c-.24.24-.58.38-.92.38Z"/><path class="cls-11" d="m9.5,46.8c-.34,0-.67-.14-.92-.38-.24-.24-.38-.58-.38-.92s.14-.68.38-.92c.48-.48,1.36-.48,1.84,0,.25.25.38.58.38.92s-.14.68-.38.92c-.24.24-.58.38-.92.38Z"/><path class="cls-11" d="m12,49.8c-.34,0-.67-.14-.92-.38-.24-.24-.38-.58-.38-.92s.14-.67.38-.92c.48-.48,1.36-.48,1.84,0,.24.25.38.58.38.92s-.14.68-.38.92c-.24.24-.58.38-.92.38Z"/><path class="cls-11" d="m15,50.8c-.34,0-.68-.14-.92-.38-.24-.24-.38-.58-.38-.92s.14-.68.38-.92c.49-.48,1.36-.48,1.84,0,.24.24.38.58.38.92s-.14.68-.38.92c-.24.24-.58.38-.92.38Z"/><path class="cls-11" d="m17.75,52.3c-.34,0-.67-.14-.92-.38-.24-.24-.38-.58-.38-.92s.14-.68.38-.92c.49-.48,1.36-.48,1.84,0,.24.24.38.58.38.92s-.14.68-.38.92c-.24.24-.58.38-.92.38Z"/><path class="cls-11" d="m12.5,45.55c-.34,0-.67-.14-.92-.38-.24-.24-.38-.58-.38-.92s.14-.68.38-.92c.49-.48,1.36-.48,1.84,0,.24.24.38.58.38.92s-.14.68-.38.92c-.24.24-.58.38-.92.38Z"/><path class="cls-11" d="m16,46.8c-.34,0-.67-.14-.92-.38-.24-.24-.38-.58-.38-.92s.14-.68.38-.92c.48-.48,1.36-.48,1.84,0,.24.24.38.58.38.92s-.14.68-.38.92c-.24.24-.58.38-.92.38Z"/><path class="cls-11" d="m19.25,47.8c-.34,0-.68-.14-.92-.38-.24-.24-.38-.58-.38-.92s.14-.67.38-.92c.49-.48,1.36-.48,1.84,0,.24.25.38.58.38.92s-.14.68-.38.92c-.24.24-.57.38-.92.38Z"/><path class="cls-11" d="m16.25,42.3c-.34,0-.68-.14-.92-.38-.24-.24-.38-.58-.38-.92s.14-.68.38-.92c.49-.48,1.36-.48,1.84,0,.24.24.38.58.38.92s-.14.68-.38.92c-.24.24-.58.38-.92.38Z"/><path class="cls-11" d="m20.25,43.3c-.34,0-.67-.14-.92-.38-.24-.24-.38-.58-.38-.92s.14-.67.38-.92c.49-.48,1.36-.48,1.84,0,.24.25.38.58.38.92s-.14.68-.38.92c-.24.24-.58.38-.92.38Z"/><path class="cls-11" d="m21,39.05c-.34,0-.67-.14-.92-.38-.24-.24-.38-.58-.38-.92s.14-.68.38-.92c.49-.48,1.36-.48,1.84,0,.24.24.38.58.38.92s-.14.68-.38.92c-.24.24-.58.38-.92.38Z"/><path class="cls-11" d="m23.5,42.05c-.34,0-.68-.14-.92-.38-.24-.24-.38-.58-.38-.92s.14-.68.38-.92c.48-.48,1.36-.49,1.84,0,.24.24.38.58.38.92s-.14.68-.38.92c-.24.24-.57.38-.92.38Z"/><path class="cls-11" d="m26.25,39.55c-.34,0-.68-.14-.92-.38-.24-.24-.38-.58-.38-.92s.14-.67.38-.92c.49-.48,1.36-.48,1.84,0,.24.25.38.58.38.92s-.14.68-.38.92c-.24.24-.58.38-.92.38Z"/><path class="cls-11" d="m22.5,46.05c-.34,0-.67-.14-.92-.38-.24-.24-.38-.58-.38-.92s.14-.68.38-.92c.49-.48,1.36-.48,1.84,0,.24.24.38.58.38.92s-.14.68-.38.92c-.24.24-.58.38-.92.38Z"/><path class="cls-11" d="m26,48.05c-.34,0-.67-.14-.92-.38-.24-.24-.38-.58-.38-.92s.14-.68.38-.92c.49-.48,1.36-.48,1.84,0,.24.24.38.58.38.92s-.14.68-.38.92c-.24.24-.58.38-.92.38Z"/><path class="cls-11" d="m26,52.05c-.34,0-.68-.14-.92-.38-.24-.24-.38-.58-.38-.92s.14-.68.38-.92c.49-.48,1.36-.48,1.84,0,.24.24.38.58.38.92s-.14.68-.38.92c-.24.24-.58.38-.92.38Z"/><path class="cls-11" d="m22,50.3c-.34,0-.68-.14-.92-.38-.24-.24-.38-.58-.38-.92s.14-.68.38-.92c.49-.48,1.36-.48,1.84,0,.24.25.38.58.38.92s-.14.68-.38.92c-.24.24-.57.38-.92.38Z"/><path class="cls-11" d="m29.5,49.05c-.34,0-.67-.14-.92-.38-.24-.24-.38-.58-.38-.92s.14-.68.38-.92c.49-.48,1.36-.48,1.84,0,.24.24.38.58.38.92s-.14.68-.38.92c-.24.24-.57.38-.92.38Z"/><path class="cls-11" d="m31.5,45.8c-.34,0-.68-.14-.92-.38-.24-.24-.38-.58-.38-.92s.14-.68.38-.92c.49-.48,1.35-.48,1.84,0,.25.25.38.58.38.92s-.14.68-.38.92c-.24.24-.58.38-.92.38Z"/><path class="cls-11" d="m30.25,41.8c-.34,0-.68-.14-.92-.38-.24-.24-.38-.58-.38-.92s.14-.68.38-.92c.49-.48,1.36-.48,1.84,0,.24.24.38.58.38.92s-.14.68-.38.92c-.24.24-.58.38-.92.38Z"/><path class="cls-11" d="m30.25,37.8c-.34,0-.67-.14-.92-.38-.24-.24-.38-.58-.38-.92s.14-.68.38-.92c.49-.48,1.36-.48,1.84,0,.24.24.38.58.38.92s-.14.68-.38.92c-.24.24-.58.38-.92.38Z"/><path class="cls-11" d="m27,36.05c-.34,0-.67-.14-.92-.38-.24-.24-.38-.58-.38-.92s.14-.68.38-.92c.49-.48,1.36-.48,1.84,0,.24.24.38.58.38.92s-.14.68-.38.92c-.24.24-.58.38-.92.38Z"/><path class="cls-11" d="m23.5,36.05c-.34,0-.68-.14-.92-.38-.24-.24-.38-.58-.38-.92s.14-.68.38-.92c.49-.48,1.36-.48,1.84,0,.24.24.38.58.38.92s-.14.68-.38.92c-.24.24-.57.38-.92.38Z"/><path class="cls-11" d="m30,32.55c-.34,0-.67-.14-.92-.38-.24-.24-.38-.58-.38-.92s.14-.68.38-.92c.49-.48,1.36-.48,1.84,0,.24.25.38.58.38.92s-.14.68-.38.92c-.24.24-.58.38-.92.38Z"/><path class="cls-11" d="m33,35.3c-.34,0-.67-.14-.92-.38-.24-.24-.38-.58-.38-.92s.14-.67.38-.92c.49-.48,1.36-.48,1.84,0,.24.24.38.58.38.92s-.14.68-.38.92c-.24.24-.58.38-.92.38Z"/><path class="cls-11" d="m36,35.8c-.34,0-.67-.14-.92-.38-.24-.24-.38-.58-.38-.92s.14-.68.38-.92c.49-.48,1.36-.48,1.84,0,.24.24.38.58.38.92s-.14.68-.38.92c-.24.24-.58.38-.92.38Z"/><path class="cls-11" d="m33.5,39.8c-.34,0-.67-.14-.92-.38-.24-.24-.38-.58-.38-.92s.14-.67.38-.92c.49-.48,1.36-.48,1.84,0,.24.24.38.58.38.92s-.14.68-.38.92c-.24.24-.58.38-.92.38Z"/><path class="cls-11" d="m34.5,43.55c-.34,0-.68-.14-.92-.38-.24-.24-.38-.58-.38-.92s.14-.68.38-.92c.49-.48,1.36-.48,1.84,0,.24.24.38.58.38.92s-.14.68-.38.92c-.24.24-.57.38-.92.38Z"/><path class="cls-11" d="m31.5,45.8c-.34,0-.68-.14-.92-.38-.24-.24-.38-.58-.38-.92s.14-.68.38-.92c.49-.48,1.35-.48,1.84,0,.25.25.38.58.38.92s-.14.68-.38.92c-.24.24-.58.38-.92.38Z"/><path class="cls-11" d="m34.75,47.3c-.34,0-.67-.14-.92-.38-.24-.24-.38-.58-.38-.92s.14-.68.38-.92c.49-.49,1.36-.48,1.84,0,.25.25.38.58.38.92s-.14.67-.38.92c-.24.24-.58.38-.92.38Z"/><path class="cls-11" d="m37.75,51.55c-.34,0-.68-.14-.92-.38-.24-.24-.38-.58-.38-.92s.14-.68.38-.92c.49-.49,1.36-.48,1.84,0,.24.24.38.58.38.92s-.14.68-.38.92c-.24.24-.58.38-.92.38Z"/><path class="cls-11" d="m32.75,50.55c-.34,0-.67-.14-.92-.38-.24-.24-.38-.58-.38-.92s.14-.68.38-.92c.49-.48,1.36-.48,1.84,0,.24.24.38.58.38.92s-.14.67-.38.92c-.24.24-.58.38-.92.38Z"/><path class="cls-11" d="m38.5,47.55c-.34,0-.67-.14-.92-.38-.24-.24-.38-.58-.38-.92s.14-.68.38-.92c.48-.48,1.36-.48,1.84,0,.24.24.38.58.38.92s-.14.68-.38.92c-.24.24-.57.38-.92.38Z"/><path class="cls-11" d="m38.25,43.05c-.34,0-.68-.14-.92-.38-.24-.24-.38-.58-.38-.92s.14-.68.38-.92c.49-.48,1.36-.48,1.84,0,.24.24.38.58.38.92s-.14.68-.38.92c-.24.24-.57.38-.92.38Z"/><path class="cls-11" d="m37.5,39.55c-.34,0-.67-.14-.92-.38-.24-.24-.38-.58-.38-.92s.14-.68.38-.92c.49-.48,1.36-.48,1.84,0,.25.25.38.58.38.92s-.13.67-.38.92c-.24.24-.58.38-.92.38Z"/><path class="cls-11" d="m33,35.3c-.34,0-.67-.14-.92-.38-.24-.24-.38-.58-.38-.92s.14-.67.38-.92c.49-.48,1.36-.48,1.84,0,.24.24.38.58.38.92s-.14.68-.38.92c-.24.24-.58.38-.92.38Z"/><path class="cls-11" d="m36,35.8c-.34,0-.67-.14-.92-.38-.24-.24-.38-.58-.38-.92s.14-.68.38-.92c.49-.48,1.36-.48,1.84,0,.24.24.38.58.38.92s-.14.68-.38.92c-.24.24-.58.38-.92.38Z"/><path class="cls-11" d="m33.75,32.05c-.34,0-.67-.14-.92-.38-.24-.24-.38-.58-.38-.92s.14-.68.38-.92c.48-.48,1.36-.48,1.84,0,.24.24.38.58.38.92s-.14.68-.38.92c-.24.24-.58.38-.92.38Z"/><path class="cls-11" d="m33.25,28.05c-.34,0-.68-.14-.92-.38-.24-.24-.38-.58-.38-.92s.14-.68.38-.92c.49-.48,1.36-.48,1.84,0,.24.24.38.58.38.92s-.14.68-.38.92c-.24.24-.57.38-.92.38Z"/><path class="cls-11" d="m37,28.3c-.34,0-.67-.14-.92-.38-.24-.24-.38-.58-.38-.92s.14-.68.38-.92c.49-.48,1.36-.48,1.84,0,.24.24.38.58.38.92s-.14.68-.38.92c-.24.24-.58.38-.92.38Z"/><path class="cls-11" d="m37.75,32.8c-.34,0-.67-.14-.92-.38-.24-.24-.38-.58-.38-.92s.14-.68.38-.92c.49-.49,1.36-.48,1.84,0,.24.24.38.58.38.92s-.14.68-.38.92c-.24.24-.58.38-.92.38Z"/><path class="cls-11" d="m40,36.05c-.34,0-.68-.14-.92-.38-.24-.24-.38-.58-.38-.92s.14-.68.38-.92c.48-.48,1.36-.48,1.84,0,.24.24.38.58.38.92s-.14.68-.38.92c-.24.24-.58.38-.92.38Z"/><path class="cls-11" d="m43,38.55c-.34,0-.68-.14-.92-.38-.24-.24-.38-.58-.38-.92s.14-.68.38-.92c.48-.48,1.36-.48,1.84,0,.24.24.38.58.38.92s-.14.68-.38.92c-.24.24-.58.38-.92.38Z"/><path class="cls-11" d="m42.5,42.3c-.34,0-.68-.14-.92-.38-.24-.24-.38-.58-.38-.92s.14-.68.38-.92c.49-.49,1.36-.48,1.84,0,.24.24.38.58.38.92s-.14.68-.38.92c-.24.24-.58.38-.92.38Z"/><path class="cls-11" d="m41.75,46.05c-.34,0-.67-.14-.92-.38-.24-.24-.38-.58-.38-.92s.14-.68.38-.92c.48-.48,1.36-.49,1.84,0,.24.24.38.58.38.92s-.14.68-.38.92c-.24.24-.58.38-.92.38Z"/><path class="cls-11" d="m43.75,49.55c-.34,0-.67-.14-.92-.38-.24-.24-.38-.58-.38-.92s.14-.68.38-.92c.48-.48,1.36-.49,1.84,0,.24.24.38.58.38.92s-.14.68-.38.92c-.24.24-.58.38-.92.38Z"/><path class="cls-11" d="m46.75,46.55c-.34,0-.68-.14-.92-.38-.24-.24-.38-.58-.38-.92s.14-.68.38-.92c.49-.48,1.36-.48,1.84,0,.24.24.38.58.38.92s-.14.68-.38.92c-.24.24-.58.38-.92.38Z"/><path class="cls-11" d="m46.75,51.05c-.34,0-.67-.14-.92-.38-.24-.24-.38-.58-.38-.92s.14-.68.38-.92c.49-.48,1.36-.48,1.84,0,.24.24.38.58.38.92s-.14.68-.38.92c-.24.24-.58.38-.92.38Z"/><path class="cls-11" d="m46.5,41.8c-.34,0-.68-.14-.92-.38-.24-.24-.38-.58-.38-.92s.14-.68.38-.92c.49-.48,1.36-.48,1.84,0,.24.24.38.58.38.92s-.14.68-.38.92c-.24.24-.58.38-.92.38Z"/><path class="cls-11" d="m47.75,38.8c-.34,0-.67-.14-.92-.38-.24-.24-.38-.58-.38-.92s.14-.68.38-.92c.48-.48,1.35-.48,1.84,0,.24.24.38.58.38.92s-.14.68-.38.92c-.24.24-.57.38-.92.38Z"/><path class="cls-11" d="m44.5,34.8c-.34,0-.68-.14-.92-.38-.24-.24-.38-.58-.38-.92s.14-.68.38-.92c.49-.48,1.36-.48,1.84,0,.24.24.38.58.38.92s-.14.68-.38.92c-.25.24-.57.38-.92.38Z"/><path class="cls-11" d="m42.75,32.3c-.34,0-.67-.14-.92-.38-.24-.24-.38-.58-.38-.92s.14-.67.38-.92c.49-.49,1.36-.48,1.84,0,.24.25.38.58.38.92s-.14.68-.38.92c-.24.24-.58.38-.92.38Z"/><path class="cls-11" d="m40.75,30.05c-.34,0-.67-.14-.92-.38-.24-.24-.38-.58-.38-.92s.14-.68.38-.92c.49-.49,1.36-.48,1.84,0,.24.24.38.58.38.92s-.14.68-.38.92c-.24.24-.57.38-.92.38Z"/><path class="cls-11" d="m44,28.05c-.34,0-.68-.14-.92-.38-.24-.24-.38-.58-.38-.92s.14-.68.38-.92c.49-.48,1.36-.48,1.84,0,.24.24.38.58.38.92s-.14.68-.38.92c-.24.24-.58.38-.92.38Z"/><path class="cls-11" d="m43,24.05c-.34,0-.67-.14-.92-.38-.24-.24-.38-.58-.38-.92s.14-.68.38-.92c.48-.48,1.36-.48,1.84,0,.24.24.38.58.38.92s-.14.68-.38.92c-.24.24-.58.38-.92.38Z"/><path class="cls-11" d="m47.75,26.8c-.34,0-.67-.14-.92-.38-.24-.24-.38-.58-.38-.92s.14-.68.38-.92c.49-.48,1.35-.48,1.84,0,.24.24.38.58.38.92s-.14.68-.38.92c-.24.24-.58.38-.92.38Z"/><path class="cls-11" d="m46.5,31.05c-.34,0-.67-.14-.92-.38-.24-.24-.38-.58-.38-.92s.14-.68.38-.92c.49-.48,1.36-.48,1.84,0,.24.24.38.58.38.92s-.14.68-.38.92c-.24.24-.58.38-.92.38Z"/><path class="cls-11" d="m48.5,34.3c-.34,0-.67-.14-.92-.38-.24-.24-.38-.58-.38-.92s.14-.68.38-.92c.48-.48,1.36-.48,1.84,0,.24.24.38.58.38.92s-.14.68-.38.92c-.24.24-.58.38-.92.38Z"/><path class="cls-11" d="m51.75,36.8c-.34,0-.67-.14-.92-.38-.24-.25-.38-.58-.38-.92s.14-.68.38-.92c.48-.48,1.35-.48,1.84,0,.24.24.38.58.38.92s-.14.68-.38.92c-.24.24-.58.38-.92.38Z"/><path class="cls-11" d="m51.5,40.8c-.34,0-.67-.14-.92-.38-.24-.25-.38-.58-.38-.92s.14-.67.38-.92c.49-.48,1.36-.48,1.84,0,.24.24.38.58.38.92s-.14.68-.38.92c-.24.24-.58.38-.92.38Z"/><path class="cls-11" d="m50.5,44.8c-.34,0-.67-.14-.92-.38-.24-.24-.38-.58-.38-.92s.14-.67.38-.92c.49-.49,1.36-.48,1.84,0,.24.25.38.58.38.92s-.14.68-.38.92c-.24.24-.58.38-.92.38Z"/><path class="cls-11" d="m54.25,44.05c-.34,0-.68-.14-.92-.38-.24-.24-.38-.58-.38-.92s.14-.68.38-.92c.49-.48,1.36-.48,1.84,0,.24.24.38.58.38.92s-.14.68-.38.92c-.24.24-.58.38-.92.38Z"/><path class="cls-11" d="m54,48.55c-.34,0-.68-.14-.92-.38-.24-.24-.38-.58-.38-.92s.14-.68.38-.92c.49-.48,1.36-.48,1.84,0,.24.24.38.58.38.92s-.14.68-.38.92c-.24.24-.58.38-.92.38Z"/><path class="cls-11" d="m56.75,51.55c-.34,0-.67-.14-.92-.38-.24-.24-.38-.58-.38-.92s.14-.68.38-.92c.49-.48,1.35-.49,1.84,0,.24.24.38.58.38.92s-.14.68-.38.92c-.24.24-.57.38-.92.38Z"/><path class="cls-11" d="m57.5,46.8c-.34,0-.67-.14-.92-.38-.24-.24-.38-.58-.38-.92s.14-.68.38-.92c.49-.48,1.36-.48,1.84,0,.24.24.38.58.38.92s-.14.68-.38.92c-.24.24-.58.38-.92.38Z"/><path class="cls-11" d="m57.5,43.05c-.34,0-.68-.14-.92-.38-.24-.24-.38-.58-.38-.92s.14-.68.38-.92c.49-.48,1.36-.48,1.84,0,.24.24.38.58.38.92s-.14.68-.38.92c-.24.24-.57.38-.92.38Z"/><path class="cls-11" d="m56.5,39.05c-.34,0-.67-.14-.92-.38-.24-.24-.38-.58-.38-.92s.14-.68.38-.92c.48-.48,1.36-.48,1.84,0,.24.24.38.58.38.92s-.14.68-.38.92c-.24.24-.58.38-.92.38Z"/><path class="cls-11" d="m27.25,44.05c-.34,0-.67-.14-.92-.38-.24-.24-.38-.58-.38-.92s.14-.68.38-.92c.49-.48,1.36-.49,1.84,0,.24.24.38.58.38.92s-.14.68-.38.92c-.24.24-.58.38-.92.38Z"/><path class="cls-11" d="m70.25,33.3c-.34,0-.68-.14-.92-.38-.24-.24-.38-.58-.38-.92s.14-.68.38-.92c.49-.49,1.36-.48,1.84,0,.24.24.38.58.38.92s-.14.68-.38.92c-.24.24-.58.38-.92.38Z"/><path class="cls-11" d="m71.25,29.05c-.34,0-.67-.14-.92-.38-.24-.24-.38-.58-.38-.92s.14-.68.38-.92c.49-.48,1.36-.48,1.84,0,.24.24.38.58.38.92s-.14.68-.38.92c-.24.24-.58.38-.92.38Z"/><path class="cls-11" d="m68,27.3c-.34,0-.67-.14-.92-.38-.24-.24-.38-.58-.38-.92s.14-.67.38-.92c.49-.49,1.36-.48,1.84,0,.24.24.38.58.38.92s-.14.68-.38.92c-.24.24-.58.38-.92.38Z"/><path class="cls-11" d="m68.25,36.55c-.34,0-.68-.14-.92-.38-.24-.24-.38-.58-.38-.92s.14-.68.38-.92c.49-.48,1.36-.48,1.84,0,.24.24.38.58.38.92s-.14.68-.38.92c-.24.24-.57.38-.92.38Z"/><path class="cls-11" d="m68,40.3c-.34,0-.67-.14-.92-.38-.24-.24-.38-.58-.38-.92s.14-.68.38-.92c.49-.49,1.36-.48,1.84,0,.24.24.38.58.38.92s-.14.68-.38.92c-.24.24-.58.38-.92.38Z"/><path class="cls-11" d="m71.5,39.05c-.34,0-.68-.14-.92-.38-.24-.24-.38-.58-.38-.92s.14-.68.38-.92c.49-.48,1.36-.48,1.84,0,.24.24.38.58.38.92s-.14.68-.38.92c-.24.24-.58.38-.92.38Z"/><path class="cls-11" d="m70.75,43.05c-.34,0-.67-.14-.92-.38-.24-.24-.38-.58-.38-.92s.14-.67.38-.92c.48-.48,1.36-.48,1.84,0,.24.24.38.58.38.92s-.14.68-.38.92c-.24.24-.58.38-.92.38Z"/><path class="cls-11" d="m70,50.55c-.34,0-.67-.14-.92-.38-.24-.24-.38-.58-.38-.92s.14-.68.38-.92c.48-.48,1.36-.49,1.84,0,.24.24.38.58.38.92s-.14.68-.38.92c-.24.24-.58.38-.92.38Z"/><path class="cls-11" d="m69,47.05c-.34,0-.67-.14-.92-.38-.24-.24-.38-.58-.38-.92s.14-.68.38-.92c.49-.48,1.36-.48,1.84,0,.24.24.38.58.38.92s-.14.68-.38.92c-.24.24-.58.38-.92.38Z"/><path class="cls-11" d="m66.5,31.05c-.34,0-.68-.14-.92-.38-.24-.24-.38-.58-.38-.92s.14-.68.38-.92c.48-.48,1.36-.48,1.84,0,.24.24.38.58.38.92s-.14.68-.38.92c-.24.24-.58.38-.92.38Z"/><path class="cls-11" d="m63,31.3c-.34,0-.67-.14-.92-.38-.24-.24-.38-.58-.38-.92s.14-.68.38-.92c.49-.48,1.35-.48,1.84,0,.24.24.38.58.38.92s-.14.68-.38.92c-.24.24-.57.38-.92.38Z"/><path class="cls-11" d="m64,26.55c-.34,0-.67-.14-.92-.38-.24-.24-.38-.58-.38-.92s.14-.68.38-.92c.49-.48,1.35-.48,1.84,0,.24.24.38.58.38.92s-.14.68-.38.92c-.24.24-.58.38-.92.38Z"/><path class="cls-11" d="m60.5,28.05c-.34,0-.67-.14-.92-.38-.24-.24-.38-.58-.38-.92s.14-.68.38-.92c.49-.48,1.35-.48,1.84,0,.24.24.38.58.38.92s-.14.68-.38.92c-.24.24-.57.38-.92.38Z"/><path class="cls-11" d="m56.75,27.05c-.34,0-.67-.14-.92-.38-.24-.24-.38-.58-.38-.92s.14-.68.38-.92c.49-.48,1.35-.48,1.84,0,.24.24.38.58.38.92s-.14.68-.38.92c-.24.24-.58.38-.92.38Z"/><path class="cls-11" d="m53.25,28.8c-.34,0-.67-.14-.92-.38-.24-.24-.38-.58-.38-.92s.14-.68.38-.92c.48-.48,1.35-.49,1.84,0,.24.24.38.58.38.92s-.14.68-.38.92c-.24.24-.57.38-.92.38Z"/><path class="cls-11" d="m50.25,29.8c-.34,0-.67-.14-.92-.38-.24-.24-.38-.58-.38-.92s.14-.68.38-.92c.49-.48,1.36-.48,1.84,0,.24.24.38.58.38.92s-.14.68-.38.92c-.24.24-.58.38-.92.38Z"/><path class="cls-11" d="m52.5,33.55c-.34,0-.67-.14-.92-.38-.24-.24-.38-.58-.38-.92s.14-.68.38-.92c.49-.48,1.35-.48,1.84,0,.24.24.38.58.38.92s-.14.68-.38.92c-.24.24-.58.38-.92.38Z"/><path class="cls-11" d="m56.75,31.05c-.34,0-.67-.14-.92-.38-.24-.24-.38-.58-.38-.92s.14-.68.38-.92c.49-.48,1.35-.48,1.84,0,.24.24.38.58.38.92s-.14.68-.38.92c-.24.24-.58.38-.92.38Z"/><path class="cls-11" d="m59.75,34.05c-.34,0-.68-.14-.92-.38-.24-.24-.38-.58-.38-.92s.14-.67.38-.92c.49-.48,1.36-.48,1.84,0,.24.24.38.58.38.92s-.14.68-.38.92c-.24.24-.58.38-.92.38Z"/><path class="cls-11" d="m56,35.55c-.34,0-.68-.14-.92-.38-.24-.24-.38-.58-.38-.92s.14-.68.38-.92c.48-.48,1.35-.49,1.84,0,.24.24.38.58.38.92s-.14.68-.38.92c-.24.24-.57.38-.92.38Z"/><path class="cls-11" d="m60,38.3c-.34,0-.67-.14-.92-.38-.24-.24-.38-.58-.38-.92s.14-.68.38-.92c.49-.48,1.35-.48,1.84,0,.24.24.38.58.38.92s-.14.68-.38.92c-.24.24-.58.38-.92.38Z"/><path class="cls-11" d="m64.5,34.8c-.34,0-.67-.14-.91-.38-.25-.24-.39-.58-.39-.92s.14-.68.38-.92c.48-.48,1.35-.49,1.84,0,.24.24.38.58.38.92s-.14.68-.38.92c-.24.24-.58.38-.92.38Z"/><path class="cls-11" d="m64.25,38.05c-.34,0-.67-.14-.92-.38-.24-.24-.38-.58-.38-.92s.14-.68.38-.92c.48-.48,1.35-.48,1.84,0,.24.24.38.58.38.92s-.14.68-.38.92c-.24.24-.58.38-.92.38Z"/><path class="cls-11" d="m61.5,42.3c-.34,0-.67-.14-.92-.38-.24-.24-.38-.58-.38-.92s.14-.68.38-.92c.49-.48,1.35-.48,1.84,0,.24.24.38.58.38.92s-.14.68-.38.92c-.24.24-.57.38-.92.38Z"/><path class="cls-11" d="m62.75,46.3c-.34,0-.67-.14-.92-.38-.24-.24-.38-.58-.38-.92s.14-.68.38-.92c.49-.48,1.35-.48,1.84,0,.24.24.38.58.38.92s-.14.68-.38.92c-.24.24-.57.38-.92.38Z"/><path class="cls-11" d="m57.5,46.8c-.34,0-.67-.14-.92-.38-.24-.24-.38-.58-.38-.92s.14-.68.38-.92c.49-.48,1.36-.48,1.84,0,.24.24.38.58.38.92s-.14.68-.38.92c-.24.24-.58.38-.92.38Z"/><path class="cls-11" d="m60.25,49.05c-.34,0-.68-.14-.92-.38-.24-.25-.38-.58-.38-.92s.14-.68.38-.92c.49-.48,1.35-.48,1.84,0,.24.24.38.58.38.92s-.13.68-.38.92c-.24.24-.58.38-.92.38Z"/><path class="cls-11" d="m65.75,49.3c-.34,0-.67-.14-.92-.38-.24-.24-.38-.58-.38-.92s.14-.68.38-.92c.49-.49,1.36-.48,1.84,0,.24.24.38.58.38.92s-.14.68-.38.92c-.24.24-.57.38-.92.38Z"/><path class="cls-11" d="m65.5,43.55c-.34,0-.67-.14-.92-.38-.24-.24-.38-.58-.38-.92s.14-.68.38-.92c.49-.48,1.37-.48,1.84,0,.24.24.38.58.38.92s-.14.68-.38.92c-.24.24-.58.38-.92.38Z"/><path class="cls-11" d="m50,49.05c-.34,0-.67-.14-.92-.38-.24-.24-.38-.58-.38-.92s.14-.67.38-.92c.49-.48,1.36-.48,1.84,0,.24.25.38.58.38.92s-.14.67-.38.92c-.24.24-.58.38-.92.38Z"/><path class="cls-11" d="m61.75,52.8c-.34,0-.67-.14-.92-.38-.24-.24-.38-.58-.38-.92s.14-.67.38-.92c.49-.48,1.36-.48,1.84,0,.24.24.38.58.38.92s-.14.68-.38.92c-.24.24-.58.38-.92.38Z"/><path class="cls-11" d="m6.75,58.8c-.34,0-.67-.14-.92-.38-.24-.24-.38-.58-.38-.92s.14-.68.38-.92c.48-.48,1.36-.48,1.84,0,.24.25.38.58.38.92s-.14.68-.38.92c-.24.24-.58.38-.92.38Z"/><path class="cls-11" d="m7.75,54.3c-.34,0-.67-.14-.92-.38-.24-.24-.38-.58-.38-.92s.14-.68.38-.92c.49-.48,1.35-.48,1.84,0,.24.24.38.58.38.92s-.14.68-.38.92c-.24.24-.58.38-.92.38Z"/><path class="cls-11" d="m11,53.05c-.34,0-.67-.14-.92-.38-.24-.24-.38-.58-.38-.92s.14-.68.38-.92c.49-.48,1.36-.48,1.84,0,.24.24.38.58.38.92s-.14.68-.38.92c-.24.24-.58.38-.92.38Z"/><path class="cls-11" d="m10,57.05c-.34,0-.67-.14-.92-.38-.24-.24-.38-.58-.38-.92s.14-.68.38-.92c.49-.48,1.36-.48,1.84,0,.24.24.38.58.38.92s-.14.68-.38.92c-.24.24-.58.38-.92.38Z"/><path class="cls-11" d="m13.5,59.05c-.34,0-.67-.14-.92-.38-.24-.24-.38-.58-.38-.92s.14-.68.38-.92c.49-.48,1.36-.48,1.84,0,.24.24.38.58.38.92s-.14.68-.38.92c-.24.24-.58.38-.92.38Z"/><path class="cls-11" d="m13.5,63.05c-.34,0-.67-.14-.92-.38-.24-.24-.38-.58-.38-.92s.14-.68.38-.92c.49-.48,1.36-.48,1.84,0,.24.24.38.58.38.92s-.14.68-.38.92c-.24.24-.58.38-.92.38Z"/><path class="cls-11" d="m9.5,61.3c-.34,0-.67-.14-.92-.38-.24-.24-.38-.58-.38-.92s.14-.68.38-.92c.48-.48,1.36-.48,1.84,0,.25.24.38.58.38.92s-.13.68-.38.92c-.24.24-.58.38-.92.38Z"/><path class="cls-11" d="m17,60.05c-.34,0-.68-.14-.92-.38-.24-.24-.38-.58-.38-.92s.14-.68.38-.92c.48-.48,1.36-.48,1.84,0,.24.24.38.58.38.92s-.14.68-.38.92c-.24.24-.57.38-.92.38Z"/><path class="cls-11" d="m17.25,63.05c-.34,0-.68-.14-.92-.38-.24-.24-.38-.58-.38-.92s.14-.67.38-.92c.49-.48,1.36-.48,1.84,0,.24.25.38.58.38.92s-.14.68-.38.92c-.24.24-.57.38-.92.38Z"/><path class="cls-11" d="m19,56.8c-.34,0-.67-.14-.92-.38-.24-.24-.38-.58-.38-.92s.14-.68.38-.92c.48-.48,1.36-.49,1.84,0,.24.24.38.58.38.92s-.14.68-.38.92c-.24.24-.58.38-.92.38Z"/><path class="cls-11" d="m22,54.55c-.34,0-.67-.14-.92-.38-.24-.24-.38-.58-.38-.92s.14-.68.38-.92c.49-.48,1.36-.48,1.84,0,.24.24.38.58.38.92s-.14.68-.38.92c-.24.24-.58.38-.92.38Z"/><path class="cls-11" d="m19,56.8c-.34,0-.67-.14-.92-.38-.24-.24-.38-.58-.38-.92s.14-.68.38-.92c.48-.48,1.36-.49,1.84,0,.24.24.38.58.38.92s-.14.68-.38.92c-.24.24-.58.38-.92.38Z"/><path class="cls-11" d="m22.25,58.3c-.34,0-.67-.14-.92-.38-.24-.24-.38-.58-.38-.92s.14-.68.38-.92c.49-.48,1.36-.48,1.84,0,.24.24.38.58.38.92s-.14.68-.38.92c-.24.24-.58.38-.92.38Z"/><path class="cls-11" d="m25.25,62.55c-.34,0-.67-.14-.92-.38-.24-.24-.38-.58-.38-.92s.14-.68.38-.92c.49-.48,1.35-.48,1.84,0,.25.25.38.58.38.92s-.14.68-.38.92c-.24.24-.58.38-.92.38Z"/><path class="cls-11" d="m20.25,61.55c-.34,0-.67-.14-.92-.38-.24-.24-.38-.58-.38-.92s.14-.68.38-.92c.49-.48,1.36-.48,1.84,0,.24.24.38.58.38.92s-.14.68-.38.92c-.24.24-.57.38-.92.38Z"/><path class="cls-11" d="m26,59.55c-.34,0-.68-.14-.92-.38-.24-.24-.38-.58-.38-.92s.14-.68.38-.92c.49-.48,1.36-.48,1.84,0,.24.24.38.58.38.92s-.14.68-.38.92c-.24.24-.57.38-.92.38Z"/><path class="cls-11" d="m25.75,55.05c-.34,0-.67-.14-.92-.38-.24-.24-.38-.58-.38-.92s.14-.68.38-.92c.49-.48,1.36-.48,1.84,0,.24.24.38.58.38.92s-.14.68-.38.92c-.24.24-.58.38-.92.38Z"/><path class="cls-11" d="m30,53.3c-.34,0-.67-.14-.92-.38-.24-.24-.38-.58-.38-.92s.14-.68.38-.92c.48-.48,1.36-.48,1.84,0,.24.25.38.58.38.92s-.14.67-.38.92c-.24.24-.57.38-.92.38Z"/><path class="cls-11" d="m29.25,56.3c-.34,0-.68-.14-.92-.38-.24-.24-.38-.58-.38-.92s.14-.68.38-.92c.49-.48,1.36-.48,1.84,0,.24.24.38.58.38.92s-.14.68-.38.92c-.24.24-.57.38-.92.38Z"/><path class="cls-11" d="m30.5,60.05c-.34,0-.68-.14-.92-.38-.24-.24-.38-.58-.38-.92s.14-.67.38-.92c.49-.49,1.36-.48,1.84,0,.24.25.38.58.38.92s-.14.68-.38.92c-.24.24-.58.38-.92.38Z"/><path class="cls-11" d="m34.25,57.55c-.34,0-.67-.14-.92-.38-.24-.24-.38-.58-.38-.92s.14-.68.38-.92c.49-.49,1.36-.48,1.84,0,.24.24.38.58.38.92s-.14.68-.38.92c-.24.24-.58.38-.92.38Z"/><path class="cls-11" d="m34,63.05c-.34,0-.68-.14-.92-.38-.24-.24-.38-.58-.38-.92s.14-.68.38-.92c.48-.48,1.35-.48,1.84,0,.24.24.38.58.38.92s-.14.68-.38.92c-.24.24-.58.38-.92.38Z"/><path class="cls-11" d="m34.5,54.05c-.34,0-.67-.14-.92-.38-.24-.24-.38-.58-.38-.92s.14-.68.38-.92c.49-.48,1.36-.48,1.84,0,.24.24.38.58.38.92s-.14.68-.38.92c-.24.24-.58.38-.92.38Z"/><path class="cls-11" d="m38,55.8c-.34,0-.67-.14-.92-.38-.24-.24-.38-.58-.38-.92s.14-.68.38-.92c.48-.48,1.36-.49,1.84,0,.24.24.38.58.38.92s-.14.68-.38.92c-.24.24-.58.38-.92.38Z"/><path class="cls-11" d="m14.75,55.05c-.34,0-.68-.14-.92-.38-.24-.24-.38-.58-.38-.92s.14-.67.38-.92c.49-.48,1.36-.48,1.84,0,.24.25.38.58.38.92s-.14.68-.38.92c-.24.24-.58.38-.92.38Z"/><path class="cls-11" d="m37,59.8c-.34,0-.67-.14-.92-.38-.24-.24-.38-.58-.38-.92s.14-.68.38-.92c.49-.49,1.36-.48,1.84,0,.25.24.38.58.38.92s-.14.68-.38.92c-.24.24-.58.38-.92.38Z"/><path class="cls-11" d="m3.5,65.3c-.34,0-.68-.14-.92-.38-.24-.24-.38-.58-.38-.92s.14-.68.38-.92c.49-.48,1.36-.48,1.84,0,.24.24.38.58.38.92s-.14.68-.38.92c-.24.24-.58.38-.92.38Z"/><path class="cls-11" d="m2.5,69.3c-.34,0-.68-.14-.92-.38-.24-.24-.38-.58-.38-.92s.14-.68.38-.92c.49-.48,1.35-.48,1.84,0,.24.24.38.58.38.92s-.13.68-.38.92c-.24.24-.58.38-.92.38Z"/><path class="cls-11" d="m11.5,69.05c-.34,0-.67-.14-.92-.38-.24-.24-.38-.58-.38-.92s.14-.67.38-.92c.48-.48,1.36-.48,1.84,0,.24.25.38.58.38.92s-.14.68-.38.92c-.24.24-.58.38-.92.38Z"/><path class="cls-11" d="m10.25,65.05c-.34,0-.67-.14-.92-.38-.24-.24-.38-.58-.38-.92s.14-.68.38-.92c.49-.48,1.36-.48,1.84,0,.24.24.38.58.38.92s-.14.68-.38.92c-.24.24-.58.38-.92.38Z"/><path class="cls-11" d="m14.5,66.8c-.34,0-.68-.14-.92-.38-.24-.24-.38-.58-.38-.92s.14-.68.38-.92c.49-.48,1.36-.48,1.84,0,.24.25.38.58.38.92s-.14.68-.38.92c-.24.24-.57.38-.92.38Z"/><path class="cls-11" d="m11.5,69.05c-.34,0-.67-.14-.92-.38-.24-.24-.38-.58-.38-.92s.14-.67.38-.92c.48-.48,1.36-.48,1.84,0,.24.25.38.58.38.92s-.14.68-.38.92c-.24.24-.58.38-.92.38Z"/><path class="cls-11" d="m18.25,66.3c-.34,0-.67-.14-.92-.38-.24-.24-.38-.58-.38-.92s.14-.67.38-.92c.49-.49,1.36-.48,1.84,0,.24.24.38.58.38.92s-.14.68-.38.92c-.24.24-.58.38-.92.38Z"/><path class="cls-11" d="m22.5,65.55c-.34,0-.67-.14-.92-.38-.24-.24-.38-.58-.38-.92s.14-.67.38-.92c.49-.49,1.36-.48,1.84,0,.24.25.38.58.38.92s-.14.68-.38.92c-.24.24-.58.38-.92.38Z"/><path class="cls-11" d="m21.75,68.55c-.34,0-.67-.14-.92-.38-.24-.24-.38-.58-.38-.92s.14-.68.38-.92c.49-.48,1.35-.49,1.84,0,.24.25.38.58.38.92s-.14.68-.38.92c-.24.24-.57.38-.92.38Z"/><path class="cls-11" d="m26.75,69.8c-.34,0-.67-.14-.92-.38-.24-.24-.38-.58-.38-.92s.14-.68.38-.92c.49-.48,1.36-.48,1.84,0,.24.24.38.58.38.92s-.14.68-.38.92c-.24.24-.58.38-.92.38Z"/><path class="cls-11" d="m27,66.3c-.34,0-.67-.14-.92-.38-.24-.24-.38-.58-.38-.92s.14-.68.38-.92c.49-.48,1.35-.49,1.84,0,.24.24.38.58.38.92s-.14.68-.38.92c-.24.24-.58.38-.92.38Z"/><path class="cls-11" d="m31,68.8c-.34,0-.67-.14-.92-.38-.24-.24-.38-.58-.38-.92s.14-.68.38-.92c.48-.48,1.36-.49,1.84,0,.24.24.38.58.38.92s-.14.68-.38.92c-.24.24-.58.38-.92.38Z"/><path class="cls-11" d="m34.25,67.3c-.34,0-.67-.14-.92-.38-.24-.24-.38-.58-.38-.92s.14-.68.38-.92c.49-.49,1.36-.48,1.84,0,.24.24.38.58.38.92s-.14.68-.38.92c-.24.24-.58.38-.92.38Z"/><path class="cls-11" d="m7.25,67.3c-.34,0-.67-.14-.92-.38-.24-.24-.38-.58-.38-.92s.14-.68.38-.92c.48-.48,1.36-.49,1.84,0,.24.24.38.58.38.92s-.14.68-.38.92c-.24.24-.58.38-.92.38Z"/><path class="cls-11" d="m41.5,52.3c-.34,0-.67-.14-.92-.38-.24-.24-.38-.58-.38-.92s.14-.68.38-.92c.49-.48,1.36-.48,1.84,0,.24.24.38.58.38.92s-.14.68-.38.92c-.24.24-.58.38-.92.38Z"/><path class="cls-11" d="m44,58.55c-.34,0-.67-.14-.92-.38-.24-.24-.38-.58-.38-.92s.14-.68.38-.92c.49-.48,1.36-.48,1.84,0,.24.24.38.58.38.92s-.14.68-.38.92c-.24.24-.58.38-.92.38Z"/><path class="cls-11" d="m44.5,54.55c-.34,0-.68-.14-.92-.38-.24-.24-.38-.58-.38-.92s.14-.68.38-.92c.49-.48,1.36-.48,1.84,0,.24.24.38.58.38.92s-.14.68-.38.92c-.24.24-.58.38-.92.38Z"/><path class="cls-11" d="m49.25,53.55c-.34,0-.68-.14-.92-.38-.24-.24-.38-.58-.38-.92s.14-.67.38-.92c.49-.48,1.36-.48,1.84,0,.24.24.38.58.38.92s-.14.68-.38.92c-.24.24-.57.38-.92.38Z"/><path class="cls-11" d="m50,58.3c-.34,0-.68-.14-.92-.38-.24-.24-.38-.58-.38-.92s.14-.68.38-.92c.49-.48,1.36-.48,1.84,0,.24.24.38.58.38.92s-.14.68-.38.92c-.24.24-.58.38-.92.38Z"/><path class="cls-11" d="m47,61.05c-.34,0-.67-.14-.92-.38-.24-.24-.38-.58-.38-.92s.14-.68.38-.92c.49-.48,1.36-.48,1.84,0,.24.24.38.58.38.92s-.14.68-.38.92c-.24.24-.58.38-.92.38Z"/><path class="cls-11" d="m43.75,62.8c-.34,0-.67-.14-.92-.38-.24-.24-.38-.58-.38-.92s.14-.68.38-.92c.48-.48,1.36-.49,1.84,0,.24.24.38.58.38.92s-.14.68-.38.92c-.24.24-.58.38-.92.38Z"/><path class="cls-11" d="m44,58.55c-.34,0-.67-.14-.92-.38-.24-.24-.38-.58-.38-.92s.14-.68.38-.92c.49-.48,1.36-.48,1.84,0,.24.24.38.58.38.92s-.14.68-.38.92c-.24.24-.58.38-.92.38Z"/><path class="cls-11" d="m41.75,66.05c-.34,0-.67-.14-.92-.38-.24-.24-.38-.58-.38-.92s.14-.68.38-.92c.48-.48,1.36-.48,1.84,0,.24.24.38.58.38.92s-.14.68-.38.92c-.24.24-.58.38-.92.38Z"/><path class="cls-11" d="m46.5,65.8c-.34,0-.67-.14-.92-.38-.24-.24-.38-.58-.38-.92s.14-.68.38-.92c.49-.48,1.36-.48,1.84,0,.24.24.38.58.38.92s-.14.68-.38.92c-.24.24-.58.38-.92.38Z"/><path class="cls-11" d="m50,67.05c-.34,0-.67-.14-.92-.38-.24-.24-.38-.58-.38-.92s.14-.68.38-.92c.49-.49,1.36-.48,1.84,0,.24.25.38.58.38.92s-.14.67-.38.92c-.24.24-.58.38-.92.38Z"/><path class="cls-11" d="m50.25,62.55c-.34,0-.67-.14-.92-.38-.24-.24-.38-.58-.38-.92s.14-.68.38-.92c.49-.48,1.36-.48,1.84,0,.24.24.38.58.38.92s-.14.68-.38.92c-.24.24-.58.38-.92.38Z"/><path class="cls-11" d="m3.25,61.05c-.34,0-.68-.14-.92-.38-.24-.24-.38-.58-.38-.92s.14-.68.38-.92c.49-.49,1.36-.48,1.84,0,.24.25.38.58.38.92s-.14.68-.38.92c-.24.24-.58.38-.92.38Z"/><path class="cls-11" d="m3.75,56.3c-.34,0-.68-.14-.92-.38-.24-.24-.38-.58-.38-.92s.14-.68.38-.92c.49-.48,1.36-.48,1.84,0,.24.24.38.58.38.92s-.14.68-.38.92c-.24.24-.58.38-.92.38Z"/><path class="cls-11" d="m70,69.05c-.34,0-.67-.14-.92-.38-.24-.24-.38-.58-.38-.92s.14-.68.38-.92c.48-.48,1.36-.48,1.84,0,.24.24.38.58.38.92s-.14.68-.38.92c-.24.24-.58.38-.92.38Z"/><path class="cls-11" d="m66.75,67.55c-.34,0-.68-.14-.92-.38-.24-.24-.38-.58-.38-.92s.14-.68.38-.92c.49-.49,1.36-.48,1.84,0,.24.24.38.58.38.92s-.14.68-.38.92c-.24.24-.57.38-.92.38Z"/><path class="cls-11" d="m72.75,66.55c-.34,0-.67-.14-.92-.38-.24-.24-.38-.58-.38-.92s.14-.68.38-.92c.48-.48,1.36-.48,1.84,0,.24.24.38.58.38.92s-.14.68-.38.92c-.24.24-.58.38-.92.38Z"/><path class="cls-11" d="m69.5,53.8c-.34,0-.67-.14-.92-.38-.24-.24-.38-.58-.38-.92s.14-.68.38-.92c.49-.48,1.36-.48,1.84,0,.24.24.38.58.38.92s-.14.68-.38.92c-.24.24-.58.38-.92.38Z"/><path class="cls-11" d="m69.25,59.05c-.34,0-.68-.14-.92-.38-.24-.24-.38-.58-.38-.92s.14-.68.38-.92c.49-.48,1.37-.48,1.84,0,.24.24.38.58.38.92s-.14.68-.38.92c-.24.24-.58.38-.92.38Z"/><path class="cls-11" d="m69.5,53.8c-.34,0-.67-.14-.92-.38-.24-.24-.38-.58-.38-.92s.14-.68.38-.92c.49-.48,1.36-.48,1.84,0,.24.24.38.58.38.92s-.14.68-.38.92c-.24.24-.58.38-.92.38Z"/><path class="cls-11" d="m71,62.8c-.34,0-.68-.14-.92-.38-.24-.24-.38-.58-.38-.92s.14-.68.38-.92c.48-.48,1.35-.48,1.84,0,.24.24.38.58.38.92s-.14.68-.38.92c-.24.24-.58.38-.92.38Z"/><path class="cls-11" d="m39.25,63.3c-.34,0-.68-.14-.92-.38-.24-.24-.38-.58-.38-.92s.14-.68.38-.92c.49-.49,1.36-.48,1.84,0,.24.24.38.58.38.92s-.14.68-.38.92c-.24.24-.57.38-.92.38Z"/><path class="cls-11" d="m37.75,66.3c-.34,0-.68-.14-.92-.38-.24-.24-.38-.58-.38-.92s.14-.68.38-.92c.49-.49,1.36-.48,1.84,0,.24.24.38.58.38.92s-.14.68-.38.92c-.24.24-.57.38-.92.38Z"/><path class="cls-11" d="m53,60.55c-.34,0-.67-.14-.92-.38-.24-.24-.38-.58-.38-.92s.14-.67.38-.92c.49-.48,1.35-.48,1.84,0,.24.25.38.58.38.92s-.14.68-.38.92c-.24.24-.57.38-.92.38Z"/><path class="cls-11" d="m56,61.05c-.34,0-.68-.14-.92-.38-.24-.24-.38-.58-.38-.92s.14-.68.38-.92c.49-.48,1.35-.48,1.84,0,.24.24.38.58.38.92s-.14.68-.38.92c-.24.24-.58.38-.92.38Z"/><path class="cls-11" d="m53.5,65.05c-.34,0-.67-.14-.92-.38-.24-.24-.38-.58-.38-.92s.14-.68.38-.92c.49-.48,1.36-.48,1.84,0,.24.24.38.58.38.92s-.14.68-.38.92c-.24.24-.58.38-.92.38Z"/><path class="cls-11" d="m57.5,64.8c-.34,0-.67-.14-.92-.38-.24-.24-.38-.58-.38-.92s.14-.68.38-.92c.49-.48,1.36-.48,1.84,0,.24.24.38.58.38.92s-.14.68-.38.92c-.24.24-.58.38-.92.38Z"/><path class="cls-11" d="m53,60.55c-.34,0-.67-.14-.92-.38-.24-.24-.38-.58-.38-.92s.14-.67.38-.92c.49-.48,1.35-.48,1.84,0,.24.25.38.58.38.92s-.14.68-.38.92c-.24.24-.57.38-.92.38Z"/><path class="cls-11" d="m56,61.05c-.34,0-.68-.14-.92-.38-.24-.24-.38-.58-.38-.92s.14-.68.38-.92c.49-.48,1.35-.48,1.84,0,.24.24.38.58.38.92s-.14.68-.38.92c-.24.24-.58.38-.92.38Z"/><path class="cls-11" d="m53.75,56.55c-.34,0-.68-.14-.92-.38-.24-.24-.38-.58-.38-.92s.14-.68.38-.92c.49-.48,1.35-.48,1.84,0,.24.24.38.58.38.92s-.14.68-.38.92c-.24.24-.57.38-.92.38Z"/><path class="cls-11" d="m57.75,58.05c-.34,0-.67-.14-.92-.38-.24-.24-.38-.58-.38-.92s.14-.68.38-.92c.49-.48,1.35-.48,1.84,0,.24.24.38.58.38.92s-.14.68-.38.92c-.24.24-.58.38-.92.38Z"/><path class="cls-11" d="m60,61.3c-.34,0-.67-.14-.92-.38-.24-.24-.38-.58-.38-.92s.14-.68.38-.92c.49-.48,1.35-.48,1.84,0,.24.24.38.58.38.92s-.14.68-.38.92c-.24.24-.58.38-.92.38Z"/><path class="cls-11" d="m62,63.55c-.34,0-.68-.14-.92-.38-.24-.24-.38-.58-.38-.92s.14-.67.38-.92c.49-.48,1.35-.48,1.84,0,.24.24.38.58.38.92s-.14.68-.38.92c-.24.24-.57.38-.92.38Z"/><path class="cls-11" d="m62.5,67.55c-.34,0-.67-.14-.92-.38-.24-.24-.38-.58-.38-.92s.14-.68.38-.92c.49-.48,1.35-.48,1.84,0,.24.24.38.58.38.92s-.14.68-.38.92c-.24.24-.58.38-.92.38Z"/><path class="cls-11" d="m64.5,60.05c-.34,0-.68-.14-.92-.38-.24-.24-.38-.58-.38-.92s.14-.68.38-.92c.48-.48,1.35-.49,1.84,0,.24.24.38.58.38.92s-.14.68-.38.92c-.24.24-.57.38-.92.38Z"/><path class="cls-11" d="m62.75,57.55c-.34,0-.67-.14-.92-.38-.24-.25-.38-.58-.38-.92s.14-.68.38-.92c.49-.48,1.35-.48,1.84,0,.24.24.38.58.38.92s-.14.68-.38.92c-.24.24-.58.38-.92.38Z"/><path class="cls-11" d="m58.5,54.55c-.34,0-.67-.14-.92-.38-.24-.24-.38-.58-.38-.92s.14-.68.38-.92c.49-.48,1.35-.48,1.84,0,.24.24.38.58.38.92s-.14.68-.38.92c-.24.24-.58.38-.92.38Z"/><path class="cls-11" d="m66.5,56.3c-.34,0-.67-.14-.92-.38-.24-.24-.38-.58-.38-.92s.14-.68.38-.92c.49-.48,1.35-.48,1.84,0,.24.24.38.58.38.92s-.14.68-.38.92c-.24.24-.58.38-.92.38Z"/><path class="cls-11" d="m66.75,63.55c-.34,0-.68-.14-.92-.38-.24-.24-.38-.58-.38-.92s.14-.68.38-.92c.49-.49,1.36-.48,1.84,0,.24.24.38.58.38.92s-.14.68-.38.92c-.24.24-.57.38-.92.38Z"/><path class="cls-11" d="m53.5,53.05c-.34,0-.67-.14-.92-.38-.24-.24-.38-.58-.38-.92s.14-.68.38-.92c.49-.48,1.36-.48,1.84,0,.24.24.38.58.38.92s-.14.68-.38.92c-.24.24-.58.38-.92.38Z"/><path class="cls-11" d="m58.25,68.3c-.34,0-.68-.14-.92-.38-.24-.24-.38-.58-.38-.92s.14-.68.38-.92c.49-.48,1.36-.48,1.84,0,.24.24.38.58.38.92s-.14.68-.38.92c-.24.24-.57.38-.92.38Z"/><path class="cls-11" d="m64.25,70.3c-.34,0-.67-.14-.92-.38-.24-.24-.38-.58-.38-.92s.14-.68.38-.92c.48-.48,1.36-.48,1.84,0,.24.24.38.58.38.92s-.14.68-.38.92c-.24.24-.58.38-.92.38Z"/><path class="cls-11" d="m65.25,52.8c-.34,0-.68-.14-.92-.38-.24-.24-.38-.58-.38-.92s.14-.68.38-.92c.48-.48,1.36-.48,1.84,0,.24.24.38.58.38.92s-.14.68-.38.92c-.24.24-.58.38-.92.38Z"/><path class="cls-11" d="m9.5,26.3c-.34,0-.67-.14-.92-.38-.24-.24-.38-.58-.38-.92s.14-.68.38-.92c.48-.48,1.36-.48,1.84,0,.25.24.38.58.38.92s-.13.67-.38.92c-.24.24-.58.38-.92.38Z"/><path class="cls-11" d="m5.75,62.8c-.34,0-.67-.14-.92-.38-.24-.24-.38-.58-.38-.92s.14-.68.38-.92c.49-.48,1.36-.48,1.84,0,.24.25.38.58.38.92s-.14.67-.38.92c-.24.24-.58.38-.92.38Z"/><path class="cls-11" d="m30.25,63.8c-.34,0-.67-.14-.92-.38-.24-.24-.38-.58-.38-.92s.14-.68.38-.92c.48-.48,1.36-.48,1.84,0,.24.24.38.58.38.92s-.14.68-.38.92c-.24.24-.58.38-.92.38Z"/><path class="cls-11" d="m40.5,58.3c-.34,0-.67-.14-.92-.38-.24-.24-.38-.58-.38-.92s.14-.68.38-.92c.49-.48,1.36-.48,1.84,0,.24.24.38.58.38.92s-.14.68-.38.92c-.24.24-.58.38-.92.38Z"/><path class="cls-11" d="m47.25,56.8c-.34,0-.68-.14-.92-.38-.24-.24-.38-.58-.38-.92s.14-.68.38-.92c.49-.49,1.36-.48,1.84,0,.24.24.38.58.38.92s-.14.68-.38.92c-.24.24-.58.38-.92.38Z"/><path class="cls-11" d="m41,72.8c-.34,0-.67-.14-.92-.38-.24-.24-.38-.58-.38-.92s.14-.68.38-.92c.48-.48,1.36-.48,1.84,0,.24.24.38.58.38.92s-.14.68-.38.92c-.24.24-.58.38-.92.38Z"/><path class="cls-11" d="m11.5,74.05c-.34,0-.67-.14-.92-.38-.24-.24-.38-.58-.38-.92s.14-.68.38-.92c.48-.48,1.36-.48,1.84,0,.24.24.38.58.38.92s-.14.68-.38.92c-.24.24-.58.38-.92.38Z"/><path class="cls-11" d="m21.25,73.8c-.34,0-.67-.14-.92-.38-.24-.24-.38-.58-.38-.92s.14-.67.38-.92c.48-.48,1.35-.48,1.84,0,.24.24.38.58.38.92s-.14.68-.38.92c-.24.24-.58.38-.92.38Z"/><path class="cls-11" d="m17,74.55c-.34,0-.68-.14-.92-.38-.24-.24-.38-.58-.38-.92s.14-.68.38-.92c.49-.48,1.36-.48,1.84,0,.24.24.38.58.38.92s-.14.68-.38.92c-.24.24-.57.38-.92.38Z"/><path class="cls-11" d="m27.75,74.55c-.34,0-.68-.14-.92-.38-.24-.24-.38-.58-.38-.92s.14-.68.38-.92c.49-.48,1.36-.48,1.84,0,.24.24.38.58.38.92s-.14.68-.38.92c-.24.24-.57.38-.92.38Z"/><path class="cls-11" d="m55,73.55c-.34,0-.68-.14-.92-.38-.24-.24-.38-.58-.38-.92s.14-.68.38-.92c.49-.48,1.36-.48,1.84,0,.24.24.38.58.38.92s-.14.68-.38.92c-.24.24-.58.38-.92.38Z"/><path class="cls-11" d="m7.75,74.05c-.34,0-.67-.14-.92-.38-.24-.24-.38-.58-.38-.92s.14-.68.38-.92c.48-.48,1.36-.48,1.84,0,.24.24.38.58.38.92s-.14.67-.38.92c-.24.24-.58.38-.92.38Z"/><path class="cls-11" d="m55,73.55c-.34,0-.68-.14-.92-.38-.24-.24-.38-.58-.38-.92s.14-.68.38-.92c.49-.48,1.36-.48,1.84,0,.24.24.38.58.38.92s-.14.68-.38.92c-.24.24-.58.38-.92.38Z"/><path class="cls-11" d="m72.5,10.3c-.34,0-.68-.14-.92-.38-.24-.24-.38-.58-.38-.92s.14-.67.38-.92c.49-.49,1.36-.49,1.84,0,.24.24.38.58.38.92s-.14.68-.38.92c-.24.24-.58.38-.92.38Z"/><path class="cls-11" d="m72.75,13.55c-.34,0-.67-.14-.92-.38-.24-.24-.38-.58-.38-.92s.14-.68.38-.92c.48-.48,1.36-.49,1.84,0,.24.24.38.58.38.92s-.14.68-.38.92c-.24.24-.58.38-.92.38Z"/><path class="cls-11" d="m73,20.8c-.34,0-.68-.14-.92-.38-.24-.24-.38-.58-.38-.92s.14-.68.38-.92c.49-.48,1.36-.48,1.84,0,.24.24.38.58.38.92s-.14.68-.38.92c-.24.24-.58.38-.92.38Z"/><path class="cls-11" d="m72.25,24.05c-.34,0-.68-.14-.92-.38-.24-.24-.38-.58-.38-.92s.14-.68.38-.92c.49-.48,1.36-.48,1.84,0,.24.24.38.58.38.92s-.14.68-.38.92c-.24.24-.58.38-.92.38Z"/><path class="cls-11" d="m72.75,72.05c-.34,0-.67-.14-.92-.38-.24-.24-.38-.58-.38-.92s.14-.68.38-.92c.48-.48,1.36-.49,1.84,0,.24.24.38.58.38.92s-.14.68-.38.92c-.24.24-.58.38-.92.38Z"/><path class="cls-11" d="m73.25,46.55c-.34,0-.67-.14-.92-.38-.24-.24-.38-.58-.38-.92s.14-.68.38-.92c.48-.48,1.36-.49,1.84,0,.24.24.38.58.38.92s-.14.68-.38.92c-.24.24-.58.38-.92.38Z"/><path class="cls-11" d="m72.25,57.3c-.34,0-.68-.14-.92-.38-.24-.24-.38-.58-.38-.92s.14-.68.38-.92c.49-.48,1.36-.48,1.84,0,.24.24.38.58.38.92s-.14.68-.38.92c-.24.24-.58.38-.92.38Z"/><path class="cls-11" d="m73.25,53.3c-.34,0-.68-.14-.92-.38-.24-.24-.38-.58-.38-.92s.14-.68.38-.92c.49-.48,1.36-.48,1.84,0,.24.24.38.58.38.92s-.14.68-.38.92c-.24.24-.58.38-.92.38Z"/><path class="cls-11" d="m46.25,71.8c-.34,0-.67-.14-.92-.38-.24-.24-.38-.58-.38-.92s.14-.67.38-.92c.49-.48,1.35-.48,1.84,0,.24.25.38.58.38.92s-.14.68-.38.92c-.24.24-.58.38-.92.38Z"/><path class="cls-11" d="m40.5,69.3c-.34,0-.67-.14-.92-.38-.24-.24-.38-.58-.38-.92s.14-.68.38-.92c.48-.48,1.36-.48,1.84,0,.24.24.38.58.38.92s-.14.68-.38.92c-.24.24-.58.38-.92.38Z"/><path class="cls-11" d="m-1.25,3.3c-.34,0-.67-.14-.92-.38-.24-.25-.38-.58-.38-.92s.14-.68.38-.92c.49-.48,1.36-.48,1.84,0C-.09,1.32.05,1.66.05,2s-.14.68-.38.92c-.24.24-.58.38-.92.38Z"/><path class="cls-11" d="m-.5,18.05c-.34,0-.67-.14-.92-.38-.24-.24-.38-.58-.38-.92s.14-.68.38-.92c.48-.48,1.36-.48,1.84,0,.24.24.38.58.38.92s-.14.68-.38.92c-.24.24-.58.38-.92.38Z"/><path class="cls-11" d="m-.75,29.05c-.34,0-.67-.14-.92-.38-.24-.24-.38-.58-.38-.92s.14-.68.38-.92c.49-.48,1.36-.48,1.84,0,.24.24.38.58.38.92s-.14.68-.38.92c-.24.24-.58.38-.92.38Z"/><path class="cls-11" d="m-.5,39.05c-.34,0-.68-.14-.92-.38-.24-.24-.38-.58-.38-.92s.14-.68.38-.92c.49-.48,1.36-.48,1.84,0,.24.24.38.58.38.92s-.14.68-.38.92c-.24.24-.58.38-.92.38Z"/><path class="cls-11" d="m-1.25,43.05c-.34,0-.67-.14-.92-.38-.24-.24-.38-.58-.38-.92s.14-.67.38-.92c.48-.48,1.36-.48,1.84,0,.24.24.38.58.38.92s-.14.68-.38.92c-.24.24-.58.38-.92.38Z"/><path class="cls-11" d="m.75,66.55c-.34,0-.67-.14-.92-.38-.24-.24-.38-.58-.38-.92s.14-.68.38-.92c.48-.48,1.36-.48,1.84,0,.24.24.38.58.38.92s-.14.68-.38.92c-.24.24-.58.38-.92.38Z"/><path class="cls-11" d="m-1,62.8c-.34,0-.68-.14-.92-.38-.24-.24-.38-.58-.38-.92s.14-.68.38-.92c.48-.48,1.35-.48,1.84,0,.24.24.38.58.38.92s-.14.68-.38.92c-.24.24-.58.38-.92.38Z"/><path class="cls-11" d="m.5,10.3c-.34,0-.68-.14-.92-.38-.24-.24-.38-.58-.38-.92s.14-.67.38-.92c.49-.49,1.36-.49,1.84,0,.24.24.38.58.38.92s-.14.68-.38.92c-.24.24-.58.38-.92.38Z"/><path class="cls-11" d="m.75,13.55c-.34,0-.67-.14-.92-.38-.24-.24-.38-.58-.38-.92s.14-.68.38-.92c.48-.48,1.36-.49,1.84,0,.24.24.38.58.38.92s-.14.68-.38.92c-.24.24-.58.38-.92.38Z"/><path class="cls-11" d="m1,20.8c-.34,0-.68-.14-.92-.38-.24-.24-.38-.58-.38-.92s.14-.68.38-.92c.49-.48,1.36-.48,1.84,0,.24.24.38.58.38.92s-.14.68-.38.92c-.24.24-.58.38-.92.38Z"/><path class="cls-11" d="m.25,24.05c-.34,0-.68-.14-.92-.38-.24-.24-.38-.58-.38-.92s.14-.68.38-.92c.49-.48,1.36-.48,1.84,0,.24.24.38.58.38.92s-.14.68-.38.92c-.24.24-.58.38-.92.38Z"/><path class="cls-11" d="m.75,72.05c-.34,0-.67-.14-.92-.38-.24-.24-.38-.58-.38-.92s.14-.68.38-.92c.48-.48,1.36-.49,1.84,0,.24.24.38.58.38.92s-.14.68-.38.92c-.24.24-.58.38-.92.38Z"/><path class="cls-11" d="m1.25,46.55c-.34,0-.67-.14-.92-.38-.24-.24-.38-.58-.38-.92s.14-.68.38-.92c.48-.48,1.36-.49,1.84,0,.24.24.38.58.38.92s-.14.68-.38.92c-.24.24-.58.38-.92.38Z"/><path class="cls-11" d="m.25,57.3c-.34,0-.68-.14-.92-.38-.24-.24-.38-.58-.38-.92s.14-.68.38-.92c.49-.48,1.36-.48,1.84,0,.24.24.38.58.38.92s-.14.68-.38.92c-.24.24-.58.38-.92.38Z"/><path class="cls-11" d="m1.25,53.3c-.34,0-.68-.14-.92-.38-.24-.24-.38-.58-.38-.92s.14-.68.38-.92c.49-.48,1.36-.48,1.84,0,.24.24.38.58.38.92s-.14.68-.38.92c-.24.24-.58.38-.92.38Z"/><path class="cls-11" d="m67.75.55c-.34,0-.68-.14-.92-.38-.24-.24-.38-.58-.38-.92s.14-.68.38-.92c.48-.48,1.36-.48,1.84,0,.24.24.38.58.38.92s-.14.68-.38.92c-.24.24-.57.38-.92.38Z"/><path class="cls-11" d="m55,1.55c-.34,0-.68-.14-.92-.38-.24-.24-.38-.58-.38-.92s.14-.68.38-.92c.49-.48,1.36-.48,1.84,0,.24.24.38.58.38.92s-.14.68-.38.92c-.24.24-.58.38-.92.38Z"/><path class="cls-11" d="m41,.8c-.34,0-.67-.14-.92-.38-.24-.24-.38-.58-.38-.92s.14-.68.38-.92c.48-.48,1.36-.48,1.84,0,.24.24.38.58.38.92s-.14.68-.38.92c-.24.24-.58.38-.92.38Z"/><path class="cls-11" d="m11.5,2.05c-.34,0-.67-.14-.92-.38-.24-.24-.38-.58-.38-.92s.14-.68.38-.92c.48-.48,1.36-.48,1.84,0,.24.24.38.58.38.92s-.14.68-.38.92c-.24.24-.58.38-.92.38Z"/><path class="cls-11" d="m21.25,1.8c-.34,0-.67-.14-.92-.38-.24-.24-.38-.58-.38-.92s.14-.67.38-.92c.48-.48,1.35-.48,1.84,0,.24.24.38.58.38.92s-.14.68-.38.92c-.24.24-.58.38-.92.38Z"/><path class="cls-11" d="m17,2.55c-.34,0-.68-.14-.92-.38-.24-.24-.38-.58-.38-.92s.14-.68.38-.92c.49-.48,1.36-.48,1.84,0,.24.24.38.58.38.92s-.14.68-.38.92c-.24.24-.57.38-.92.38Z"/><path class="cls-11" d="m27.75,2.55c-.34,0-.68-.14-.92-.38-.24-.24-.38-.58-.38-.92s.14-.68.38-.92c.49-.48,1.36-.48,1.84,0,.24.24.38.58.38.92s-.14.68-.38.92c-.24.24-.57.38-.92.38Z"/><path class="cls-11" d="m55,1.55c-.34,0-.68-.14-.92-.38-.24-.24-.38-.58-.38-.92s.14-.68.38-.92c.49-.48,1.36-.48,1.84,0,.24.24.38.58.38.92s-.14.68-.38.92c-.24.24-.58.38-.92.38Z"/><path class="cls-11" d="m7.75,2.05c-.34,0-.67-.14-.92-.38-.24-.24-.38-.58-.38-.92s.14-.68.38-.92c.48-.48,1.36-.48,1.84,0,.24.24.38.58.38.92s-.14.67-.38.92c-.24.24-.58.38-.92.38Z"/><path class="cls-11" d="m55,1.55c-.34,0-.68-.14-.92-.38-.24-.24-.38-.58-.38-.92s.14-.68.38-.92c.49-.48,1.36-.48,1.84,0,.24.24.38.58.38.92s-.14.68-.38.92c-.24.24-.58.38-.92.38Z"/><path class="cls-11" d="m72.75.05c-.34,0-.67-.14-.92-.38-.24-.24-.38-.58-.38-.92s.14-.68.38-.92c.48-.48,1.36-.49,1.84,0,.24.24.38.58.38.92s-.14.68-.38.92c-.24.24-.58.38-.92.38Z"/><path class="cls-11" d="m.75.05C.41.05.08-.09-.17-.33c-.24-.24-.38-.58-.38-.92s.14-.68.38-.92c.48-.48,1.36-.49,1.84,0,.24.24.38.58.38.92s-.14.68-.38.92C1.43-.09,1.09.05.75.05Z"/></pattern><pattern id="USGS_20_Scrub-2" patternTransform="translate(-5961.94 -12385.56) scale(.12)" xlink:href="#USGS_20_Scrub"/><pattern id="USGS_20_Scrub-3" patternTransform="translate(-5953.7 -12385.56) scale(.12)" xlink:href="#USGS_20_Scrub"/><pattern id="USGS_20_Scrub-4" patternTransform="translate(-5946.8 -12385.56) scale(.12)" xlink:href="#USGS_20_Scrub"/><pattern id="USGS_20_Scrub-5" patternTransform="translate(-5942.17 -12385.56) scale(.12)" xlink:href="#USGS_20_Scrub"/><pattern id="USGS_20_Scrub-6" patternTransform="translate(-5933.75 -12385.56) scale(.12)" xlink:href="#USGS_20_Scrub"/></defs><path class="cls-9" d="m453.07,115.68H89.62c-10.95,0-20.84,4.56-27.87,11.88-.37.36-.74.72-1.1,1.1-.37.36-.74.72-1.1,1.1-.37.36-.74.72-1.1,1.1-.37.36-.74.72-1.1,1.1-.37.36-.74.72-1.1,1.1-.37.36-.74.72-1.1,1.1-.37.36-.74.72-1.1,1.1-.37.36-.74.72-1.1,1.1-.37.36-.74.72-1.1,1.1-.37.36-.74.72-1.1,1.1-.37.36-.74.72-1.1,1.1-.37.36-.74.72-1.1,1.1-.37.36-.74.72-1.1,1.1-.37.36-.74.72-1.1,1.1-.37.36-.74.72-1.1,1.1-.37.36-.74.72-1.1,1.1-.37.36-.74.72-1.1,1.1-.37.36-.74.72-1.1,1.1-.37.36-.74.72-1.1,1.1-.37.36-.74.72-1.1,1.1-.37.36-.74.72-1.1,1.1-.37.36-.74.72-1.1,1.1-.37.36-.74.72-1.1,1.1-.37.36-.74.72-1.1,1.1-.37.36-.74.72-1.1,1.1-.37.36-.74.72-1.1,1.1-.37.36-.74.72-1.1,1.1-.37.36-.74.72-1.1,1.1-.37.36-.74.72-1.1,1.1-.37.36-.74.72-1.1,1.1-.37.36-.74.72-1.1,1.1-.37.36-.74.72-1.1,1.1-.37.36-.74.72-1.1,1.1-.37.36-.74.72-1.1,1.1-.37.36-.74.72-1.1,1.1-.37.36-.74.72-1.1,1.1-.37.36-.74.72-1.1,1.1-.37.36-.74.72-1.1,1.1-.37.36-.74.72-1.1,1.1-.37.36-.74.72-1.1,1.1-7.32,7.03-11.88,16.92-11.88,27.87v120.21c0,21.35,17.31,38.66,38.66,38.66h225.03c1.67,0,3.3.49,4.7,1.4l131.22,85.6c1.53,1,3.14,1.44,4.7,1.44,2.59,0,5-1.23,6.62-3.15.4-.33.76-.7,1.1-1.1.4-.33.76-.7,1.1-1.1.4-.33.76-.7,1.1-1.1.4-.33.76-.7,1.1-1.1.4-.33.76-.7,1.1-1.1.4-.33.76-.7,1.1-1.1.4-.33.76-.7,1.1-1.1.4-.33.76-.7,1.1-1.1.4-.33.76-.7,1.1-1.1.4-.33.76-.7,1.1-1.1.4-.33.76-.7,1.1-1.1.4-.33.76-.7,1.1-1.1.4-.33.76-.7,1.1-1.1.4-.33.76-.7,1.1-1.1.4-.33.76-.7,1.1-1.1.4-.33.76-.7,1.1-1.1.4-.33.76-.7,1.1-1.1.4-.33.76-.7,1.1-1.1.4-.33.76-.7,1.1-1.1.4-.33.76-.7,1.1-1.1.4-.33.76-.7,1.1-1.1.4-.33.76-.7,1.1-1.1.4-.33.76-.7,1.1-1.1.4-.33.76-.7,1.1-1.1.4-.33.76-.7,1.1-1.1.4-.33.76-.7,1.1-1.1.4-.33.76-.7,1.1-1.1.4-.33.76-.7,1.1-1.1.4-.33.76-.7,1.1-1.1.4-.33.76-.7,1.1-1.1.4-.33.76-.7,1.1-1.1.4-.33.76-.7,1.1-1.1.4-.33.76-.7,1.1-1.1.4-.33.76-.7,1.1-1.1.4-.33.76-.7,1.1-1.1.4-.33.76-.7,1.1-1.1.4-.33.76-.7,1.1-1.1.4-.33.76-.7,1.1-1.1.4-.33.76-.7,1.1-1.1.4-.33.76-.7,1.1-1.1,2.68-2.24,4.06-6.02,2.42-9.93l-20.87-49.73c.07-.08.14-.15.22-.23.37-.36.74-.72,1.1-1.1.37-.36.74-.72,1.1-1.1.37-.36.74-.72,1.1-1.1.37-.36.74-.72,1.1-1.1.37-.36.74-.72,1.1-1.1.37-.36.74-.72,1.1-1.1.37-.36.74-.72,1.1-1.1.37-.36.74-.72,1.1-1.1.37-.36.74-.72,1.1-1.1.37-.36.74-.72,1.1-1.1.37-.36.74-.72,1.1-1.1.37-.36.74-.72,1.1-1.1.37-.36.74-.72,1.1-1.1.37-.36.74-.72,1.1-1.1.37-.36.74-.72,1.1-1.1.37-.36.74-.72,1.1-1.1.37-.36.74-.72,1.1-1.1.37-.36.74-.72,1.1-1.1.37-.36.74-.72,1.1-1.1.37-.36.74-.72,1.1-1.1.37-.36.74-.72,1.1-1.1.37-.36.74-.72,1.1-1.1.37-.36.74-.72,1.1-1.1.37-.36.74-.72,1.1-1.1.37-.36.74-.72,1.1-1.1.37-.36.74-.72,1.1-1.1.37-.36.74-.72,1.1-1.1.37-.36.74-.72,1.1-1.1.37-.36.74-.72,1.1-1.1.37-.36.74-.72,1.1-1.1.37-.36.74-.72,1.1-1.1.37-.36.74-.72,1.1-1.1.37-.36.74-.72,1.1-1.1.37-.36.74-.72,1.1-1.1,7.32-7.03,11.88-16.92,11.88-27.87v-120.21c0-21.35-17.31-38.66-38.66-38.66Z"/><path class="cls-10" d="m455.27,396.46c-1.21,0-2.38-.36-3.47-1.08l-131.22-85.6c-1.77-1.15-3.82-1.76-5.93-1.76H89.62c-20.08,0-36.42-16.34-36.42-36.42v-120.21c0-20.08,16.34-36.42,36.42-36.42h363.45c20.08,0,36.42,16.34,36.42,36.42v120.21c0,20.08-16.34,36.42-36.42,36.42h-8.99c-3.64,0-7.02,1.81-9.03,4.84s-2.38,6.84-.97,10.2l27.07,64.52c1.16,2.75.18,4.89-.51,5.92-1.21,1.82-3.27,2.95-5.37,2.95Z"/><path d="m453.07,117.21c18.85,0,34.18,15.33,34.18,34.18v120.21c0,18.85-15.33,34.18-34.18,34.18h-8.99c-4.39,0-8.46,2.18-10.9,5.84-2.43,3.66-2.87,8.26-1.17,12.31l27.07,64.52c.71,1.7.23,3.02-.31,3.82-.8,1.21-2.15,1.95-3.51,1.95-.77,0-1.52-.24-2.25-.71l-131.22-85.6c-2.13-1.39-4.6-2.13-7.15-2.13H89.62c-18.85,0-34.18-15.33-34.18-34.18v-120.21c0-18.85,15.33-34.18,34.18-34.18h363.45m0-4.48H89.62c-21.35,0-38.66,17.31-38.66,38.66v120.21c0,21.35,17.31,38.66,38.66,38.66h225.03c1.67,0,3.3.49,4.7,1.4l131.22,85.6c1.53,1,3.14,1.44,4.7,1.44,5.65,0,10.52-5.85,7.94-11.98l-27.07-64.52c-2.38-5.67,1.79-11.94,7.94-11.94h8.99c21.35,0,38.66-17.31,38.66-38.66v-120.21c0-21.35-17.31-38.66-38.66-38.66h0Z"/><path class="cls-7" d="m142.49,198.16c1.98-1.93.89-5.29-1.85-5.68l-17.47-2.54c-1.09-.16-2.02-.84-2.51-1.82l-7.81-15.83c-.61-1.24-1.8-1.86-2.99-1.86-.84,0-1.69.31-2.32.94-.09.07-.17.15-.25.22-.09.07-.17.15-.25.22-.09.07-.17.15-.25.22-.09.07-.17.15-.25.22-.09.07-.17.15-.25.22-.09.07-.17.15-.25.22-.09.07-.17.15-.25.22-.09.07-.17.15-.25.22-.09.07-.17.15-.25.22-.09.07-.17.15-.25.22-.09.07-.17.15-.25.22-.09.07-.17.15-.25.22-.09.07-.17.15-.25.22-.09.07-.17.15-.25.22-.09.07-.17.15-.25.22-.09.07-.17.15-.25.22-.09.07-.17.15-.25.22-.09.07-.17.15-.25.22-.09.07-.17.15-.25.22-.09.07-.17.15-.25.22-.09.07-.17.15-.25.22-.09.07-.17.15-.25.22-.09.07-.17.15-.25.22-.09.07-.17.15-.25.22-.09.07-.17.15-.25.22-.09.07-.17.15-.25.22-.09.07-.17.15-.25.22-.09.07-.17.15-.25.22-.09.07-.17.15-.25.22-.09.07-.17.15-.25.22-.09.07-.17.15-.25.22-.09.07-.17.15-.25.22-.09.07-.17.15-.25.22-.09.07-.17.15-.25.22-.09.07-.17.15-.25.22-.09.07-.17.15-.25.22-.09.07-.17.15-.25.22-.09.07-.17.15-.25.22-.09.07-.17.15-.25.22-.09.07-.17.15-.25.22-.37.29-.68.67-.92,1.14l-4.48,9.09-12.93,1.88c-.76.11-1.39.45-1.86.92-.09.07-.17.15-.25.22-.09.07-.17.15-.25.22-.09.07-.17.15-.25.23-.09.07-.17.15-.25.22-.09.07-.17.15-.25.22-.09.07-.17.15-.25.22-.09.07-.17.15-.25.23-.09.07-.17.15-.25.22-.09.07-.17.15-.25.22-.09.07-.17.15-.25.22-.09.07-.17.15-.25.23-.09.07-.17.15-.25.22-.09.07-.17.15-.25.23-.09.07-.17.15-.25.22-.09.07-.17.15-.25.23-.09.07-.17.15-.25.22-.09.07-.17.15-.25.22-.09.07-.17.15-.25.22-.09.07-.17.15-.25.23-.09.07-.17.15-.25.22-.09.07-.17.15-.25.22-.09.07-.17.15-.25.22-.09.07-.17.15-.25.23-.09.07-.17.15-.25.22-.09.07-.17.15-.25.22-.09.07-.17.15-.25.22-.09.07-.17.15-.25.22-.09.07-.17.15-.25.22-.09.07-.17.15-.25.22-.09.07-.17.15-.25.22-.09.07-.17.15-.25.22-.09.07-.17.15-.25.22-.09.07-.17.15-.25.22-.09.07-.17.15-.25.22-.09.07-.17.15-.25.23-.09.07-.17.15-.25.22-.09.07-.17.15-.25.22-.09.07-.17.15-.25.22-.09.07-.17.15-.25.22-.09.07-.17.15-.25.22-1.46,1.18-1.76,3.51-.24,4.99l12.64,12.32c.79.77,1.14,1.87.96,2.95l-2.98,17.4c-.37,2.15,1.34,3.9,3.28,3.9.51,0,1.04-.12,1.55-.39l15.62-8.21c.49-.26,1.02-.38,1.55-.38s1.06.13,1.55.38l15.62,8.21c.51.27,1.04.39,1.55.39.89,0,1.73-.37,2.34-.97.09-.07.17-.15.25-.23.09-.07.17-.15.25-.22.09-.07.17-.15.25-.22.09-.07.17-.15.25-.22.09-.07.17-.15.25-.22.09-.07.17-.15.25-.22.09-.07.17-.15.25-.22.09-.07.17-.15.25-.22.09-.07.17-.15.25-.22.09-.07.17-.15.25-.22.09-.07.17-.15.25-.22.09-.07.17-.15.25-.22.09-.07.17-.15.25-.23.09-.07.17-.15.25-.22.09-.07.17-.15.25-.22.09-.07.17-.15.25-.22.09-.07.17-.15.25-.22.09-.07.17-.15.25-.22.09-.07.17-.15.25-.22.09-.07.17-.15.25-.23.09-.07.17-.15.25-.22.09-.07.17-.15.25-.22.09-.07.17-.15.25-.22.09-.07.17-.15.25-.22.09-.07.17-.15.25-.23.09-.07.17-.15.25-.22.09-.07.17-.15.25-.22.09-.07.17-.15.25-.22.09-.07.17-.15.25-.22.09-.07.17-.15.25-.22.09-.07.17-.15.25-.23.09-.07.17-.15.25-.22.09-.07.17-.15.25-.23.09-.07.17-.15.25-.22.09-.07.17-.15.25-.22.09-.07.17-.15.25-.22.09-.07.17-.15.25-.22.09-.07.17-.15.25-.22.09-.07.17-.15.25-.22.09-.07.17-.15.25-.22.88-.71,1.42-1.86,1.19-3.16l-2.98-17.4c-.19-1.08.17-2.18.96-2.95l12.64-12.32Z"/><line class="cls-3" x1="99.79" y1="235.09" x2="110.58" y2="224.31"/><path class="cls-10" d="m129.13,232.51c-.18,0-.35-.05-.52-.14l-15.77-8.29c-.8-.42-1.7-.64-2.61-.64s-1.81.22-2.61.64l-15.77,8.29c-.17.09-.35.14-.52.14-.32,0-.65-.16-.87-.42-.22-.25-.29-.56-.24-.9l3.01-17.56c.31-1.82-.29-3.67-1.61-4.96l-12.76-12.44c-.45-.44-.35-.95-.28-1.15.06-.2.28-.67.91-.76l17.63-2.56c1.82-.27,3.4-1.41,4.22-3.06l7.88-15.98c.28-.56.8-.63,1.01-.63s.73.06,1.01.63l7.88,15.98c.82,1.65,2.39,2.8,4.22,3.06l17.63,2.56c.62.09.84.56.91.76.06.2.17.71-.28,1.15l-12.76,12.44c-1.32,1.29-1.92,3.14-1.61,4.96l3.01,17.56c.06.34-.02.65-.24.9-.22.26-.55.42-.87.42Z"/><path d="m110.23,175.74l6.88,13.95c1.14,2.32,3.35,3.92,5.9,4.29l15.4,2.24-11.14,10.86c-1.85,1.8-2.69,4.4-2.25,6.94l2.63,15.33-13.77-7.24c-1.12-.59-2.38-.9-3.65-.9s-2.53.31-3.65.9l-13.77,7.24,2.63-15.33c.44-2.54-.41-5.14-2.25-6.94l-11.14-10.86,15.39-2.24c2.55-.37,4.76-1.97,5.9-4.29l6.88-13.95m0-5.88c-1.2,0-2.4.62-3.02,1.87l-7.88,15.98c-.49.99-1.44,1.68-2.53,1.84l-17.63,2.56c-2.76.4-3.86,3.79-1.86,5.74l12.76,12.44c.79.77,1.15,1.89.97,2.98l-3.01,17.56c-.37,2.17,1.35,3.94,3.31,3.94.52,0,1.05-.12,1.57-.39l15.77-8.29c.49-.26,1.03-.39,1.56-.39s1.07.13,1.56.39l15.77,8.29c.52.27,1.05.39,1.57.39,1.96,0,3.69-1.77,3.31-3.94l-3.01-17.56c-.19-1.09.17-2.2.97-2.98l12.76-12.44c2-1.95.89-5.33-1.86-5.74l-17.63-2.56c-1.1-.16-2.04-.85-2.53-1.84l-7.88-15.98c-.62-1.25-1.82-1.87-3.02-1.87h0Z"/><line class="cls-3" x1="80.76" y1="221.26" x2="91.19" y2="211"/><path class="cls-8" d="m225.36,198.16c1.98-1.93.89-5.29-1.85-5.68l-17.47-2.54c-1.09-.16-2.02-.84-2.51-1.82l-7.81-15.83c-.61-1.24-1.8-1.86-2.99-1.86-.84,0-1.69.31-2.32.94-.09.07-.17.15-.25.22-.09.07-.17.15-.25.22-.09.07-.17.15-.25.22-.09.07-.17.15-.25.22-.09.07-.17.15-.25.22-.09.07-.17.15-.25.22-.09.07-.17.15-.25.22-.09.07-.17.15-.25.22-.09.07-.17.15-.25.22-.09.07-.17.15-.25.22-.09.07-.17.15-.25.22-.09.07-.17.15-.25.22-.09.07-.17.15-.25.22-.09.07-.17.15-.25.22-.09.07-.17.15-.25.22-.09.07-.17.15-.25.22-.09.07-.17.15-.25.22-.09.07-.17.15-.25.22-.09.07-.17.15-.25.22-.09.07-.17.15-.25.22-.09.07-.17.15-.25.22-.09.07-.17.15-.25.22-.09.07-.17.15-.25.22-.09.07-.17.15-.25.22-.09.07-.17.15-.25.22-.09.07-.17.15-.25.22-.09.07-.17.15-.25.22-.09.07-.17.15-.25.22-.09.07-.17.15-.25.22-.09.07-.17.15-.25.22-.09.07-.17.15-.25.22-.09.07-.17.15-.25.22-.09.07-.17.15-.25.22-.09.07-.17.15-.25.22-.09.07-.17.15-.25.22-.09.07-.17.15-.25.22-.09.07-.17.15-.25.22-.09.07-.17.15-.25.22-.09.07-.17.15-.25.22-.09.07-.17.15-.25.22-.37.29-.68.67-.92,1.14l-4.48,9.09-12.93,1.88c-.76.11-1.39.45-1.86.92-.09.07-.17.15-.25.22-.09.07-.17.15-.25.22-.09.07-.17.15-.25.23-.09.07-.17.15-.25.22-.09.07-.17.15-.25.22-.09.07-.17.15-.25.22-.09.07-.17.15-.25.23-.09.07-.17.15-.25.22-.09.07-.17.15-.25.22-.09.07-.17.15-.25.22-.09.07-.17.15-.25.23-.09.07-.17.15-.25.22-.09.07-.17.15-.25.23-.09.07-.17.15-.25.22-.09.07-.17.15-.25.23-.09.07-.17.15-.25.22-.09.07-.17.15-.25.22-.09.07-.17.15-.25.22-.09.07-.17.15-.25.23-.09.07-.17.15-.25.22-.09.07-.17.15-.25.22-.09.07-.17.15-.25.22-.09.07-.17.15-.25.23-.09.07-.17.15-.25.22-.09.07-.17.15-.25.22-.09.07-.17.15-.25.22-.09.07-.17.15-.25.22-.09.07-.17.15-.25.22-.09.07-.17.15-.25.22-.09.07-.17.15-.25.22-.09.07-.17.15-.25.22-.09.07-.17.15-.25.22-.09.07-.17.15-.25.22-.09.07-.17.15-.25.22-.09.07-.17.15-.25.23-.09.07-.17.15-.25.22-.09.07-.17.15-.25.22-.09.07-.17.15-.25.22-.09.07-.17.15-.25.22-.09.07-.17.15-.25.22-1.46,1.18-1.76,3.51-.24,4.99l12.64,12.32c.79.77,1.14,1.87.96,2.95l-2.98,17.4c-.37,2.15,1.34,3.9,3.28,3.9.51,0,1.04-.12,1.55-.39l15.62-8.21c.49-.26,1.02-.38,1.55-.38s1.06.13,1.55.38l15.62,8.21c.51.27,1.04.39,1.55.39.89,0,1.73-.37,2.34-.97.09-.07.17-.15.25-.23.09-.07.17-.15.25-.22.09-.07.17-.15.25-.22.09-.07.17-.15.25-.22.09-.07.17-.15.25-.22.09-.07.17-.15.25-.22.09-.07.17-.15.25-.22.09-.07.17-.15.25-.22.09-.07.17-.15.25-.22.09-.07.17-.15.25-.22.09-.07.17-.15.25-.22.09-.07.17-.15.25-.22.09-.07.17-.15.25-.23.09-.07.17-.15.25-.22.09-.07.17-.15.25-.22.09-.07.17-.15.25-.22.09-.07.17-.15.25-.22.09-.07.17-.15.25-.22.09-.07.17-.15.25-.22.09-.07.17-.15.25-.23.09-.07.17-.15.25-.22.09-.07.17-.15.25-.22.09-.07.17-.15.25-.22.09-.07.17-.15.25-.22.09-.07.17-.15.25-.23.09-.07.17-.15.25-.22.09-.07.17-.15.25-.22.09-.07.17-.15.25-.22.09-.07.17-.15.25-.22.09-.07.17-.15.25-.22.09-.07.17-.15.25-.23.09-.07.17-.15.25-.22.09-.07.17-.15.25-.23.09-.07.17-.15.25-.22.09-.07.17-.15.25-.22.09-.07.17-.15.25-.22.09-.07.17-.15.25-.22.09-.07.17-.15.25-.22.09-.07.17-.15.25-.22.09-.07.17-.15.25-.22.88-.71,1.42-1.86,1.19-3.16l-2.98-17.4c-.19-1.08.17-2.18.96-2.95l12.64-12.32Z"/><line class="cls-3" x1="182.67" y1="235.09" x2="193.45" y2="224.31"/><path class="cls-10" d="m212,232.51c-.18,0-.35-.05-.52-.14l-15.77-8.29c-.8-.42-1.7-.64-2.61-.64s-1.81.22-2.61.64l-15.77,8.29c-.17.09-.35.14-.52.14-.32,0-.65-.16-.87-.42-.22-.25-.29-.56-.24-.9l3.01-17.56c.31-1.82-.29-3.67-1.61-4.96l-12.76-12.44c-.45-.44-.35-.95-.28-1.15.06-.2.28-.67.91-.76l17.63-2.56c1.83-.27,3.4-1.41,4.22-3.06l7.88-15.98c.28-.57.8-.63,1.01-.63s.73.06,1.01.63l7.88,15.98c.82,1.65,2.39,2.8,4.22,3.06l17.63,2.56c.62.09.84.56.91.76.06.2.17.71-.28,1.15l-12.76,12.44c-1.32,1.29-1.92,3.14-1.61,4.96l3.01,17.56c.06.34-.02.65-.24.9-.22.26-.55.42-.87.42Z"/><path d="m193.1,175.74l6.88,13.95c1.14,2.32,3.35,3.92,5.9,4.29l15.4,2.24-11.14,10.86c-1.85,1.8-2.69,4.4-2.25,6.94l2.63,15.33-13.77-7.24c-1.12-.59-2.38-.9-3.65-.9s-2.53.31-3.65.9l-13.77,7.24,2.63-15.33c.44-2.54-.41-5.14-2.25-6.94l-11.14-10.86,15.39-2.24c2.55-.37,4.76-1.97,5.9-4.29l6.88-13.95m0-5.88c-1.2,0-2.4.62-3.02,1.87l-7.88,15.98c-.49.99-1.44,1.68-2.53,1.84l-17.63,2.56c-2.76.4-3.86,3.79-1.86,5.74l12.76,12.44c.79.77,1.15,1.89.97,2.98l-3.01,17.56c-.37,2.17,1.35,3.94,3.31,3.94.52,0,1.05-.12,1.57-.39l15.77-8.29c.49-.26,1.03-.39,1.56-.39s1.07.13,1.56.39l15.77,8.29c.52.27,1.05.39,1.57.39,1.96,0,3.69-1.77,3.31-3.94l-3.01-17.56c-.19-1.09.17-2.2.97-2.98l12.76-12.44c2-1.95.89-5.33-1.86-5.74l-17.63-2.56c-1.1-.16-2.04-.85-2.53-1.84l-7.88-15.98c-.62-1.25-1.82-1.87-3.02-1.87h0Z"/><line class="cls-3" x1="163.63" y1="221.26" x2="174.07" y2="211"/><path class="cls-5" d="m306.9,198.16c1.98-1.93.89-5.29-1.85-5.68l-17.47-2.54c-1.09-.16-2.02-.84-2.51-1.82l-7.81-15.83c-.61-1.24-1.8-1.86-2.99-1.86-.84,0-1.69.31-2.32.94-.09.07-.17.15-.25.22-.09.07-.17.15-.25.22-.09.07-.17.15-.25.22-.09.07-.17.15-.25.22-.09.07-.17.15-.25.22-.09.07-.17.15-.25.22-.09.07-.17.15-.25.22-.09.07-.17.15-.25.22-.09.07-.17.15-.25.22-.09.07-.17.15-.25.22-.09.07-.17.15-.25.22-.09.07-.17.15-.25.22-.09.07-.17.15-.25.22-.09.07-.17.15-.25.22-.09.07-.17.15-.25.22-.09.07-.17.15-.25.22-.09.07-.17.15-.25.22-.09.07-.17.15-.25.22-.09.07-.17.15-.25.22-.09.07-.17.15-.25.22-.09.07-.17.15-.25.22-.09.07-.17.15-.25.22-.09.07-.17.15-.25.22-.09.07-.17.15-.25.22-.09.07-.17.15-.25.22-.09.07-.17.15-.25.22-.09.07-.17.15-.25.22-.09.07-.17.15-.25.22-.09.07-.17.15-.25.22-.09.07-.17.15-.25.22-.09.07-.17.15-.25.22-.09.07-.17.15-.25.22-.09.07-.17.15-.25.22-.09.07-.17.15-.25.22-.09.07-.17.15-.25.22-.09.07-.17.15-.25.22-.09.07-.17.15-.25.22-.09.07-.17.15-.25.22-.09.07-.17.15-.25.22-.09.07-.17.15-.25.22-.37.29-.68.67-.92,1.14l-4.48,9.09-12.93,1.88c-.76.11-1.39.45-1.86.92-.09.07-.17.15-.25.22-.09.07-.17.15-.25.22-.09.07-.17.15-.25.23-.09.07-.17.15-.25.22-.09.07-.17.15-.25.22-.09.07-.17.15-.25.22-.09.07-.17.15-.25.23-.09.07-.17.15-.25.22-.09.07-.17.15-.25.22-.09.07-.17.15-.25.22-.09.07-.17.15-.25.23-.09.07-.17.15-.25.22-.09.07-.17.15-.25.23-.09.07-.17.15-.25.22-.09.07-.17.15-.25.23-.09.07-.17.15-.25.22-.09.07-.17.15-.25.22-.09.07-.17.15-.25.22-.09.07-.17.15-.25.23-.09.07-.17.15-.25.22-.09.07-.17.15-.25.22-.09.07-.17.15-.25.22-.09.07-.17.15-.25.23-.09.07-.17.15-.25.22-.09.07-.17.15-.25.22-.09.07-.17.15-.25.22-.09.07-.17.15-.25.22-.09.07-.17.15-.25.22-.09.07-.17.15-.25.22-.09.07-.17.15-.25.22-.09.07-.17.15-.25.22-.09.07-.17.15-.25.22-.09.07-.17.15-.25.22-.09.07-.17.15-.25.22-.09.07-.17.15-.25.23-.09.07-.17.15-.25.22-.09.07-.17.15-.25.22-.09.07-.17.15-.25.22-.09.07-.17.15-.25.22-.09.07-.17.15-.25.22-1.46,1.18-1.76,3.51-.24,4.99l12.64,12.32c.79.77,1.14,1.87.96,2.95l-2.98,17.4c-.37,2.15,1.34,3.9,3.28,3.9.51,0,1.04-.12,1.55-.39l15.62-8.21c.49-.26,1.02-.38,1.55-.38s1.06.13,1.55.38l15.62,8.21c.51.27,1.04.39,1.55.39.89,0,1.73-.37,2.34-.97.09-.07.17-.15.25-.23.09-.07.17-.15.25-.22.09-.07.17-.15.25-.22.09-.07.17-.15.25-.22.09-.07.17-.15.25-.22.09-.07.17-.15.25-.22.09-.07.17-.15.25-.22.09-.07.17-.15.25-.22.09-.07.17-.15.25-.22.09-.07.17-.15.25-.22.09-.07.17-.15.25-.22.09-.07.17-.15.25-.22.09-.07.17-.15.25-.23.09-.07.17-.15.25-.22.09-.07.17-.15.25-.22.09-.07.17-.15.25-.22.09-.07.17-.15.25-.22.09-.07.17-.15.25-.22.09-.07.17-.15.25-.22.09-.07.17-.15.25-.23.09-.07.17-.15.25-.22.09-.07.17-.15.25-.22.09-.07.17-.15.25-.22.09-.07.17-.15.25-.22.09-.07.17-.15.25-.23.09-.07.17-.15.25-.22.09-.07.17-.15.25-.22.09-.07.17-.15.25-.22.09-.07.17-.15.25-.22.09-.07.17-.15.25-.22.09-.07.17-.15.25-.23.09-.07.17-.15.25-.22.09-.07.17-.15.25-.23.09-.07.17-.15.25-.22.09-.07.17-.15.25-.22.09-.07.17-.15.25-.22.09-.07.17-.15.25-.22.09-.07.17-.15.25-.22.09-.07.17-.15.25-.22.09-.07.17-.15.25-.22.88-.71,1.42-1.86,1.19-3.16l-2.98-17.4c-.19-1.08.17-2.18.96-2.95l12.64-12.32Z"/><line class="cls-3" x1="264.21" y1="235.09" x2="274.99" y2="224.31"/><path class="cls-10" d="m293.54,232.51c-.18,0-.35-.05-.52-.14l-15.77-8.29c-.8-.42-1.7-.64-2.61-.64s-1.81.22-2.61.64l-15.77,8.29c-.17.09-.35.14-.52.14-.32,0-.65-.16-.87-.42-.22-.25-.29-.56-.24-.9l3.01-17.56c.31-1.82-.29-3.67-1.61-4.96l-12.76-12.44c-.45-.44-.35-.95-.28-1.15.06-.2.28-.67.91-.76l17.63-2.56c1.83-.27,3.4-1.41,4.22-3.06l7.88-15.98c.28-.57.8-.63,1.01-.63s.73.06,1.01.63l7.88,15.98c.82,1.65,2.39,2.8,4.22,3.06l17.63,2.56c.62.09.84.56.91.76.06.2.17.71-.28,1.15l-12.76,12.44c-1.32,1.29-1.92,3.14-1.61,4.96l3.01,17.56c.06.34-.02.65-.24.9-.22.26-.55.42-.87.42Z"/><path d="m274.64,175.74l6.88,13.95c1.14,2.32,3.35,3.92,5.9,4.29l15.4,2.24-11.14,10.86c-1.85,1.8-2.69,4.4-2.25,6.94l2.63,15.33-13.77-7.24c-1.12-.59-2.38-.9-3.65-.9s-2.53.31-3.65.9l-13.77,7.24,2.63-15.33c.44-2.54-.41-5.14-2.25-6.94l-11.14-10.86,15.39-2.24c2.55-.37,4.76-1.97,5.9-4.29l6.88-13.95m0-5.88c-1.2,0-2.4.62-3.02,1.87l-7.88,15.98c-.49.99-1.44,1.68-2.53,1.84l-17.63,2.56c-2.76.4-3.86,3.79-1.86,5.74l12.76,12.44c.79.77,1.15,1.89.97,2.98l-3.01,17.56c-.37,2.17,1.35,3.94,3.31,3.94.52,0,1.05-.12,1.57-.39l15.77-8.29c.49-.26,1.03-.39,1.56-.39s1.07.13,1.56.39l15.77,8.29c.52.27,1.05.39,1.57.39,1.96,0,3.69-1.77,3.31-3.94l-3.01-17.56c-.19-1.09.17-2.2.97-2.98l12.76-12.44c2-1.95.89-5.33-1.86-5.74l-17.63-2.56c-1.1-.16-2.04-.85-2.53-1.84l-7.88-15.98c-.62-1.25-1.82-1.87-3.02-1.87h0Z"/><line class="cls-3" x1="245.17" y1="221.26" x2="255.61" y2="211"/><path class="cls-6" d="m386.16,198.16c1.98-1.93.89-5.29-1.85-5.68l-17.47-2.54c-1.09-.16-2.02-.84-2.51-1.82l-7.81-15.83c-.61-1.24-1.8-1.86-2.99-1.86-.84,0-1.69.31-2.32.94-.09.07-.17.15-.25.22-.09.07-.17.15-.25.22-.09.07-.17.15-.25.22-.09.07-.17.15-.25.22-.09.07-.17.15-.25.22-.09.07-.17.15-.25.22-.09.07-.17.15-.25.22-.09.07-.17.15-.25.22-.09.07-.17.15-.25.22-.09.07-.17.15-.25.22-.09.07-.17.15-.25.22-.09.07-.17.15-.25.22-.09.07-.17.15-.25.22-.09.07-.17.15-.25.22-.09.07-.17.15-.25.22-.09.07-.17.15-.25.22-.09.07-.17.15-.25.22-.09.07-.17.15-.25.22-.09.07-.17.15-.25.22-.09.07-.17.15-.25.22-.09.07-.17.15-.25.22-.09.07-.17.15-.25.22-.09.07-.17.15-.25.22-.09.07-.17.15-.25.22-.09.07-.17.15-.25.22-.09.07-.17.15-.25.22-.09.07-.17.15-.25.22-.09.07-.17.15-.25.22-.09.07-.17.15-.25.22-.09.07-.17.15-.25.22-.09.07-.17.15-.25.22-.09.07-.17.15-.25.22-.09.07-.17.15-.25.22-.09.07-.17.15-.25.22-.09.07-.17.15-.25.22-.09.07-.17.15-.25.22-.09.07-.17.15-.25.22-.09.07-.17.15-.25.22-.09.07-.17.15-.25.22-.09.07-.17.15-.25.22-.37.29-.68.67-.92,1.14l-4.48,9.09-12.93,1.88c-.76.11-1.39.45-1.86.92-.09.07-.17.15-.25.22-.09.07-.17.15-.25.22-.09.07-.17.15-.25.23-.09.07-.17.15-.25.22-.09.07-.17.15-.25.22-.09.07-.17.15-.25.22-.09.07-.17.15-.25.23-.09.07-.17.15-.25.22-.09.07-.17.15-.25.22-.09.07-.17.15-.25.22-.09.07-.17.15-.25.23-.09.07-.17.15-.25.22-.09.07-.17.15-.25.23-.09.07-.17.15-.25.22-.09.07-.17.15-.25.23-.09.07-.17.15-.25.22-.09.07-.17.15-.25.22-.09.07-.17.15-.25.22-.09.07-.17.15-.25.23-.09.07-.17.15-.25.22-.09.07-.17.15-.25.22-.09.07-.17.15-.25.22-.09.07-.17.15-.25.23-.09.07-.17.15-.25.22-.09.07-.17.15-.25.22-.09.07-.17.15-.25.22-.09.07-.17.15-.25.22-.09.07-.17.15-.25.22-.09.07-.17.15-.25.22-.09.07-.17.15-.25.22-.09.07-.17.15-.25.22-.09.07-.17.15-.25.22-.09.07-.17.15-.25.22-.09.07-.17.15-.25.22-.09.07-.17.15-.25.23-.09.07-.17.15-.25.22-.09.07-.17.15-.25.22-.09.07-.17.15-.25.22-.09.07-.17.15-.25.22-.09.07-.17.15-.25.22-1.46,1.18-1.76,3.51-.24,4.99l12.64,12.32c.79.77,1.14,1.87.96,2.95l-2.98,17.4c-.37,2.15,1.34,3.9,3.28,3.9.51,0,1.04-.12,1.55-.39l15.62-8.21c.49-.26,1.02-.38,1.55-.38s1.06.13,1.55.38l15.62,8.21c.51.27,1.04.39,1.55.39.89,0,1.73-.37,2.34-.97.09-.07.17-.15.25-.23.09-.07.17-.15.25-.22.09-.07.17-.15.25-.22.09-.07.17-.15.25-.22.09-.07.17-.15.25-.22.09-.07.17-.15.25-.22.09-.07.17-.15.25-.22.09-.07.17-.15.25-.22.09-.07.17-.15.25-.22.09-.07.17-.15.25-.22.09-.07.17-.15.25-.22.09-.07.17-.15.25-.22.09-.07.17-.15.25-.23.09-.07.17-.15.25-.22.09-.07.17-.15.25-.22.09-.07.17-.15.25-.22.09-.07.17-.15.25-.22.09-.07.17-.15.25-.22.09-.07.17-.15.25-.22.09-.07.17-.15.25-.23.09-.07.17-.15.25-.22.09-.07.17-.15.25-.22.09-.07.17-.15.25-.22.09-.07.17-.15.25-.22.09-.07.17-.15.25-.23.09-.07.17-.15.25-.22.09-.07.17-.15.25-.22.09-.07.17-.15.25-.22.09-.07.17-.15.25-.22.09-.07.17-.15.25-.22.09-.07.17-.15.25-.23.09-.07.17-.15.25-.22.09-.07.17-.15.25-.23.09-.07.17-.15.25-.22.09-.07.17-.15.25-.22.09-.07.17-.15.25-.22.09-.07.17-.15.25-.22.09-.07.17-.15.25-.22.09-.07.17-.15.25-.22.09-.07.17-.15.25-.22.88-.71,1.42-1.86,1.19-3.16l-2.98-17.4c-.19-1.08.17-2.18.96-2.95l12.64-12.32Z"/><line class="cls-3" x1="343.47" y1="235.09" x2="354.25" y2="224.31"/><path class="cls-10" d="m372.8,232.51c-.18,0-.35-.05-.52-.14l-15.77-8.29c-.8-.42-1.7-.64-2.61-.64s-1.81.22-2.61.64l-15.77,8.29c-.17.09-.35.14-.52.14-.32,0-.65-.16-.87-.42-.22-.25-.29-.56-.24-.9l3.01-17.56c.31-1.82-.29-3.67-1.61-4.96l-12.76-12.44c-.45-.44-.35-.95-.28-1.15.06-.2.28-.67.91-.76l17.63-2.56c1.83-.27,3.4-1.41,4.22-3.06l7.88-15.98c.28-.56.8-.63,1.01-.63s.73.06,1.01.63l7.88,15.98c.82,1.65,2.39,2.8,4.22,3.06l17.63,2.56c.62.09.84.56.91.76.06.2.17.71-.28,1.15l-12.76,12.44c-1.32,1.29-1.92,3.14-1.61,4.96l3.01,17.56c.06.34-.02.65-.24.9-.22.26-.55.42-.87.42Z"/><path d="m353.9,175.74l6.88,13.95c1.14,2.32,3.35,3.92,5.9,4.29l15.4,2.24-11.14,10.86c-1.85,1.8-2.69,4.4-2.25,6.94l2.63,15.33-13.77-7.24c-1.12-.59-2.38-.9-3.65-.9s-2.53.31-3.65.9l-13.77,7.24,2.63-15.33c.44-2.54-.41-5.14-2.25-6.94l-11.14-10.86,15.39-2.24c2.55-.37,4.76-1.97,5.9-4.29l6.88-13.95m0-5.88c-1.2,0-2.4.62-3.02,1.87l-7.88,15.98c-.49.99-1.44,1.68-2.53,1.84l-17.63,2.56c-2.76.4-3.86,3.79-1.86,5.74l12.76,12.44c.79.77,1.15,1.89.97,2.98l-3.01,17.56c-.37,2.17,1.35,3.94,3.31,3.94.52,0,1.05-.12,1.57-.39l15.77-8.29c.49-.26,1.03-.39,1.56-.39s1.07.13,1.56.39l15.77,8.29c.52.27,1.05.39,1.57.39,1.96,0,3.69-1.77,3.31-3.94l-3.01-17.56c-.19-1.09.17-2.2.97-2.98l12.76-12.44c2-1.95.89-5.33-1.86-5.74l-17.63-2.56c-1.1-.16-2.04-.85-2.53-1.84l-7.88-15.98c-.62-1.25-1.82-1.87-3.02-1.87h0Z"/><line class="cls-3" x1="324.43" y1="221.26" x2="334.87" y2="211"/><path class="cls-4" d="m469.22,198.16c1.98-1.93.89-5.29-1.85-5.68l-17.47-2.54c-1.09-.16-2.02-.84-2.51-1.82l-7.81-15.83c-.61-1.24-1.8-1.86-2.99-1.86-.84,0-1.69.31-2.32.94-.09.07-.17.15-.25.22-.09.07-.17.15-.25.22-.09.07-.17.15-.25.22-.09.07-.17.15-.25.22-.09.07-.17.15-.25.22-.09.07-.17.15-.25.22-.09.07-.17.15-.25.22-.09.07-.17.15-.25.22-.09.07-.17.15-.25.22-.09.07-.17.15-.25.22-.09.07-.17.15-.25.22-.09.07-.17.15-.25.22-.09.07-.17.15-.25.22-.09.07-.17.15-.25.22-.09.07-.17.15-.25.22-.09.07-.17.15-.25.22-.09.07-.17.15-.25.22-.09.07-.17.15-.25.22-.09.07-.17.15-.25.22-.09.07-.17.15-.25.22-.09.07-.17.15-.25.22-.09.07-.17.15-.25.22-.09.07-.17.15-.25.22-.09.07-.17.15-.25.22-.09.07-.17.15-.25.22-.09.07-.17.15-.25.22-.09.07-.17.15-.25.22-.09.07-.17.15-.25.22-.09.07-.17.15-.25.22-.09.07-.17.15-.25.22-.09.07-.17.15-.25.22-.09.07-.17.15-.25.22-.09.07-.17.15-.25.22-.09.07-.17.15-.25.22-.09.07-.17.15-.25.22-.09.07-.17.15-.25.22-.09.07-.17.15-.25.22-.09.07-.17.15-.25.22-.09.07-.17.15-.25.22-.09.07-.17.15-.25.22-.37.29-.68.67-.92,1.14l-4.48,9.09-12.93,1.88c-.76.11-1.39.45-1.86.92-.09.07-.17.15-.25.22-.09.07-.17.15-.25.22-.09.07-.17.15-.25.23-.09.07-.17.15-.25.22-.09.07-.17.15-.25.22-.09.07-.17.15-.25.22-.09.07-.17.15-.25.23-.09.07-.17.15-.25.22-.09.07-.17.15-.25.22-.09.07-.17.15-.25.22-.09.07-.17.15-.25.23-.09.07-.17.15-.25.22-.09.07-.17.15-.25.23-.09.07-.17.15-.25.22-.09.07-.17.15-.25.23-.09.07-.17.15-.25.22-.09.07-.17.15-.25.22-.09.07-.17.15-.25.22-.09.07-.17.15-.25.23-.09.07-.17.15-.25.22-.09.07-.17.15-.25.22-.09.07-.17.15-.25.22-.09.07-.17.15-.25.23-.09.07-.17.15-.25.22-.09.07-.17.15-.25.22-.09.07-.17.15-.25.22-.09.07-.17.15-.25.22-.09.07-.17.15-.25.22-.09.07-.17.15-.25.22-.09.07-.17.15-.25.22-.09.07-.17.15-.25.22-.09.07-.17.15-.25.22-.09.07-.17.15-.25.22-.09.07-.17.15-.25.22-.09.07-.17.15-.25.23-.09.07-.17.15-.25.22-.09.07-.17.15-.25.22-.09.07-.17.15-.25.22-.09.07-.17.15-.25.22-.09.07-.17.15-.25.22-1.46,1.18-1.76,3.51-.24,4.99l12.64,12.32c.79.77,1.14,1.87.96,2.95l-2.98,17.4c-.37,2.15,1.34,3.9,3.28,3.9.51,0,1.04-.12,1.55-.39l15.62-8.21c.49-.26,1.02-.38,1.55-.38s1.06.13,1.55.38l15.62,8.21c.51.27,1.04.39,1.55.39.89,0,1.73-.37,2.34-.97.09-.07.17-.15.25-.23.09-.07.17-.15.25-.22.09-.07.17-.15.25-.22.09-.07.17-.15.25-.22.09-.07.17-.15.25-.22.09-.07.17-.15.25-.22.09-.07.17-.15.25-.22.09-.07.17-.15.25-.22.09-.07.17-.15.25-.22.09-.07.17-.15.25-.22.09-.07.17-.15.25-.22.09-.07.17-.15.25-.22.09-.07.17-.15.25-.23.09-.07.17-.15.25-.22.09-.07.17-.15.25-.22.09-.07.17-.15.25-.22.09-.07.17-.15.25-.22.09-.07.17-.15.25-.22.09-.07.17-.15.25-.22.09-.07.17-.15.25-.23.09-.07.17-.15.25-.22.09-.07.17-.15.25-.22.09-.07.17-.15.25-.22.09-.07.17-.15.25-.22.09-.07.17-.15.25-.23.09-.07.17-.15.25-.22.09-.07.17-.15.25-.22.09-.07.17-.15.25-.22.09-.07.17-.15.25-.22.09-.07.17-.15.25-.22.09-.07.17-.15.25-.23.09-.07.17-.15.25-.22.09-.07.17-.15.25-.23.09-.07.17-.15.25-.22.09-.07.17-.15.25-.22.09-.07.17-.15.25-.22.09-.07.17-.15.25-.22.09-.07.17-.15.25-.22.09-.07.17-.15.25-.22.09-.07.17-.15.25-.22.88-.71,1.42-1.86,1.19-3.16l-2.98-17.4c-.19-1.08.17-2.18.96-2.95l12.64-12.32Z"/><line class="cls-3" x1="426.52" y1="235.09" x2="437.31" y2="224.31"/><path class="cls-10" d="m455.86,232.51c-.18,0-.35-.05-.52-.14l-15.77-8.29c-.8-.42-1.7-.64-2.61-.64s-1.81.22-2.61.64l-15.77,8.29c-.17.09-.35.14-.52.14-.32,0-.65-.16-.87-.42-.22-.25-.29-.56-.24-.9l3.01-17.56c.31-1.82-.29-3.67-1.61-4.96l-12.76-12.44c-.45-.44-.35-.95-.28-1.15.06-.2.28-.67.91-.76l17.63-2.56c1.83-.27,3.4-1.41,4.22-3.06l7.88-15.98c.28-.57.8-.63,1.01-.63s.73.06,1.01.63l7.88,15.98c.82,1.65,2.39,2.8,4.22,3.06l17.63,2.56c.62.09.84.56.91.76.06.2.17.71-.28,1.15l-12.76,12.44c-1.32,1.29-1.92,3.14-1.61,4.96l3.01,17.56c.06.34-.02.65-.24.9-.22.26-.55.42-.87.42Z"/><path d="m436.96,175.74l6.88,13.95c1.14,2.32,3.35,3.92,5.9,4.29l15.4,2.24-11.14,10.86c-1.85,1.8-2.69,4.4-2.25,6.94l2.63,15.33-13.77-7.24c-1.12-.59-2.38-.9-3.65-.9s-2.53.31-3.65.9l-13.77,7.24,2.63-15.33c.44-2.54-.41-5.14-2.25-6.94l-11.14-10.86,15.39-2.24c2.55-.37,4.76-1.97,5.9-4.29l6.88-13.95m0-5.88c-1.2,0-2.4.62-3.02,1.87l-7.88,15.98c-.49.99-1.44,1.68-2.53,1.84l-17.63,2.56c-2.76.4-3.86,3.79-1.86,5.74l12.76,12.44c.79.77,1.15,1.89.97,2.98l-3.01,17.56c-.37,2.17,1.35,3.94,3.31,3.94.52,0,1.05-.12,1.57-.39l15.77-8.29c.49-.26,1.03-.39,1.56-.39s1.07.13,1.56.39l15.77,8.29c.52.27,1.05.39,1.57.39,1.96,0,3.69-1.77,3.31-3.94l-3.01-17.56c-.19-1.09.17-2.2.97-2.98l12.76-12.44c2-1.95.89-5.33-1.86-5.74l-17.63-2.56c-1.1-.16-2.04-.85-2.53-1.84l-7.88-15.98c-.62-1.25-1.82-1.87-3.02-1.87h0Z"/><line class="cls-3" x1="407.49" y1="221.26" x2="417.92" y2="211"/><line class="cls-2" x1="18.37" y1="344.6" x2="65.79" y2="298.13"/><line class="cls-2" x1="273.94" y1="357.4" x2="317.56" y2="309.04"/></svg>